<svg width="22" height="22" viewBox="0 0 22 22" fill="none" xmlns="http://www.w3.org/2000/svg">
<g clip-path="url(#clip0_916_132265)">
<path d="M8.74414 12.7161H13.9933V14.0284H8.74414V12.7161Z" fill="black"/>
<path d="M14.4314 10.0914C15.1562 10.0914 15.7437 9.50385 15.7437 8.77909C15.7437 8.05433 15.1562 7.4668 14.4314 7.4668C13.7067 7.4668 13.1191 8.05433 13.1191 8.77909C13.1191 9.50385 13.7067 10.0914 14.4314 10.0914Z" fill="black"/>
<path d="M8.30644 10.0914C9.0312 10.0914 9.61873 9.50385 9.61873 8.77909C9.61873 8.05433 9.0312 7.4668 8.30644 7.4668C7.58168 7.4668 6.99414 8.05433 6.99414 8.77909C6.99414 9.50385 7.58168 10.0914 8.30644 10.0914Z" fill="black"/>
<path d="M11.361 2.21753C6.53174 2.21753 2.62109 6.13692 2.62109 10.9662C2.62109 15.7954 6.53174 19.7148 11.361 19.7148C16.199 19.7148 20.1184 15.7954 20.1184 10.9662C20.1184 6.13692 16.199 2.21753 11.361 2.21753ZM11.3697 17.9651C7.50284 17.9651 4.37082 14.8331 4.37082 10.9662C4.37082 7.09927 7.50284 3.96726 11.3697 3.96726C15.2366 3.96726 18.3686 7.09927 18.3686 10.9662C18.3686 14.8331 15.2366 17.9651 11.3697 17.9651Z" fill="black"/>
</g>
<defs>
<clipPath id="clip0_916_132265">
<rect width="20.9967" height="20.9967" fill="white" transform="translate(0.871094 0.467773)"/>
</clipPath>
</defs>
</svg>
