<svg width="18" height="17" viewBox="0 0 18 17" fill="none" xmlns="http://www.w3.org/2000/svg">
<path d="M11.7094 7.77212C12.3989 7.77212 12.9579 7.21315 12.9579 6.52363C12.9579 5.83411 12.3989 5.27515 11.7094 5.27515C11.0199 5.27515 10.4609 5.83411 10.4609 6.52363C10.4609 7.21315 11.0199 7.77212 11.7094 7.77212Z" fill="black"/>
<path d="M5.88325 7.77212C6.57277 7.77212 7.13174 7.21315 7.13174 6.52363C7.13174 5.83411 6.57277 5.27515 5.88325 5.27515C5.19373 5.27515 4.63477 5.83411 4.63477 6.52363C4.63477 7.21315 5.19373 7.77212 5.88325 7.77212Z" fill="black"/>
<path d="M8.79638 13.5983C10.6941 13.5983 12.3088 12.2167 12.958 10.269H4.63477C5.28398 12.2167 6.89868 13.5983 8.79638 13.5983Z" fill="black"/>
<path d="M8.78757 0.28125C4.19314 0.28125 0.472656 4.01006 0.472656 8.60448C0.472656 13.1989 4.19314 16.9277 8.78757 16.9277C13.3903 16.9277 17.1191 13.1989 17.1191 8.60448C17.1191 4.01006 13.3903 0.28125 8.78757 0.28125ZM8.79589 15.2631C5.11702 15.2631 2.1373 12.2834 2.1373 8.60448C2.1373 4.92561 5.11702 1.9459 8.79589 1.9459C12.4748 1.9459 15.4545 4.92561 15.4545 8.60448C15.4545 12.2834 12.4748 15.2631 8.79589 15.2631Z" fill="black"/>
</svg>
