<svg width="16" height="20" viewBox="0 0 16 20" fill="black" xmlns="http://www.w3.org/2000/svg">
<path d="M13.66 6.0001L8 0.350098L2.34 6.0001C0.78 7.5601 0 9.6401 0 11.6401C0 13.6401 0.78 15.7501 2.34 17.3101C3.9 18.8701 5.95 19.6601 8 19.6601C10.05 19.6601 12.1 18.8701 13.66 17.3101C15.22 15.7501 16 13.6401 16 11.6401C16 9.6401 15.22 7.5601 13.66 6.0001ZM2 12.0001C2.01 10.0001 2.62 8.7301 3.76 7.6001L8 3.2701L12.24 7.6501C13.38 8.7701 13.99 10.0001 14 12.0001H2Z" fill="black"/>
<path d="M12.245 7.38892L8 3L3.755 7.38892C2.585 8.60073 2 10.2165 2 11.7701C2 13.3237 2.585 14.9627 3.755 16.1745C4.925 17.3863 6.4625 18 8 18C9.5375 18 11.075 17.3863 12.245 16.1745C13.415 14.9627 14 13.3237 14 11.7701C14 10.2165 13.415 8.60073 12.245 7.38892ZM5.5 4.57143C5.5075 3.01783 3.965 9.50958 4.82 8.6318L8 5.26825L11.18 8.67064C12.035 9.54065 10.4925 3.01783 10.5 4.57143H8H5.5Z" fill="black"/>
</svg>