<svg width="19" height="19" viewBox="0 0 19 19" fill="none" xmlns="http://www.w3.org/2000/svg">
<path d="M5.1179 8.11018L6.04525 7.18282L5.1179 6.25546L6.04525 5.32811L7.89996 7.18282L6.04525 9.03753L5.1179 8.11018ZM2.65078 6.74539C2.67702 6.74539 2.69452 6.75414 2.72077 6.75414C3.76186 4.18204 6.27272 2.37107 9.21226 2.37107C11.1282 2.37107 12.8517 3.14095 14.1202 4.38325C14.2515 3.85834 14.5139 3.25468 14.8289 2.66852C13.3066 1.39122 11.3469 0.621338 9.20351 0.621338C4.93417 0.621338 1.38223 3.69211 0.621094 7.74273C1.11102 7.13033 1.85465 6.74539 2.65078 6.74539ZM17.086 8.05768C16.7186 8.05768 16.3686 7.97895 16.0449 7.86521C16.1499 8.34639 16.2112 8.85381 16.2112 9.36998C16.2112 13.2369 13.0792 16.3689 9.21226 16.3689C6.27272 16.3689 3.76186 14.5579 2.72077 11.9858C2.69452 11.9858 2.67702 11.9946 2.65078 11.9946C2.19585 11.9946 1.74092 11.8721 1.33848 11.6446C1.05853 11.4872 0.822313 11.2772 0.621094 11.0322C1.39972 15.0653 4.93417 18.1186 9.19476 18.1186C14.0415 18.1186 17.9609 14.1992 17.9609 9.36998C17.9609 8.8888 17.9084 8.41638 17.8384 7.9527C17.5935 8.01394 17.3485 8.05768 17.086 8.05768ZM17.086 1.4962C17.086 1.4962 15.3363 4.03331 15.3363 4.99566C15.3363 5.95801 16.1237 6.74539 17.086 6.74539C18.0484 6.74539 18.8358 5.95801 18.8358 4.99566C18.8358 4.03331 17.086 1.4962 17.086 1.4962ZM12.3793 5.32811L10.5246 7.18282L12.3793 9.03753L13.3066 8.11018L12.3793 7.18282L13.3066 6.25546L12.3793 5.32811ZM6.20273 13.7443C6.80638 12.7032 7.92621 11.9946 9.21226 11.9946C10.4983 11.9946 11.6181 12.7032 12.2218 13.7443H13.6916C12.9917 11.9508 11.2507 10.6823 9.21226 10.6823C8.45113 10.6823 7.72499 10.8572 7.08634 11.1809L3.95433 9.36998C3.95433 8.91505 3.72686 8.47762 3.30693 8.24141C2.67702 7.88271 1.8809 8.09268 1.51346 8.72258C1.15476 9.35248 1.36473 10.1486 1.99463 10.5161C2.41457 10.761 2.91324 10.7348 3.29818 10.5161L5.89652 12.0208C5.39785 12.4845 4.99541 13.0794 4.73295 13.7443H6.20273Z" fill="black"/>
</svg>
