<svg width="22" height="22" viewBox="0 0 22 22" fill="none" xmlns="http://www.w3.org/2000/svg">
<g clip-path="url(#clip0_916_132257)">
<path d="M14.4314 10.2308C15.1562 10.2308 15.7437 9.64326 15.7437 8.9185C15.7437 8.19374 15.1562 7.6062 14.4314 7.6062C13.7067 7.6062 13.1191 8.19374 13.1191 8.9185C13.1191 9.64326 13.7067 10.2308 14.4314 10.2308Z" fill="black"/>
<path d="M8.30644 10.2308C9.0312 10.2308 9.61873 9.64326 9.61873 8.9185C9.61873 8.19374 9.0312 7.6062 8.30644 7.6062C7.58168 7.6062 6.99414 8.19374 6.99414 8.9185C6.99414 9.64326 7.58168 10.2308 8.30644 10.2308Z" fill="black"/>
<path d="M11.3697 12.8553C9.3313 12.8553 7.59032 14.1239 6.89043 15.9173H8.35145C8.95511 14.8762 10.0749 14.1676 11.3697 14.1676C12.6645 14.1676 13.7756 14.8762 14.388 15.9173H15.849C15.1491 14.1239 13.4082 12.8553 11.3697 12.8553ZM11.361 2.35693C6.53174 2.35693 2.62109 6.27633 2.62109 11.1056C2.62109 15.9348 6.53174 19.8542 11.361 19.8542C16.199 19.8542 20.1184 15.9348 20.1184 11.1056C20.1184 6.27633 16.199 2.35693 11.361 2.35693ZM11.3697 18.1045C7.50284 18.1045 4.37082 14.9725 4.37082 11.1056C4.37082 7.23868 7.50284 4.10666 11.3697 4.10666C15.2366 4.10666 18.3686 7.23868 18.3686 11.1056C18.3686 14.9725 15.2366 18.1045 11.3697 18.1045Z" fill="black"/>
</g>
<defs>
<clipPath id="clip0_916_132257">
<rect width="20.9967" height="20.9967" fill="white" transform="translate(0.871094 0.607178)"/>
</clipPath>
</defs>
</svg>
