<svg width="21" height="21" viewBox="0 0 21 21" fill="none" xmlns="http://www.w3.org/2000/svg">
<g clip-path="url(#clip0_916_132276)">
<path d="M13.7075 9.54604C14.397 9.54604 14.956 8.98708 14.956 8.29756C14.956 7.60804 14.397 7.04907 13.7075 7.04907C13.018 7.04907 12.459 7.60804 12.459 8.29756C12.459 8.98708 13.018 9.54604 13.7075 9.54604Z" fill="black"/>
<path d="M7.8813 9.54604C8.57082 9.54604 9.12978 8.98708 9.12978 8.29756C9.12978 7.60804 8.57082 7.04907 7.8813 7.04907C7.19178 7.04907 6.63281 7.60804 6.63281 8.29756C6.63281 8.98708 7.19178 9.54604 7.8813 9.54604Z" fill="black"/>
<path d="M10.7959 13.7077C9.56405 13.7077 8.507 13.0335 7.92437 12.0431H6.53439C7.20025 13.7493 8.85658 14.9562 10.7959 14.9562C12.7352 14.9562 14.3915 13.7493 15.0574 12.0431H13.6674C13.0848 13.0335 12.0277 13.7077 10.7959 13.7077ZM10.7876 2.05518C6.19314 2.05518 2.47266 5.78398 2.47266 10.3784C2.47266 14.9728 6.19314 18.7016 10.7876 18.7016C15.3903 18.7016 19.1191 14.9728 19.1191 10.3784C19.1191 5.78398 15.3903 2.05518 10.7876 2.05518ZM10.7959 17.037C7.11702 17.037 4.1373 14.0573 4.1373 10.3784C4.1373 6.69954 7.11702 3.71982 10.7959 3.71982C14.4748 3.71982 17.4545 6.69954 17.4545 10.3784C17.4545 14.0573 14.4748 17.037 10.7959 17.037Z" fill="black"/>
</g>
<defs>
<clipPath id="clip0_916_132276">
<rect width="19.9758" height="19.9758" fill="white" transform="translate(0.806641 0.390381)"/>
</clipPath>
</defs>
</svg>
