<svg width="17" height="20" viewBox="0 0 17 20" fill="black" xmlns="http://www.w3.org/2000/svg">
<path d="M14.16 6.0001L8.5 0.350098L2.84 6.0001C1.28 7.5601 0.5 9.6401 0.5 11.6401C0.5 13.6401 1.28 15.7501 2.84 17.3101C4.4 18.8701 6.45 19.6601 8.5 19.6601C10.55 19.6601 12.6 18.8701 14.16 17.3101C15.72 15.7501 16.5 13.6401 16.5 11.6401C16.5 9.6401 15.72 7.5601 14.16 6.0001ZM2.5 12.0001C2.51 10.0001 3.12 8.7301 4.26 7.6001L8.5 3.2701L12.74 7.6501C13.88 8.7701 14.49 10.0001 14.5 12.0001H2.5Z" fill="black"/>
</svg>
