<svg width="24" height="24" viewBox="0 0 24 24" fill="none" xmlns="http://www.w3.org/2000/svg">
<path d="M17.66 8.0001L12 2.3501L6.34 8.0001C4.78 9.5601 4 11.6401 4 13.6401C4 15.6401 4.78 17.7501 6.34 19.3101C7.9 20.8701 9.95 21.6601 12 21.6601C14.05 21.6601 16.1 20.8701 17.66 19.3101C19.22 17.7501 20 15.6401 20 13.6401C20 11.6401 19.22 9.5601 17.66 8.0001ZM6 14.0001C6.01 12.0001 6.62 10.7301 7.76 9.6001L12 5.2701L16.24 9.6501C17.38 10.7701 17.99 12.0001 18 14.0001H6Z" fill="black"/>
<path d="M16.245 9.38892L12 5L7.755 9.38892C6.585 10.6007 6 12.2165 6 13.7701C6 15.3237 6.585 16.9627 7.755 18.1745C8.925 19.3863 10.4625 20 12 20C13.5375 20 15.075 19.3863 16.245 18.1745C17.415 16.9627 18 15.3237 18 13.7701C18 12.2165 17.415 10.6007 16.245 9.38892ZM9.5 6.57143C9.5075 5.01783 7.965 11.5096 8.82 10.6318L12 7.26825L15.18 10.6706C16.035 11.5407 14.4925 5.01783 14.5 6.57143H12H9.5Z" fill="black"/>
</svg>
