<svg width="25" height="31" viewBox="0 0 25 31" fill="none" xmlns="http://www.w3.org/2000/svg">
<path d="M12.5 0.083252C4.28291 7.09784 0.166656 13.1566 0.166656 18.2749C0.166656 25.9524 6.02499 30.9166 12.5 30.9166C18.975 30.9166 24.8333 25.9524 24.8333 18.2749C24.8333 13.1566 20.7171 7.09784 12.5 0.083252ZM12.5 27.8333C7.33541 27.8333 3.24999 23.8712 3.24999 18.2749C3.24999 14.6674 6.25624 9.88825 12.5 4.18409C18.7437 9.88825 21.75 14.652 21.75 18.2749C21.75 23.8712 17.6646 27.8333 12.5 27.8333ZM6.07124 18.5833C6.64166 18.5833 7.10416 18.9841 7.21207 19.5391C7.84416 22.9616 10.7271 24.1333 12.8237 23.9637C13.4867 23.9328 14.0417 24.457 14.0417 25.1199C14.0417 25.7366 13.5483 26.2453 12.9317 26.2762C9.64791 26.4766 5.80916 24.5958 4.93041 19.9245C4.80707 19.2308 5.36207 18.5833 6.07124 18.5833Z" fill="white"/>
</svg>
