<svg width="23" height="29" viewBox="0 0 23 29" fill="none" xmlns="http://www.w3.org/2000/svg">
<path d="M11.7055 0.177734C4.18079 6.60126 0.411377 12.1495 0.411377 16.8366C0.411377 23.8671 5.77608 28.413 11.7055 28.413C17.6349 28.413 22.9996 23.8671 22.9996 16.8366C22.9996 12.1495 19.2302 6.60126 11.7055 0.177734ZM11.7055 25.5895C6.97608 25.5895 3.23491 21.9613 3.23491 16.8366C3.23491 13.533 5.98785 9.15656 11.7055 3.93303C17.4231 9.15656 20.1761 13.5189 20.1761 16.8366C20.1761 21.9613 16.4349 25.5895 11.7055 25.5895ZM5.81844 17.1189C6.34079 17.1189 6.76432 17.486 6.86314 17.9942C7.44196 21.1283 10.082 22.2013 12.002 22.046C12.609 22.0177 13.1173 22.4977 13.1173 23.1048C13.1173 23.6695 12.6655 24.1354 12.1008 24.1636C9.09373 24.3471 5.57844 22.6248 4.77373 18.3471C4.66079 17.7119 5.16902 17.1189 5.81844 17.1189Z" fill="white"/>
</svg>
