<svg width="26" height="29" viewBox="0 0 26 29" fill="none" xmlns="http://www.w3.org/2000/svg">
<path d="M5.64669 12.8836H8.47022V15.7071H5.64669V12.8836ZM25.4114 5.82479V25.5895C25.4114 27.1424 24.1408 28.413 22.5879 28.413H2.82316C1.2561 28.413 -0.000366211 27.1424 -0.000366211 25.5895L0.0137514 5.82479C0.0137514 4.27185 1.2561 3.00126 2.82316 3.00126H4.23493V0.177734H7.05846V3.00126H18.3526V0.177734H21.1761V3.00126H22.5879C24.1408 3.00126 25.4114 4.27185 25.4114 5.82479ZM2.82316 8.64832H22.5879V5.82479H2.82316V8.64832ZM22.5879 25.5895V11.4719H2.82316V25.5895H22.5879ZM16.9408 15.7071H19.7643V12.8836H16.9408V15.7071ZM11.2938 15.7071H14.1173V12.8836H11.2938V15.7071Z" fill="white"/>
</svg>
