<svg width="22" height="20" viewBox="0 0 22 20" fill="none" xmlns="http://www.w3.org/2000/svg">
<path d="M5.64 8.56L6.7 7.5L5.64 6.44L6.7 5.38L8.82 7.5L6.7 9.62L5.64 8.56ZM2.82 7C2.85 7 2.87 7.01 2.9 7.01C4.09 4.07 6.96 2 10.32 2C12.51 2 14.48 2.88 15.93 4.3C16.08 3.7 16.38 3.01 16.74 2.34C15 0.88 12.76 0 10.31 0C5.43 0 1.37 3.51 0.5 8.14C1.06 7.44 1.91 7 2.82 7ZM19.32 8.5C18.9 8.5 18.5 8.41 18.13 8.28C18.25 8.83 18.32 9.41 18.32 10C18.32 14.42 14.74 18 10.32 18C6.96 18 4.09 15.93 2.9 12.99C2.87 12.99 2.85 13 2.82 13C2.3 13 1.78 12.86 1.32 12.6C1 12.42 0.73 12.18 0.5 11.9C1.39 16.51 5.43 20 10.3 20C15.84 20 20.32 15.52 20.32 10C20.32 9.45 20.26 8.91 20.18 8.38C19.9 8.45 19.62 8.5 19.32 8.5ZM19.32 1C19.32 1 17.32 3.9 17.32 5C17.32 6.1 18.22 7 19.32 7C20.42 7 21.32 6.1 21.32 5C21.32 3.9 19.32 1 19.32 1ZM13.94 5.38L11.82 7.5L13.94 9.62L15 8.56L13.94 7.5L15 6.44L13.94 5.38ZM6.88 15C7.57 13.81 8.85 13 10.32 13C11.79 13 13.07 13.81 13.76 15H15.44C14.64 12.95 12.65 11.5 10.32 11.5C9.45 11.5 8.62 11.7 7.89 12.07L4.31 10C4.31 9.48 4.05 8.98 3.57 8.71C2.85 8.3 1.94 8.54 1.52 9.26C1.11 9.98 1.35 10.89 2.07 11.31C2.55 11.59 3.12 11.56 3.56 11.31L6.53 13.03C5.96 13.56 5.5 14.24 5.2 15H6.88Z" fill="#B31F20"/>
</svg>
