<svg width="345" height="154" viewBox="0 0 345 154" fill="none" xmlns="http://www.w3.org/2000/svg">
<rect x="1" y="1" width="343" height="152" rx="12" fill="white"/>
<rect x="1" y="1" width="343" height="152" rx="12" stroke="#C4C4C4"/>
<path d="M23.14 24.56L24.2 23.5L23.14 22.44L24.2 21.38L26.32 23.5L24.2 25.62L23.14 24.56ZM20.32 23C20.35 23 20.37 23.01 20.4 23.01C21.59 20.07 24.46 18 27.82 18C30.01 18 31.98 18.88 33.43 20.3C33.58 19.7 33.88 19.01 34.24 18.34C32.5 16.88 30.26 16 27.81 16C22.93 16 18.87 19.51 18 24.14C18.56 23.44 19.41 23 20.32 23ZM36.82 24.5C36.4 24.5 36 24.41 35.63 24.28C35.75 24.83 35.82 25.41 35.82 26C35.82 30.42 32.24 34 27.82 34C24.46 34 21.59 31.93 20.4 28.99C20.37 28.99 20.35 29 20.32 29C19.8 29 19.28 28.86 18.82 28.6C18.5 28.42 18.23 28.18 18 27.9C18.89 32.51 22.93 36 27.8 36C33.34 36 37.82 31.52 37.82 26C37.82 25.45 37.76 24.91 37.68 24.38C37.4 24.45 37.12 24.5 36.82 24.5ZM36.82 17C36.82 17 34.82 19.9 34.82 21C34.82 22.1 35.72 23 36.82 23C37.92 23 38.82 22.1 38.82 21C38.82 19.9 36.82 17 36.82 17ZM31.44 21.38L29.32 23.5L31.44 25.62L32.5 24.56L31.44 23.5L32.5 22.44L31.44 21.38ZM24.38 31C25.07 29.81 26.35 29 27.82 29C29.29 29 30.57 29.81 31.26 31H32.94C32.14 28.95 30.15 27.5 27.82 27.5C26.95 27.5 26.12 27.7 25.39 28.07L21.81 26C21.81 25.48 21.55 24.98 21.07 24.71C20.35 24.3 19.44 24.54 19.02 25.26C18.61 25.98 18.85 26.89 19.57 27.31C20.05 27.59 20.62 27.56 21.06 27.31L24.03 29.03C23.46 29.56 23 30.24 22.7 31H24.38Z" fill="#6D6E71"/>
<path d="M68.04 22.328C67.624 21.88 67.2187 21.5813 66.824 21.432C66.44 21.2827 66.0507 21.208 65.656 21.208C65.0693 21.208 64.536 21.3147 64.056 21.528C63.5867 21.7307 63.1813 22.0187 62.84 22.392C62.4987 22.7547 62.232 23.1813 62.04 23.672C61.8587 24.1627 61.768 24.6907 61.768 25.256C61.768 25.864 61.8587 26.424 62.04 26.936C62.232 27.448 62.4987 27.8907 62.84 28.264C63.1813 28.6373 63.5867 28.9307 64.056 29.144C64.536 29.3573 65.0693 29.464 65.656 29.464C66.1147 29.464 66.5573 29.3573 66.984 29.144C67.4213 28.92 67.8267 28.568 68.2 28.088L69.864 29.272C69.352 29.976 68.728 30.488 67.992 30.808C67.256 31.128 66.472 31.288 65.64 31.288C64.7653 31.288 63.96 31.1493 63.224 30.872C62.4987 30.584 61.8693 30.184 61.336 29.672C60.8133 29.1493 60.4027 28.5253 60.104 27.8C59.8053 27.0747 59.656 26.2693 59.656 25.384C59.656 24.4773 59.8053 23.656 60.104 22.92C60.4027 22.1733 60.8133 21.5387 61.336 21.016C61.8693 20.4933 62.4987 20.0933 63.224 19.816C63.96 19.528 64.7653 19.384 65.64 19.384C66.408 19.384 67.1173 19.5227 67.768 19.8C68.4293 20.0667 69.0427 20.5253 69.608 21.176L68.04 22.328ZM70.5563 23.32H72.4763V24.536H72.5083C72.7216 24.088 73.0256 23.7413 73.4203 23.496C73.8149 23.2507 74.2683 23.128 74.7803 23.128C74.8976 23.128 75.0096 23.1387 75.1163 23.16C75.2336 23.1813 75.3509 23.208 75.4683 23.24V25.096C75.3083 25.0533 75.1483 25.0213 74.9883 25C74.8389 24.968 74.6896 24.952 74.5403 24.952C74.0923 24.952 73.7296 25.0373 73.4523 25.208C73.1856 25.368 72.9776 25.5547 72.8283 25.768C72.6896 25.9813 72.5936 26.1947 72.5403 26.408C72.4976 26.6213 72.4763 26.7813 72.4763 26.888V31H70.5563V23.32ZM81.0901 29.944H81.0421C80.7648 30.3813 80.4128 30.7013 79.9861 30.904C79.5595 31.096 79.0901 31.192 78.5781 31.192C78.2261 31.192 77.8795 31.144 77.5381 31.048C77.2075 30.952 76.9088 30.808 76.6421 30.616C76.3861 30.424 76.1781 30.184 76.0181 29.896C75.8581 29.608 75.7781 29.272 75.7781 28.888C75.7781 28.472 75.8528 28.12 76.0021 27.832C76.1515 27.5333 76.3488 27.288 76.5941 27.096C76.8501 26.8933 77.1435 26.7333 77.4741 26.616C77.8048 26.4987 78.1461 26.4133 78.4981 26.36C78.8608 26.296 79.2235 26.2587 79.5861 26.248C79.9488 26.2267 80.2901 26.216 80.6101 26.216H81.0901V26.008C81.0901 25.528 80.9248 25.1707 80.5941 24.936C80.2635 24.6907 79.8421 24.568 79.3301 24.568C78.9248 24.568 78.5461 24.6427 78.1941 24.792C77.8421 24.9307 77.5381 25.1227 77.2821 25.368L76.2741 24.36C76.7008 23.9227 77.1968 23.608 77.7621 23.416C78.3381 23.224 78.9301 23.128 79.5381 23.128C80.0821 23.128 80.5408 23.192 80.9141 23.32C81.2875 23.4373 81.5968 23.592 81.8421 23.784C82.0875 23.976 82.2741 24.2 82.4021 24.456C82.5408 24.7013 82.6368 24.952 82.6901 25.208C82.7541 25.464 82.7915 25.7147 82.8021 25.96C82.8128 26.1947 82.8181 26.4027 82.8181 26.584V31H81.0901V29.944ZM80.9781 27.56H80.5781C80.3115 27.56 80.0128 27.5707 79.6821 27.592C79.3515 27.6133 79.0368 27.6667 78.7381 27.752C78.4501 27.8267 78.2048 27.944 78.0021 28.104C77.7995 28.2533 77.6981 28.4667 77.6981 28.744C77.6981 28.9253 77.7355 29.08 77.8101 29.208C77.8955 29.3253 78.0021 29.4267 78.1301 29.512C78.2581 29.5973 78.4021 29.6613 78.5621 29.704C78.7221 29.736 78.8821 29.752 79.0421 29.752C79.7035 29.752 80.1888 29.5973 80.4981 29.288C80.8181 28.968 80.9781 28.536 80.9781 27.992V27.56ZM84.319 23.32H86.143V24.52H86.175C86.3457 24.1573 86.6177 23.8373 86.991 23.56C87.375 23.272 87.887 23.128 88.527 23.128C89.7324 23.128 90.5324 23.6027 90.927 24.552C91.2044 24.0613 91.551 23.704 91.967 23.48C92.383 23.2453 92.879 23.128 93.455 23.128C93.967 23.128 94.399 23.2133 94.751 23.384C95.103 23.5547 95.3857 23.7893 95.599 24.088C95.823 24.3867 95.983 24.7387 96.079 25.144C96.175 25.5387 96.223 25.9653 96.223 26.424V31H94.303V26.648C94.303 26.4133 94.2817 26.1893 94.239 25.976C94.1964 25.752 94.1217 25.56 94.015 25.4C93.9084 25.2293 93.7644 25.096 93.583 25C93.4017 24.904 93.167 24.856 92.879 24.856C92.5804 24.856 92.3244 24.9147 92.111 25.032C91.9084 25.1387 91.7377 25.288 91.599 25.48C91.471 25.6613 91.375 25.8747 91.311 26.12C91.2577 26.3547 91.231 26.5947 91.231 26.84V31H89.311V26.424C89.311 25.944 89.2097 25.5653 89.007 25.288C88.8044 25 88.4684 24.856 87.999 24.856C87.679 24.856 87.407 24.9093 87.183 25.016C86.9697 25.1227 86.7884 25.2667 86.639 25.448C86.5004 25.6293 86.399 25.8373 86.335 26.072C86.271 26.3067 86.239 26.552 86.239 26.808V31H84.319V23.32ZM97.836 23.32H99.66V24.472H99.692C99.9694 24.0027 100.343 23.6613 100.812 23.448C101.281 23.2347 101.788 23.128 102.332 23.128C102.919 23.128 103.447 23.2347 103.916 23.448C104.385 23.6507 104.785 23.9333 105.116 24.296C105.447 24.6587 105.697 25.0853 105.868 25.576C106.039 26.0667 106.124 26.5947 106.124 27.16C106.124 27.7253 106.033 28.2533 105.852 28.744C105.671 29.2347 105.415 29.6613 105.084 30.024C104.764 30.3867 104.375 30.6747 103.916 30.888C103.457 31.0907 102.956 31.192 102.412 31.192C102.049 31.192 101.729 31.1547 101.452 31.08C101.175 31.0053 100.929 30.9093 100.716 30.792C100.503 30.6747 100.321 30.552 100.172 30.424C100.023 30.2853 99.9 30.152 99.804 30.024H99.756V34.648H97.836V23.32ZM104.204 27.16C104.204 26.8613 104.151 26.5733 104.044 26.296C103.948 26.0187 103.799 25.7733 103.596 25.56C103.404 25.3467 103.169 25.176 102.892 25.048C102.615 24.92 102.3 24.856 101.948 24.856C101.596 24.856 101.281 24.92 101.004 25.048C100.727 25.176 100.487 25.3467 100.284 25.56C100.092 25.7733 99.9427 26.0187 99.836 26.296C99.74 26.5733 99.692 26.8613 99.692 27.16C99.692 27.4587 99.74 27.7467 99.836 28.024C99.9427 28.3013 100.092 28.5467 100.284 28.76C100.487 28.9733 100.727 29.144 101.004 29.272C101.281 29.4 101.596 29.464 101.948 29.464C102.3 29.464 102.615 29.4 102.892 29.272C103.169 29.144 103.404 28.9733 103.596 28.76C103.799 28.5467 103.948 28.3013 104.044 28.024C104.151 27.7467 104.204 27.4587 104.204 27.16ZM111.525 25.448C111.152 24.9253 110.651 24.664 110.021 24.664C109.765 24.664 109.515 24.728 109.269 24.856C109.024 24.984 108.901 25.192 108.901 25.48C108.901 25.7147 109.003 25.8853 109.205 25.992C109.408 26.0987 109.664 26.1893 109.973 26.264C110.283 26.3387 110.613 26.4187 110.965 26.504C111.328 26.5787 111.664 26.7013 111.973 26.872C112.283 27.032 112.539 27.256 112.741 27.544C112.944 27.832 113.045 28.2267 113.045 28.728C113.045 29.1867 112.944 29.576 112.741 29.896C112.549 30.2053 112.293 30.456 111.973 30.648C111.664 30.84 111.312 30.9787 110.917 31.064C110.523 31.1493 110.128 31.192 109.733 31.192C109.136 31.192 108.587 31.1067 108.085 30.936C107.584 30.7653 107.136 30.456 106.741 30.008L108.021 28.808C108.267 29.0853 108.528 29.3147 108.805 29.496C109.093 29.6667 109.44 29.752 109.845 29.752C109.984 29.752 110.128 29.736 110.277 29.704C110.427 29.672 110.565 29.6187 110.693 29.544C110.821 29.4693 110.923 29.3787 110.997 29.272C111.083 29.1547 111.125 29.0213 111.125 28.872C111.125 28.6053 111.024 28.408 110.821 28.28C110.619 28.152 110.363 28.0507 110.053 27.976C109.744 27.8907 109.408 27.816 109.045 27.752C108.693 27.6773 108.363 27.5653 108.053 27.416C107.744 27.256 107.488 27.0373 107.285 26.76C107.083 26.4827 106.981 26.0987 106.981 25.608C106.981 25.1813 107.067 24.8133 107.237 24.504C107.419 24.184 107.653 23.9227 107.941 23.72C108.229 23.5173 108.56 23.368 108.933 23.272C109.307 23.176 109.685 23.128 110.069 23.128C110.581 23.128 111.088 23.2187 111.589 23.4C112.091 23.5707 112.496 23.8693 112.805 24.296L111.525 25.448Z" fill="#181818"/>
<g clip-path="url(#clip0_1650_87618)">
<rect x="50" y="59" width="22" height="22" fill="#B85A04"/>
</g>
<path d="M79.168 71H78.016V60.728H74.224V59.672H82.96V60.728H79.168V71ZM87.8974 66.68C87.8974 65.9653 87.6841 65.3893 87.2574 64.952C86.8307 64.504 86.2334 64.28 85.4654 64.28C85.1241 64.28 84.7934 64.3493 84.4734 64.488C84.1534 64.616 83.8707 64.792 83.6254 65.016C83.3907 65.24 83.1987 65.496 83.0494 65.784C82.9107 66.072 82.8414 66.3707 82.8414 66.68H87.8974ZM82.8094 67.544C82.8414 67.9173 82.9321 68.2693 83.0814 68.6C83.2307 68.9307 83.4281 69.2187 83.6734 69.464C83.9187 69.6987 84.2014 69.8853 84.5214 70.024C84.8414 70.1627 85.1881 70.232 85.5614 70.232C86.1267 70.232 86.6121 70.104 87.0174 69.848C87.4334 69.5813 87.7481 69.2773 87.9614 68.936L88.7774 69.608C88.3294 70.1733 87.8334 70.5787 87.2894 70.824C86.7561 71.0693 86.1801 71.192 85.5614 71.192C85.0067 71.192 84.4894 71.096 84.0094 70.904C83.5401 70.7013 83.1347 70.424 82.7934 70.072C82.4521 69.72 82.1801 69.304 81.9774 68.824C81.7854 68.344 81.6894 67.8213 81.6894 67.256C81.6894 66.6907 81.7854 66.168 81.9774 65.688C82.1694 65.208 82.4361 64.792 82.7774 64.44C83.1187 64.088 83.5187 63.816 83.9774 63.624C84.4361 63.4213 84.9321 63.32 85.4654 63.32C86.0307 63.32 86.5374 63.4213 86.9854 63.624C87.4334 63.8267 87.8067 64.0987 88.1054 64.44C88.4147 64.7707 88.6494 65.1653 88.8094 65.624C88.9694 66.072 89.0494 66.552 89.0494 67.064V67.544H82.8094ZM90.5911 65.848C90.5911 65.5173 90.5805 65.1813 90.5591 64.84C90.5485 64.4987 90.5378 64.056 90.5271 63.512H91.5671V64.904H91.5991C91.6738 64.7013 91.7805 64.5093 91.9191 64.328C92.0578 64.136 92.2231 63.9653 92.4151 63.816C92.6178 63.6667 92.8471 63.5493 93.1031 63.464C93.3698 63.368 93.6685 63.32 93.9991 63.32C94.2978 63.32 94.5591 63.352 94.7831 63.416L94.5751 64.456C94.4365 64.4027 94.2338 64.376 93.9671 64.376C93.5618 64.376 93.2151 64.456 92.9271 64.616C92.6391 64.7653 92.3991 64.9627 92.2071 65.208C92.0151 65.4427 91.8711 65.6987 91.7751 65.976C91.6898 66.2533 91.6471 66.52 91.6471 66.776V71H90.5911V65.848ZM95.4188 65.848C95.4188 65.5173 95.4081 65.1813 95.3868 64.84C95.3761 64.4987 95.3654 64.056 95.3548 63.512H96.3948V64.904H96.4268C96.5014 64.7013 96.6081 64.5093 96.7468 64.328C96.8854 64.136 97.0508 63.9653 97.2428 63.816C97.4454 63.6667 97.6748 63.5493 97.9308 63.464C98.1974 63.368 98.4961 63.32 98.8268 63.32C99.1254 63.32 99.3868 63.352 99.6108 63.416L99.4028 64.456C99.2641 64.4027 99.0614 64.376 98.7948 64.376C98.3894 64.376 98.0428 64.456 97.7548 64.616C97.4668 64.7653 97.2268 64.9627 97.0348 65.208C96.8428 65.4427 96.6988 65.6987 96.6028 65.976C96.5174 66.2533 96.4748 66.52 96.4748 66.776V71H95.4188V65.848ZM101.67 60.632C101.67 60.856 101.59 61.0427 101.43 61.192C101.27 61.3307 101.094 61.4 100.902 61.4C100.71 61.4 100.534 61.3307 100.374 61.192C100.214 61.0427 100.134 60.856 100.134 60.632C100.134 60.408 100.214 60.2267 100.374 60.088C100.534 59.9387 100.71 59.864 100.902 59.864C101.094 59.864 101.27 59.9387 101.43 60.088C101.59 60.2267 101.67 60.408 101.67 60.632ZM101.43 71H100.374V63.512H101.43V71ZM110.325 67.256C110.325 66.84 110.256 66.4507 110.117 66.088C109.989 65.7253 109.803 65.4107 109.557 65.144C109.312 64.8773 109.013 64.6693 108.661 64.52C108.32 64.36 107.931 64.28 107.493 64.28C107.056 64.28 106.656 64.36 106.293 64.52C105.931 64.6693 105.616 64.8773 105.349 65.144C105.083 65.4107 104.875 65.7253 104.725 66.088C104.576 66.4507 104.501 66.84 104.501 67.256C104.501 67.672 104.576 68.0613 104.725 68.424C104.875 68.7867 105.083 69.1013 105.349 69.368C105.616 69.6347 105.931 69.848 106.293 70.008C106.656 70.1573 107.056 70.232 107.493 70.232C107.931 70.232 108.32 70.1573 108.661 70.008C109.013 69.848 109.312 69.6347 109.557 69.368C109.803 69.1013 109.989 68.7867 110.117 68.424C110.256 68.0613 110.325 67.672 110.325 67.256ZM103.493 58.904H104.549V64.76H104.581C104.752 64.504 104.955 64.2853 105.189 64.104C105.424 63.9227 105.669 63.7733 105.925 63.656C106.181 63.5387 106.443 63.4533 106.709 63.4C106.987 63.3467 107.248 63.32 107.493 63.32C108.08 63.32 108.613 63.4213 109.093 63.624C109.584 63.816 110.005 64.088 110.357 64.44C110.709 64.792 110.981 65.208 111.173 65.688C111.376 66.168 111.477 66.6907 111.477 67.256C111.477 67.8213 111.376 68.344 111.173 68.824C110.981 69.304 110.709 69.72 110.357 70.072C110.005 70.424 109.584 70.7013 109.093 70.904C108.613 71.096 108.08 71.192 107.493 71.192C107.248 71.192 106.987 71.1653 106.709 71.112C106.443 71.0587 106.181 70.9733 105.925 70.856C105.669 70.7387 105.424 70.5893 105.189 70.408C104.955 70.2267 104.752 70.008 104.581 69.752H104.549V71H103.493V58.904ZM114.086 71H113.03V58.904H114.086V71ZM121.973 66.68C121.973 65.9653 121.759 65.3893 121.333 64.952C120.906 64.504 120.309 64.28 119.541 64.28C119.199 64.28 118.869 64.3493 118.549 64.488C118.229 64.616 117.946 64.792 117.701 65.016C117.466 65.24 117.274 65.496 117.125 65.784C116.986 66.072 116.917 66.3707 116.917 66.68H121.973ZM116.885 67.544C116.917 67.9173 117.007 68.2693 117.157 68.6C117.306 68.9307 117.503 69.2187 117.749 69.464C117.994 69.6987 118.277 69.8853 118.597 70.024C118.917 70.1627 119.263 70.232 119.637 70.232C120.202 70.232 120.687 70.104 121.093 69.848C121.509 69.5813 121.823 69.2773 122.037 68.936L122.853 69.608C122.405 70.1733 121.909 70.5787 121.365 70.824C120.831 71.0693 120.255 71.192 119.637 71.192C119.082 71.192 118.565 71.096 118.085 70.904C117.615 70.7013 117.21 70.424 116.869 70.072C116.527 69.72 116.255 69.304 116.053 68.824C115.861 68.344 115.765 67.8213 115.765 67.256C115.765 66.6907 115.861 66.168 116.053 65.688C116.245 65.208 116.511 64.792 116.853 64.44C117.194 64.088 117.594 63.816 118.053 63.624C118.511 63.4213 119.007 63.32 119.541 63.32C120.106 63.32 120.613 63.4213 121.061 63.624C121.509 63.8267 121.882 64.0987 122.181 64.44C122.49 64.7707 122.725 65.1653 122.885 65.624C123.045 66.072 123.125 66.552 123.125 67.064V67.544H116.885Z" fill="#181818"/>
<g clip-path="url(#clip1_1650_87618)">
<rect x="50" y="89" width="22" height="22" fill="#DD8502"/>
</g>
<path d="M76.688 99.944H78.896C79.312 99.944 79.7013 99.9013 80.064 99.816C80.4267 99.7307 80.7413 99.6027 81.008 99.432C81.2747 99.2507 81.4827 99.0267 81.632 98.76C81.792 98.4933 81.872 98.1733 81.872 97.8C81.872 97.0533 81.632 96.4987 81.152 96.136C80.672 95.7733 79.968 95.592 79.04 95.592H76.688V99.944ZM76.688 94.632H79.008C79.2853 94.632 79.5573 94.6 79.824 94.536C80.1013 94.4613 80.3467 94.344 80.56 94.184C80.784 94.024 80.9653 93.8213 81.104 93.576C81.2427 93.32 81.312 93.0107 81.312 92.648C81.312 92.5307 81.2853 92.3653 81.232 92.152C81.1893 91.9387 81.0827 91.7253 80.912 91.512C80.752 91.2987 80.512 91.1173 80.192 90.968C79.872 90.808 79.44 90.728 78.896 90.728H76.688V94.632ZM75.536 89.672H78.912C79.3813 89.672 79.8347 89.72 80.272 89.816C80.7093 89.912 81.0987 90.072 81.44 90.296C81.7813 90.52 82.0533 90.8133 82.256 91.176C82.4587 91.5387 82.56 91.9867 82.56 92.52C82.56 93.1387 82.384 93.672 82.032 94.12C81.6907 94.5573 81.2 94.8507 80.56 95V95.032C81.36 95.096 81.984 95.3787 82.432 95.88C82.8907 96.3707 83.12 97.032 83.12 97.864C83.12 98.0453 83.072 98.312 82.976 98.664C82.8907 99.016 82.704 99.368 82.416 99.72C82.128 100.061 81.712 100.36 81.168 100.616C80.624 100.872 79.8987 101 78.992 101H75.536V89.672ZM89.0013 97.272C88.7346 97.272 88.3986 97.288 87.9933 97.32C87.5986 97.3413 87.2146 97.4053 86.8413 97.512C86.4786 97.608 86.1639 97.7627 85.8973 97.976C85.6413 98.1893 85.5133 98.4827 85.5133 98.856C85.5133 99.1013 85.5613 99.3147 85.6573 99.496C85.7639 99.6667 85.9026 99.8107 86.0733 99.928C86.2439 100.035 86.4306 100.115 86.6333 100.168C86.8466 100.211 87.0599 100.232 87.2733 100.232C87.6573 100.232 87.9879 100.168 88.2653 100.04C88.5533 99.912 88.7933 99.7413 88.9853 99.528C89.1773 99.304 89.3159 99.048 89.4013 98.76C89.4973 98.4613 89.5453 98.1467 89.5453 97.816V97.272H89.0013ZM89.5453 96.408V96.216C89.5453 94.9253 88.9053 94.28 87.6253 94.28C86.7506 94.28 85.9879 94.5733 85.3373 95.16L84.6973 94.408C85.4013 93.6827 86.4573 93.32 87.8653 93.32C88.2279 93.32 88.5746 93.3733 88.9053 93.48C89.2466 93.5867 89.5399 93.752 89.7853 93.976C90.0306 94.1893 90.2279 94.4613 90.3773 94.792C90.5266 95.1227 90.6013 95.5173 90.6013 95.976V99.32C90.6013 99.608 90.6119 99.912 90.6333 100.232C90.6653 100.541 90.6973 100.797 90.7293 101H89.7053C89.6733 100.819 89.6466 100.621 89.6253 100.408C89.6146 100.195 89.6093 99.9867 89.6093 99.784H89.5773C89.2679 100.285 88.8999 100.648 88.4733 100.872C88.0573 101.085 87.5453 101.192 86.9373 101.192C86.6066 101.192 86.2866 101.144 85.9773 101.048C85.6679 100.963 85.3906 100.829 85.1453 100.648C84.9106 100.456 84.7186 100.227 84.5693 99.96C84.4306 99.6827 84.3613 99.3627 84.3613 99C84.3613 98.392 84.5159 97.9173 84.8253 97.576C85.1453 97.224 85.5399 96.9627 86.0093 96.792C86.4893 96.6213 86.9959 96.5147 87.5293 96.472C88.0733 96.4293 88.5693 96.408 89.0173 96.408H89.5453ZM93.1973 97.256C93.1973 97.672 93.2613 98.0613 93.3893 98.424C93.5279 98.7867 93.7199 99.1013 93.9653 99.368C94.2106 99.6347 94.5039 99.848 94.8453 100.008C95.1973 100.157 95.5919 100.232 96.0293 100.232C96.4559 100.232 96.8506 100.157 97.2133 100.008C97.5866 99.848 97.9066 99.6347 98.1733 99.368C98.4399 99.1013 98.6479 98.7867 98.7973 98.424C98.9466 98.0613 99.0213 97.672 99.0213 97.256C99.0213 96.84 98.9466 96.4507 98.7973 96.088C98.6479 95.7253 98.4399 95.4107 98.1733 95.144C97.9066 94.8773 97.5866 94.6693 97.2133 94.52C96.8506 94.36 96.4559 94.28 96.0293 94.28C95.5919 94.28 95.1973 94.36 94.8453 94.52C94.5039 94.6693 94.2106 94.8773 93.9653 95.144C93.7199 95.4107 93.5279 95.7253 93.3893 96.088C93.2613 96.4507 93.1973 96.84 93.1973 97.256ZM100.029 101H98.9733V99.752H98.9413C98.7706 100.008 98.5679 100.227 98.3333 100.408C98.0986 100.589 97.8533 100.739 97.5973 100.856C97.3413 100.973 97.0746 101.059 96.7973 101.112C96.5306 101.165 96.2746 101.192 96.0293 101.192C95.4426 101.192 94.9039 101.096 94.4133 100.904C93.9333 100.701 93.5173 100.424 93.1653 100.072C92.8133 99.72 92.5359 99.304 92.3333 98.824C92.1413 98.344 92.0453 97.8213 92.0453 97.256C92.0453 96.6907 92.1413 96.168 92.3333 95.688C92.5359 95.208 92.8133 94.792 93.1653 94.44C93.5173 94.088 93.9333 93.816 94.4133 93.624C94.9039 93.4213 95.4426 93.32 96.0293 93.32C96.2746 93.32 96.5306 93.3467 96.7973 93.4C97.0746 93.4533 97.3413 93.5387 97.5973 93.656C97.8533 93.7733 98.0986 93.9227 98.3333 94.104C98.5679 94.2853 98.7706 94.504 98.9413 94.76H98.9733V88.904H100.029V101Z" fill="#181818"/>
<g clip-path="url(#clip2_1650_87618)">
<rect x="50" y="119" width="22" height="22" fill="#DFA638"/>
</g>
<path d="M83.728 129.272H83.76V119.672H84.912V131H83.472L76.72 121.304H76.688V131H75.536V119.672H76.976L83.728 129.272ZM92.9443 126.68C92.9443 125.965 92.7309 125.389 92.3043 124.952C91.8776 124.504 91.2803 124.28 90.5123 124.28C90.1709 124.28 89.8403 124.349 89.5203 124.488C89.2003 124.616 88.9176 124.792 88.6723 125.016C88.4376 125.24 88.2456 125.496 88.0963 125.784C87.9576 126.072 87.8883 126.371 87.8883 126.68H92.9443ZM87.8563 127.544C87.8883 127.917 87.9789 128.269 88.1283 128.6C88.2776 128.931 88.4749 129.219 88.7203 129.464C88.9656 129.699 89.2483 129.885 89.5683 130.024C89.8883 130.163 90.2349 130.232 90.6083 130.232C91.1736 130.232 91.6589 130.104 92.0643 129.848C92.4803 129.581 92.7949 129.277 93.0083 128.936L93.8243 129.608C93.3763 130.173 92.8803 130.579 92.3363 130.824C91.8029 131.069 91.2269 131.192 90.6083 131.192C90.0536 131.192 89.5363 131.096 89.0563 130.904C88.5869 130.701 88.1816 130.424 87.8403 130.072C87.4989 129.72 87.2269 129.304 87.0243 128.824C86.8323 128.344 86.7363 127.821 86.7363 127.256C86.7363 126.691 86.8323 126.168 87.0243 125.688C87.2163 125.208 87.4829 124.792 87.8243 124.44C88.1656 124.088 88.5656 123.816 89.0243 123.624C89.4829 123.421 89.9789 123.32 90.5123 123.32C91.0776 123.32 91.5843 123.421 92.0323 123.624C92.4803 123.827 92.8536 124.099 93.1523 124.44C93.4616 124.771 93.6963 125.165 93.8563 125.624C94.0163 126.072 94.0963 126.552 94.0963 127.064V127.544H87.8563ZM100.934 131C100.913 130.797 100.897 130.6 100.886 130.408C100.886 130.205 100.886 130.003 100.886 129.8H100.854C100.737 130.003 100.587 130.189 100.406 130.36C100.225 130.531 100.022 130.68 99.798 130.808C99.574 130.925 99.334 131.016 99.078 131.08C98.8327 131.155 98.5874 131.192 98.342 131.192C97.382 131.192 96.6727 130.941 96.214 130.44C95.7554 129.928 95.526 129.203 95.526 128.264V123.512H96.582V127.656C96.582 128.072 96.614 128.44 96.678 128.76C96.742 129.08 96.8487 129.352 96.998 129.576C97.158 129.789 97.366 129.955 97.622 130.072C97.8887 130.179 98.2194 130.232 98.614 130.232C98.6674 130.232 98.8167 130.211 99.062 130.168C99.3074 130.125 99.5634 130.008 99.83 129.816C100.107 129.624 100.353 129.336 100.566 128.952C100.779 128.568 100.886 128.035 100.886 127.352V123.512H101.942V129.352C101.942 129.555 101.947 129.811 101.958 130.12C101.979 130.429 102.001 130.723 102.022 131H100.934ZM107.804 124.472H105.644V128.888C105.644 129.165 105.67 129.395 105.724 129.576C105.777 129.747 105.852 129.88 105.948 129.976C106.044 130.072 106.156 130.141 106.284 130.184C106.422 130.216 106.572 130.232 106.732 130.232C106.913 130.232 107.1 130.205 107.292 130.152C107.484 130.099 107.66 130.029 107.82 129.944L107.868 130.92C107.473 131.101 106.998 131.192 106.444 131.192C106.241 131.192 106.028 131.165 105.804 131.112C105.59 131.059 105.393 130.957 105.212 130.808C105.03 130.659 104.881 130.456 104.764 130.2C104.646 129.944 104.588 129.608 104.588 129.192V124.472H103.004V123.512H104.588V121.4H105.644V123.512H107.804V124.472ZM108.871 125.848C108.871 125.517 108.861 125.181 108.839 124.84C108.829 124.499 108.818 124.056 108.807 123.512H109.847V124.904H109.879C109.954 124.701 110.061 124.509 110.199 124.328C110.338 124.136 110.503 123.965 110.695 123.816C110.898 123.667 111.127 123.549 111.383 123.464C111.65 123.368 111.949 123.32 112.279 123.32C112.578 123.32 112.839 123.352 113.063 123.416L112.855 124.456C112.717 124.403 112.514 124.376 112.247 124.376C111.842 124.376 111.495 124.456 111.207 124.616C110.919 124.765 110.679 124.963 110.487 125.208C110.295 125.443 110.151 125.699 110.055 125.976C109.97 126.253 109.927 126.52 109.927 126.776V131H108.871V125.848ZM117.843 127.272C117.576 127.272 117.24 127.288 116.835 127.32C116.44 127.341 116.056 127.405 115.683 127.512C115.32 127.608 115.006 127.763 114.739 127.976C114.483 128.189 114.355 128.483 114.355 128.856C114.355 129.101 114.403 129.315 114.499 129.496C114.606 129.667 114.744 129.811 114.915 129.928C115.086 130.035 115.272 130.115 115.475 130.168C115.688 130.211 115.902 130.232 116.115 130.232C116.499 130.232 116.83 130.168 117.107 130.04C117.395 129.912 117.635 129.741 117.827 129.528C118.019 129.304 118.158 129.048 118.243 128.76C118.339 128.461 118.387 128.147 118.387 127.816V127.272H117.843ZM118.387 126.408V126.216C118.387 124.925 117.747 124.28 116.467 124.28C115.592 124.28 114.83 124.573 114.179 125.16L113.539 124.408C114.243 123.683 115.299 123.32 116.707 123.32C117.07 123.32 117.416 123.373 117.747 123.48C118.088 123.587 118.382 123.752 118.627 123.976C118.872 124.189 119.07 124.461 119.219 124.792C119.368 125.123 119.443 125.517 119.443 125.976V129.32C119.443 129.608 119.454 129.912 119.475 130.232C119.507 130.541 119.539 130.797 119.571 131H118.547C118.515 130.819 118.488 130.621 118.467 130.408C118.456 130.195 118.451 129.987 118.451 129.784H118.419C118.11 130.285 117.742 130.648 117.315 130.872C116.899 131.085 116.387 131.192 115.779 131.192C115.448 131.192 115.128 131.144 114.819 131.048C114.51 130.963 114.232 130.829 113.987 130.648C113.752 130.456 113.56 130.227 113.411 129.96C113.272 129.683 113.203 129.363 113.203 129C113.203 128.392 113.358 127.917 113.667 127.576C113.987 127.224 114.382 126.963 114.851 126.792C115.331 126.621 115.838 126.515 116.371 126.472C116.915 126.429 117.411 126.408 117.859 126.408H118.387ZM122.695 131H121.639V118.904H122.695V131Z" fill="#181818"/>
<g clip-path="url(#clip3_1650_87618)">
<rect x="181" y="59" width="22" height="22" fill="#FFD363"/>
</g>
<path d="M214.904 61.752C214.52 61.3467 214.061 61.0267 213.528 60.792C212.995 60.5573 212.376 60.44 211.672 60.44C210.947 60.44 210.296 60.5733 209.72 60.84C209.144 61.1067 208.653 61.464 208.248 61.912C207.853 62.36 207.549 62.8827 207.336 63.48C207.123 64.0667 207.016 64.6853 207.016 65.336C207.016 65.9867 207.123 66.6107 207.336 67.208C207.549 67.7947 207.853 68.312 208.248 68.76C208.653 69.208 209.144 69.5653 209.72 69.832C210.296 70.0987 210.947 70.232 211.672 70.232C212.259 70.232 212.819 70.1627 213.352 70.024C213.896 69.8747 214.381 69.6773 214.808 69.432V65.64H212.104V64.584H215.96V70.136C215.32 70.5093 214.616 70.7973 213.848 71C213.091 71.192 212.365 71.288 211.672 71.288C210.829 71.288 210.045 71.1387 209.32 70.84C208.605 70.5413 207.981 70.1307 207.448 69.608C206.925 69.0747 206.515 68.4453 206.216 67.72C205.917 66.9947 205.768 66.2 205.768 65.336C205.768 64.472 205.917 63.6773 206.216 62.952C206.515 62.2267 206.925 61.6027 207.448 61.08C207.981 60.5467 208.605 60.1307 209.32 59.832C210.045 59.5333 210.829 59.384 211.672 59.384C212.579 59.384 213.357 59.512 214.008 59.768C214.669 60.0133 215.256 60.392 215.768 60.904L214.904 61.752ZM224.536 67.256C224.536 66.84 224.467 66.4507 224.328 66.088C224.2 65.7253 224.014 65.4107 223.768 65.144C223.523 64.8773 223.224 64.6693 222.872 64.52C222.531 64.36 222.142 64.28 221.704 64.28C221.267 64.28 220.872 64.36 220.52 64.52C220.179 64.6693 219.886 64.8773 219.64 65.144C219.406 65.4107 219.219 65.7253 219.08 66.088C218.952 66.4507 218.888 66.84 218.888 67.256C218.888 67.672 218.952 68.0613 219.08 68.424C219.219 68.7867 219.406 69.1013 219.64 69.368C219.886 69.6347 220.179 69.848 220.52 70.008C220.872 70.1573 221.267 70.232 221.704 70.232C222.142 70.232 222.531 70.1573 222.872 70.008C223.224 69.848 223.523 69.6347 223.768 69.368C224.014 69.1013 224.2 68.7867 224.328 68.424C224.467 68.0613 224.536 67.672 224.536 67.256ZM225.688 67.256C225.688 67.8213 225.587 68.344 225.384 68.824C225.192 69.304 224.92 69.72 224.568 70.072C224.216 70.424 223.795 70.7013 223.304 70.904C222.824 71.096 222.291 71.192 221.704 71.192C221.128 71.192 220.595 71.096 220.104 70.904C219.624 70.7013 219.208 70.424 218.856 70.072C218.504 69.72 218.227 69.304 218.024 68.824C217.832 68.344 217.736 67.8213 217.736 67.256C217.736 66.6907 217.832 66.168 218.024 65.688C218.227 65.208 218.504 64.792 218.856 64.44C219.208 64.088 219.624 63.816 220.104 63.624C220.595 63.4213 221.128 63.32 221.704 63.32C222.291 63.32 222.824 63.4213 223.304 63.624C223.795 63.816 224.216 64.088 224.568 64.44C224.92 64.792 225.192 65.208 225.384 65.688C225.587 66.168 225.688 66.6907 225.688 67.256ZM233.536 67.256C233.536 66.84 233.466 66.4507 233.328 66.088C233.2 65.7253 233.013 65.4107 232.768 65.144C232.522 64.8773 232.224 64.6693 231.872 64.52C231.53 64.36 231.141 64.28 230.704 64.28C230.266 64.28 229.872 64.36 229.52 64.52C229.178 64.6693 228.885 64.8773 228.64 65.144C228.405 65.4107 228.218 65.7253 228.08 66.088C227.952 66.4507 227.888 66.84 227.888 67.256C227.888 67.672 227.952 68.0613 228.08 68.424C228.218 68.7867 228.405 69.1013 228.64 69.368C228.885 69.6347 229.178 69.848 229.52 70.008C229.872 70.1573 230.266 70.232 230.704 70.232C231.141 70.232 231.53 70.1573 231.872 70.008C232.224 69.848 232.522 69.6347 232.768 69.368C233.013 69.1013 233.2 68.7867 233.328 68.424C233.466 68.0613 233.536 67.672 233.536 67.256ZM234.688 67.256C234.688 67.8213 234.586 68.344 234.384 68.824C234.192 69.304 233.92 69.72 233.568 70.072C233.216 70.424 232.794 70.7013 232.304 70.904C231.824 71.096 231.29 71.192 230.704 71.192C230.128 71.192 229.594 71.096 229.104 70.904C228.624 70.7013 228.208 70.424 227.856 70.072C227.504 69.72 227.226 69.304 227.024 68.824C226.832 68.344 226.736 67.8213 226.736 67.256C226.736 66.6907 226.832 66.168 227.024 65.688C227.226 65.208 227.504 64.792 227.856 64.44C228.208 64.088 228.624 63.816 229.104 63.624C229.594 63.4213 230.128 63.32 230.704 63.32C231.29 63.32 231.824 63.4213 232.304 63.624C232.794 63.816 233.216 64.088 233.568 64.44C233.92 64.792 234.192 65.208 234.384 65.688C234.586 66.168 234.688 66.6907 234.688 67.256ZM236.759 67.256C236.759 67.672 236.823 68.0613 236.951 68.424C237.09 68.7867 237.282 69.1013 237.527 69.368C237.773 69.6347 238.066 69.848 238.407 70.008C238.759 70.1573 239.154 70.232 239.591 70.232C240.018 70.232 240.413 70.1573 240.775 70.008C241.149 69.848 241.469 69.6347 241.735 69.368C242.002 69.1013 242.21 68.7867 242.359 68.424C242.509 68.0613 242.583 67.672 242.583 67.256C242.583 66.84 242.509 66.4507 242.359 66.088C242.21 65.7253 242.002 65.4107 241.735 65.144C241.469 64.8773 241.149 64.6693 240.775 64.52C240.413 64.36 240.018 64.28 239.591 64.28C239.154 64.28 238.759 64.36 238.407 64.52C238.066 64.6693 237.773 64.8773 237.527 65.144C237.282 65.4107 237.09 65.7253 236.951 66.088C236.823 66.4507 236.759 66.84 236.759 67.256ZM243.591 71H242.535V69.752H242.503C242.333 70.008 242.13 70.2267 241.895 70.408C241.661 70.5893 241.415 70.7387 241.159 70.856C240.903 70.9733 240.637 71.0587 240.359 71.112C240.093 71.1653 239.837 71.192 239.591 71.192C239.005 71.192 238.466 71.096 237.975 70.904C237.495 70.7013 237.079 70.424 236.727 70.072C236.375 69.72 236.098 69.304 235.895 68.824C235.703 68.344 235.607 67.8213 235.607 67.256C235.607 66.6907 235.703 66.168 235.895 65.688C236.098 65.208 236.375 64.792 236.727 64.44C237.079 64.088 237.495 63.816 237.975 63.624C238.466 63.4213 239.005 63.32 239.591 63.32C239.837 63.32 240.093 63.3467 240.359 63.4C240.637 63.4533 240.903 63.5387 241.159 63.656C241.415 63.7733 241.661 63.9227 241.895 64.104C242.13 64.2853 242.333 64.504 242.503 64.76H242.535V58.904H243.591V71Z" fill="#181818"/>
<g clip-path="url(#clip4_1650_87618)">
<rect x="181" y="89" width="22" height="22" fill="#FFE6A6"/>
</g>
<path d="M214.728 99.272H214.76V89.672H215.912V101H214.472L207.72 91.304H207.688V101H206.536V89.672H207.976L214.728 99.272ZM224.536 97.256C224.536 96.84 224.467 96.4507 224.328 96.088C224.2 95.7253 224.014 95.4107 223.768 95.144C223.523 94.8773 223.224 94.6693 222.872 94.52C222.531 94.36 222.142 94.28 221.704 94.28C221.267 94.28 220.872 94.36 220.52 94.52C220.179 94.6693 219.886 94.8773 219.64 95.144C219.406 95.4107 219.219 95.7253 219.08 96.088C218.952 96.4507 218.888 96.84 218.888 97.256C218.888 97.672 218.952 98.0613 219.08 98.424C219.219 98.7867 219.406 99.1013 219.64 99.368C219.886 99.6347 220.179 99.848 220.52 100.008C220.872 100.157 221.267 100.232 221.704 100.232C222.142 100.232 222.531 100.157 222.872 100.008C223.224 99.848 223.523 99.6347 223.768 99.368C224.014 99.1013 224.2 98.7867 224.328 98.424C224.467 98.0613 224.536 97.672 224.536 97.256ZM225.688 97.256C225.688 97.8213 225.587 98.344 225.384 98.824C225.192 99.304 224.92 99.72 224.568 100.072C224.216 100.424 223.795 100.701 223.304 100.904C222.824 101.096 222.291 101.192 221.704 101.192C221.128 101.192 220.595 101.096 220.104 100.904C219.624 100.701 219.208 100.424 218.856 100.072C218.504 99.72 218.227 99.304 218.024 98.824C217.832 98.344 217.736 97.8213 217.736 97.256C217.736 96.6907 217.832 96.168 218.024 95.688C218.227 95.208 218.504 94.792 218.856 94.44C219.208 94.088 219.624 93.816 220.104 93.624C220.595 93.4213 221.128 93.32 221.704 93.32C222.291 93.32 222.824 93.4213 223.304 93.624C223.795 93.816 224.216 94.088 224.568 94.44C224.92 94.792 225.192 95.208 225.384 95.688C225.587 96.168 225.688 96.6907 225.688 97.256ZM236.544 95.272C236.363 94.9947 236.107 94.76 235.776 94.568C235.456 94.376 235.088 94.28 234.672 94.28C234.235 94.2693 233.84 94.3387 233.488 94.488C233.147 94.6373 232.853 94.8453 232.608 95.112C232.363 95.3787 232.176 95.6987 232.048 96.072C231.92 96.4347 231.856 96.8293 231.856 97.256C231.856 97.6827 231.92 98.0827 232.048 98.456C232.176 98.8187 232.363 99.1333 232.608 99.4C232.853 99.6667 233.147 99.8747 233.488 100.024C233.84 100.173 234.235 100.243 234.672 100.232C235.088 100.232 235.456 100.136 235.776 99.944C236.107 99.752 236.363 99.5173 236.544 99.24L237.408 99.896C237.035 100.333 236.613 100.659 236.144 100.872C235.675 101.075 235.184 101.181 234.672 101.192C234.064 101.203 233.515 101.112 233.024 100.92C232.533 100.717 232.112 100.44 231.76 100.088C231.419 99.736 231.157 99.32 230.976 98.84C230.795 98.3493 230.704 97.8213 230.704 97.256C230.704 96.6907 230.795 96.168 230.976 95.688C231.157 95.1973 231.419 94.776 231.76 94.424C232.112 94.072 232.533 93.8 233.024 93.608C233.515 93.4053 234.064 93.3093 234.672 93.32C235.184 93.3307 235.675 93.4427 236.144 93.656C236.613 93.8587 237.035 94.1787 237.408 94.616L236.544 95.272ZM238.434 95.848C238.434 95.5173 238.423 95.1813 238.402 94.84C238.391 94.4987 238.381 94.056 238.37 93.512H239.41V94.904H239.442C239.517 94.7013 239.623 94.5093 239.762 94.328C239.901 94.136 240.066 93.9653 240.258 93.816C240.461 93.6667 240.69 93.5493 240.946 93.464C241.213 93.368 241.511 93.32 241.842 93.32C242.141 93.32 242.402 93.352 242.626 93.416L242.418 94.456C242.279 94.4027 242.077 94.376 241.81 94.376C241.405 94.376 241.058 94.456 240.77 94.616C240.482 94.7653 240.242 94.9627 240.05 95.208C239.858 95.4427 239.714 95.6987 239.618 95.976C239.533 96.2533 239.49 96.52 239.49 96.776V101H238.434V95.848ZM247.406 97.272C247.139 97.272 246.803 97.288 246.398 97.32C246.003 97.3413 245.619 97.4053 245.246 97.512C244.883 97.608 244.568 97.7627 244.302 97.976C244.046 98.1893 243.918 98.4827 243.918 98.856C243.918 99.1013 243.966 99.3147 244.062 99.496C244.168 99.6667 244.307 99.8107 244.478 99.928C244.648 100.035 244.835 100.115 245.038 100.168C245.251 100.211 245.464 100.232 245.678 100.232C246.062 100.232 246.392 100.168 246.67 100.04C246.958 99.912 247.198 99.7413 247.39 99.528C247.582 99.304 247.72 99.048 247.806 98.76C247.902 98.4613 247.95 98.1467 247.95 97.816V97.272H247.406ZM247.95 96.408V96.216C247.95 94.9253 247.31 94.28 246.03 94.28C245.155 94.28 244.392 94.5733 243.742 95.16L243.102 94.408C243.806 93.6827 244.862 93.32 246.27 93.32C246.632 93.32 246.979 93.3733 247.31 93.48C247.651 93.5867 247.944 93.752 248.19 93.976C248.435 94.1893 248.632 94.4613 248.782 94.792C248.931 95.1227 249.006 95.5173 249.006 95.976V99.32C249.006 99.608 249.016 99.912 249.038 100.232C249.07 100.541 249.102 100.797 249.134 101H248.11C248.078 100.819 248.051 100.621 248.03 100.408C248.019 100.195 248.014 99.9867 248.014 99.784H247.982C247.672 100.285 247.304 100.648 246.878 100.872C246.462 101.085 245.95 101.192 245.342 101.192C245.011 101.192 244.691 101.144 244.382 101.048C244.072 100.963 243.795 100.829 243.55 100.648C243.315 100.456 243.123 100.227 242.974 99.96C242.835 99.6827 242.766 99.3627 242.766 99C242.766 98.392 242.92 97.9173 243.23 97.576C243.55 97.224 243.944 96.9627 244.414 96.792C244.894 96.6213 245.4 96.5147 245.934 96.472C246.478 96.4293 246.974 96.408 247.422 96.408H247.95ZM250.962 95.176C250.962 94.8987 250.951 94.6213 250.93 94.344C250.919 94.0667 250.903 93.7893 250.882 93.512H252.018V94.648H252.05C252.306 94.2107 252.658 93.88 253.106 93.656C253.564 93.432 254.018 93.32 254.466 93.32C254.668 93.32 254.882 93.3413 255.106 93.384C255.34 93.4267 255.564 93.5067 255.778 93.624C255.991 93.7307 256.188 93.8853 256.37 94.088C256.562 94.2907 256.722 94.552 256.85 94.872C257.063 94.392 257.399 94.0133 257.858 93.736C258.327 93.4587 258.812 93.32 259.314 93.32C260.274 93.32 260.983 93.576 261.442 94.088C261.9 94.5893 262.13 95.3093 262.13 96.248V101H261.074V96.632C261.074 95.8747 260.94 95.2933 260.674 94.888C260.407 94.4827 259.911 94.28 259.186 94.28C258.791 94.28 258.46 94.36 258.194 94.52C257.927 94.6693 257.708 94.872 257.538 95.128C257.378 95.384 257.26 95.6773 257.186 96.008C257.111 96.328 257.074 96.664 257.074 97.016V101H256.018V96.632C256.018 95.8747 255.884 95.2933 255.618 94.888C255.351 94.4827 254.855 94.28 254.13 94.28C254.066 94.28 253.916 94.3013 253.682 94.344C253.458 94.3867 253.223 94.504 252.978 94.696C252.732 94.888 252.508 95.176 252.306 95.56C252.114 95.944 252.018 96.4773 252.018 97.16V101H250.962V95.176ZM270.934 97.256C270.934 96.84 270.864 96.4507 270.726 96.088C270.598 95.7253 270.411 95.4107 270.166 95.144C269.92 94.8773 269.622 94.6693 269.27 94.52C268.928 94.36 268.539 94.28 268.102 94.28C267.664 94.28 267.264 94.36 266.902 94.52C266.539 94.6693 266.224 94.8773 265.958 95.144C265.691 95.4107 265.483 95.7253 265.334 96.088C265.184 96.4507 265.11 96.84 265.11 97.256C265.11 97.672 265.184 98.0613 265.334 98.424C265.483 98.7867 265.691 99.1013 265.958 99.368C266.224 99.6347 266.539 99.848 266.902 100.008C267.264 100.157 267.664 100.232 268.102 100.232C268.539 100.232 268.928 100.157 269.27 100.008C269.622 99.848 269.92 99.6347 270.166 99.368C270.411 99.1013 270.598 98.7867 270.726 98.424C270.864 98.0613 270.934 97.672 270.934 97.256ZM264.102 93.512H265.158V94.76H265.19C265.36 94.504 265.563 94.2853 265.798 94.104C266.032 93.9227 266.278 93.7733 266.534 93.656C266.79 93.5387 267.051 93.4533 267.318 93.4C267.595 93.3467 267.856 93.32 268.102 93.32C268.688 93.32 269.222 93.4213 269.702 93.624C270.192 93.816 270.614 94.088 270.966 94.44C271.318 94.792 271.59 95.208 271.782 95.688C271.984 96.168 272.086 96.6907 272.086 97.256C272.086 97.8213 271.984 98.344 271.782 98.824C271.59 99.304 271.318 99.72 270.966 100.072C270.614 100.424 270.192 100.701 269.702 100.904C269.222 101.096 268.688 101.192 268.102 101.192C267.856 101.192 267.595 101.165 267.318 101.112C267.051 101.059 266.79 100.973 266.534 100.856C266.278 100.739 266.032 100.589 265.798 100.408C265.563 100.227 265.36 100.008 265.19 99.752H265.158V105.608H264.102V93.512ZM277.366 95.288C277.206 94.9787 276.993 94.7333 276.726 94.552C276.459 94.3707 276.134 94.28 275.75 94.28C275.569 94.28 275.382 94.3013 275.19 94.344C275.009 94.3867 274.843 94.456 274.694 94.552C274.545 94.6373 274.422 94.7493 274.326 94.888C274.241 95.0267 274.198 95.1973 274.198 95.4C274.198 95.752 274.321 96.008 274.566 96.168C274.811 96.328 275.179 96.4667 275.67 96.584L276.742 96.84C277.265 96.9573 277.697 97.1973 278.038 97.56C278.39 97.912 278.566 98.3547 278.566 98.888C278.566 99.2933 278.481 99.6453 278.31 99.944C278.15 100.232 277.931 100.472 277.654 100.664C277.387 100.845 277.078 100.979 276.726 101.064C276.374 101.149 276.017 101.192 275.654 101.192C275.078 101.192 274.539 101.085 274.038 100.872C273.547 100.648 273.126 100.269 272.774 99.736L273.686 99.112C273.899 99.4533 274.166 99.7253 274.486 99.928C274.817 100.131 275.206 100.232 275.654 100.232C275.867 100.232 276.081 100.211 276.294 100.168C276.507 100.115 276.694 100.04 276.854 99.944C277.025 99.8373 277.158 99.704 277.254 99.544C277.361 99.384 277.414 99.1973 277.414 98.984C277.414 98.6107 277.275 98.344 276.998 98.184C276.721 98.0133 276.385 97.88 275.99 97.784L274.966 97.544C274.838 97.512 274.662 97.4587 274.438 97.384C274.225 97.3093 274.011 97.1973 273.798 97.048C273.595 96.8987 273.419 96.7067 273.27 96.472C273.121 96.2267 273.046 95.928 273.046 95.576C273.046 95.192 273.121 94.856 273.27 94.568C273.43 94.28 273.638 94.0453 273.894 93.864C274.161 93.6827 274.459 93.5493 274.79 93.464C275.121 93.368 275.462 93.32 275.814 93.32C276.337 93.32 276.822 93.4213 277.27 93.624C277.718 93.8267 278.065 94.1733 278.31 94.664L277.366 95.288Z" fill="#181818"/>
<defs>
<clipPath id="clip0_1650_87618">
<rect x="50" y="59" width="14" height="14" rx="2.2" fill="white"/>
</clipPath>
<clipPath id="clip1_1650_87618">
<rect x="50" y="89" width="14" height="14" rx="2.2" fill="white"/>
</clipPath>
<clipPath id="clip2_1650_87618">
<rect x="50" y="119" width="14" height="14" rx="2.2" fill="white"/>
</clipPath>
<clipPath id="clip3_1650_87618">
<rect x="181" y="59" width="14" height="14" rx="2.2" fill="white"/>
</clipPath>
<clipPath id="clip4_1650_87618">
<rect x="181" y="89" width="14" height="14" rx="2.2" fill="white"/>
</clipPath>
</defs>
</svg>
