<svg width="345" height="132" viewBox="0 0 345 132" fill="none" xmlns="http://www.w3.org/2000/svg">
<rect x="1" y="1" width="343" height="130" rx="12" fill="white"/>
<rect x="1" y="1" width="343" height="130" rx="12" stroke="#C4C4C4"/>
<g clip-path="url(#clip0_1602_87272)">
<rect x="181" y="59" width="22" height="22" fill="#7BCFC0"/>
</g>
<path d="M212.968 71H205.768V69.672L210.28 65.08C210.451 64.9093 210.621 64.728 210.792 64.536C210.963 64.344 211.117 64.1413 211.256 63.928C211.395 63.7147 211.507 63.4907 211.592 63.256C211.677 63.0213 211.72 62.776 211.72 62.52C211.72 62.2107 211.661 61.9333 211.544 61.688C211.437 61.4427 211.283 61.2347 211.08 61.064C210.877 60.8933 210.643 60.7653 210.376 60.68C210.109 60.584 209.827 60.536 209.528 60.536C208.952 60.536 208.461 60.696 208.056 61.016C207.651 61.336 207.389 61.768 207.272 62.312L206.056 62.184C206.216 61.3413 206.6 60.68 207.208 60.2C207.827 59.72 208.573 59.48 209.448 59.48C209.907 59.48 210.339 59.544 210.744 59.672C211.16 59.7893 211.523 59.9707 211.832 60.216C212.152 60.4613 212.403 60.7707 212.584 61.144C212.776 61.5067 212.872 61.9333 212.872 62.424C212.872 62.8613 212.803 63.2613 212.664 63.624C212.536 63.9867 212.365 64.328 212.152 64.648C211.939 64.968 211.693 65.272 211.416 65.56C211.149 65.848 210.872 66.1307 210.584 66.408L207.016 69.944H212.968V71ZM217.854 60.536C217.235 60.536 216.744 60.7013 216.382 61.032C216.03 61.3627 215.763 61.7733 215.582 62.264C215.4 62.7547 215.283 63.2773 215.23 63.832C215.187 64.3867 215.166 64.888 215.166 65.336C215.166 65.784 215.187 66.2853 215.23 66.84C215.283 67.3947 215.4 67.9173 215.582 68.408C215.763 68.8987 216.03 69.3093 216.382 69.64C216.744 69.9707 217.235 70.136 217.854 70.136C218.472 70.136 218.958 69.9707 219.31 69.64C219.672 69.3093 219.944 68.8987 220.126 68.408C220.307 67.9173 220.419 67.3947 220.462 66.84C220.515 66.2853 220.542 65.784 220.542 65.336C220.542 64.888 220.515 64.3867 220.462 63.832C220.419 63.2773 220.307 62.7547 220.126 62.264C219.944 61.7733 219.672 61.3627 219.31 61.032C218.958 60.7013 218.472 60.536 217.854 60.536ZM217.854 59.48C218.664 59.48 219.32 59.6667 219.822 60.04C220.323 60.4133 220.712 60.888 220.99 61.464C221.267 62.04 221.454 62.6747 221.55 63.368C221.646 64.0507 221.694 64.7067 221.694 65.336C221.694 65.9653 221.646 66.6267 221.55 67.32C221.454 68.0027 221.267 68.632 220.99 69.208C220.712 69.784 220.323 70.2587 219.822 70.632C219.32 71.0053 218.664 71.192 217.854 71.192C217.043 71.192 216.387 71.0053 215.886 70.632C215.384 70.2587 214.995 69.784 214.718 69.208C214.44 68.632 214.254 68.0027 214.158 67.32C214.062 66.6267 214.014 65.9653 214.014 65.336C214.014 64.7067 214.062 64.0507 214.158 63.368C214.254 62.6747 214.44 62.04 214.718 61.464C214.995 60.888 215.384 60.4133 215.886 60.04C216.387 59.6667 217.043 59.48 217.854 59.48ZM230.5 67.688H226.388V66.632H230.5V67.688ZM240.095 60.824H240.063L236.159 67.256H240.095V60.824ZM241.247 67.256H242.879V68.312H241.247V71H240.095V68.312H235.199V67L239.775 59.672H241.247V67.256ZM247.445 60.536C246.826 60.536 246.336 60.7013 245.973 61.032C245.621 61.3627 245.354 61.7733 245.173 62.264C244.992 62.7547 244.874 63.2773 244.821 63.832C244.778 64.3867 244.757 64.888 244.757 65.336C244.757 65.784 244.778 66.2853 244.821 66.84C244.874 67.3947 244.992 67.9173 245.173 68.408C245.354 68.8987 245.621 69.3093 245.973 69.64C246.336 69.9707 246.826 70.136 247.445 70.136C248.064 70.136 248.549 69.9707 248.901 69.64C249.264 69.3093 249.536 68.8987 249.717 68.408C249.898 67.9173 250.01 67.3947 250.053 66.84C250.106 66.2853 250.133 65.784 250.133 65.336C250.133 64.888 250.106 64.3867 250.053 63.832C250.01 63.2773 249.898 62.7547 249.717 62.264C249.536 61.7733 249.264 61.3627 248.901 61.032C248.549 60.7013 248.064 60.536 247.445 60.536ZM247.445 59.48C248.256 59.48 248.912 59.6667 249.413 60.04C249.914 60.4133 250.304 60.888 250.581 61.464C250.858 62.04 251.045 62.6747 251.141 63.368C251.237 64.0507 251.285 64.7067 251.285 65.336C251.285 65.9653 251.237 66.6267 251.141 67.32C251.045 68.0027 250.858 68.632 250.581 69.208C250.304 69.784 249.914 70.2587 249.413 70.632C248.912 71.0053 248.256 71.192 247.445 71.192C246.634 71.192 245.978 71.0053 245.477 70.632C244.976 70.2587 244.586 69.784 244.309 69.208C244.032 68.632 243.845 68.0027 243.749 67.32C243.653 66.6267 243.605 65.9653 243.605 65.336C243.605 64.7067 243.653 64.0507 243.749 63.368C243.845 62.6747 244.032 62.04 244.309 61.464C244.586 60.888 244.976 60.4133 245.477 60.04C245.978 59.6667 246.634 59.48 247.445 59.48ZM256.523 65.176C256.523 64.8987 256.512 64.6213 256.491 64.344C256.48 64.0667 256.464 63.7893 256.443 63.512H257.579V64.648H257.611C257.867 64.2107 258.219 63.88 258.667 63.656C259.126 63.432 259.579 63.32 260.027 63.32C260.23 63.32 260.443 63.3413 260.667 63.384C260.902 63.4267 261.126 63.5067 261.339 63.624C261.552 63.7307 261.75 63.8853 261.931 64.088C262.123 64.2907 262.283 64.552 262.411 64.872C262.624 64.392 262.96 64.0133 263.419 63.736C263.888 63.4587 264.374 63.32 264.875 63.32C265.835 63.32 266.544 63.576 267.003 64.088C267.462 64.5893 267.691 65.3093 267.691 66.248V71H266.635V66.632C266.635 65.8747 266.502 65.2933 266.235 64.888C265.968 64.4827 265.472 64.28 264.747 64.28C264.352 64.28 264.022 64.36 263.755 64.52C263.488 64.6693 263.27 64.872 263.099 65.128C262.939 65.384 262.822 65.6773 262.747 66.008C262.672 66.328 262.635 66.664 262.635 67.016V71H261.579V66.632C261.579 65.8747 261.446 65.2933 261.179 64.888C260.912 64.4827 260.416 64.28 259.691 64.28C259.627 64.28 259.478 64.3013 259.243 64.344C259.019 64.3867 258.784 64.504 258.539 64.696C258.294 64.888 258.07 65.176 257.867 65.56C257.675 65.944 257.579 66.4773 257.579 67.16V71H256.523V65.176ZM271.199 60.632C271.199 60.856 271.119 61.0427 270.959 61.192C270.799 61.3307 270.623 61.4 270.431 61.4C270.239 61.4 270.063 61.3307 269.903 61.192C269.743 61.0427 269.663 60.856 269.663 60.632C269.663 60.408 269.743 60.2267 269.903 60.088C270.063 59.9387 270.239 59.864 270.431 59.864C270.623 59.864 270.799 59.9387 270.959 60.088C271.119 60.2267 271.199 60.408 271.199 60.632ZM270.959 71H269.903V63.512H270.959V71ZM274.03 63.512C274.051 63.7147 274.062 63.9173 274.062 64.12C274.073 64.312 274.078 64.5093 274.078 64.712H274.11C274.227 64.5093 274.377 64.3227 274.558 64.152C274.739 63.9813 274.942 63.8373 275.166 63.72C275.39 63.592 275.625 63.496 275.87 63.432C276.126 63.3573 276.377 63.32 276.622 63.32C277.582 63.32 278.291 63.576 278.75 64.088C279.209 64.5893 279.438 65.3093 279.438 66.248V71H278.382V66.856C278.382 66.024 278.238 65.3893 277.95 64.952C277.662 64.504 277.129 64.28 276.35 64.28C276.297 64.28 276.147 64.3013 275.902 64.344C275.657 64.3867 275.395 64.504 275.118 64.696C274.851 64.888 274.611 65.176 274.398 65.56C274.185 65.944 274.078 66.4773 274.078 67.16V71H273.022V65.16C273.022 64.9573 273.011 64.7013 272.99 64.392C272.979 64.0827 272.963 63.7893 272.942 63.512H274.03ZM285.396 65.288C285.236 64.9787 285.023 64.7333 284.756 64.552C284.489 64.3707 284.164 64.28 283.78 64.28C283.599 64.28 283.412 64.3013 283.22 64.344C283.039 64.3867 282.873 64.456 282.724 64.552C282.575 64.6373 282.452 64.7493 282.356 64.888C282.271 65.0267 282.228 65.1973 282.228 65.4C282.228 65.752 282.351 66.008 282.596 66.168C282.841 66.328 283.209 66.4667 283.7 66.584L284.772 66.84C285.295 66.9573 285.727 67.1973 286.068 67.56C286.42 67.912 286.596 68.3547 286.596 68.888C286.596 69.2933 286.511 69.6453 286.34 69.944C286.18 70.232 285.961 70.472 285.684 70.664C285.417 70.8453 285.108 70.9787 284.756 71.064C284.404 71.1493 284.047 71.192 283.684 71.192C283.108 71.192 282.569 71.0853 282.068 70.872C281.577 70.648 281.156 70.2693 280.804 69.736L281.716 69.112C281.929 69.4533 282.196 69.7253 282.516 69.928C282.847 70.1307 283.236 70.232 283.684 70.232C283.897 70.232 284.111 70.2107 284.324 70.168C284.537 70.1147 284.724 70.04 284.884 69.944C285.055 69.8373 285.188 69.704 285.284 69.544C285.391 69.384 285.444 69.1973 285.444 68.984C285.444 68.6107 285.305 68.344 285.028 68.184C284.751 68.0133 284.415 67.88 284.02 67.784L282.996 67.544C282.868 67.512 282.692 67.4587 282.468 67.384C282.255 67.3093 282.041 67.1973 281.828 67.048C281.625 66.8987 281.449 66.7067 281.3 66.472C281.151 66.2267 281.076 65.928 281.076 65.576C281.076 65.192 281.151 64.856 281.3 64.568C281.46 64.28 281.668 64.0453 281.924 63.864C282.191 63.6827 282.489 63.5493 282.82 63.464C283.151 63.368 283.492 63.32 283.844 63.32C284.367 63.32 284.852 63.4213 285.3 63.624C285.748 63.8267 286.095 64.1733 286.34 64.664L285.396 65.288Z" fill="#181818"/>
<g clip-path="url(#clip1_1602_87272)">
<rect x="181" y="89" width="22" height="22" fill="#B9E0D8"/>
</g>
<path d="M214.408 92.936L207.544 96.152L214.408 99.368V100.328L206.248 96.52V95.784L214.408 91.976V92.936ZM227.108 101H219.908V99.672L224.42 95.08C224.59 94.9093 224.761 94.728 224.932 94.536C225.102 94.344 225.257 94.1413 225.396 93.928C225.534 93.7147 225.646 93.4907 225.732 93.256C225.817 93.0213 225.86 92.776 225.86 92.52C225.86 92.2107 225.801 91.9333 225.684 91.688C225.577 91.4427 225.422 91.2347 225.22 91.064C225.017 90.8933 224.782 90.7653 224.516 90.68C224.249 90.584 223.966 90.536 223.668 90.536C223.092 90.536 222.601 90.696 222.196 91.016C221.79 91.336 221.529 91.768 221.412 92.312L220.196 92.184C220.356 91.3413 220.74 90.68 221.348 90.2C221.966 89.72 222.713 89.48 223.588 89.48C224.046 89.48 224.478 89.544 224.884 89.672C225.3 89.7893 225.662 89.9707 225.972 90.216C226.292 90.4613 226.542 90.7707 226.724 91.144C226.916 91.5067 227.012 91.9333 227.012 92.424C227.012 92.8613 226.942 93.2613 226.804 93.624C226.676 93.9867 226.505 94.328 226.292 94.648C226.078 94.968 225.833 95.272 225.556 95.56C225.289 95.848 225.012 96.1307 224.724 96.408L221.156 99.944H227.108V101ZM231.993 90.536C231.375 90.536 230.884 90.7013 230.521 91.032C230.169 91.3627 229.903 91.7733 229.721 92.264C229.54 92.7547 229.423 93.2773 229.369 93.832C229.327 94.3867 229.305 94.888 229.305 95.336C229.305 95.784 229.327 96.2853 229.369 96.84C229.423 97.3947 229.54 97.9173 229.721 98.408C229.903 98.8987 230.169 99.3093 230.521 99.64C230.884 99.9707 231.375 100.136 231.993 100.136C232.612 100.136 233.097 99.9707 233.449 99.64C233.812 99.3093 234.084 98.8987 234.265 98.408C234.447 97.9173 234.559 97.3947 234.601 96.84C234.655 96.2853 234.681 95.784 234.681 95.336C234.681 94.888 234.655 94.3867 234.601 93.832C234.559 93.2773 234.447 92.7547 234.265 92.264C234.084 91.7733 233.812 91.3627 233.449 91.032C233.097 90.7013 232.612 90.536 231.993 90.536ZM231.993 89.48C232.804 89.48 233.46 89.6667 233.961 90.04C234.463 90.4133 234.852 90.888 235.129 91.464C235.407 92.04 235.593 92.6747 235.689 93.368C235.785 94.0507 235.833 94.7067 235.833 95.336C235.833 95.9653 235.785 96.6267 235.689 97.32C235.593 98.0027 235.407 98.632 235.129 99.208C234.852 99.784 234.463 100.259 233.961 100.632C233.46 101.005 232.804 101.192 231.993 101.192C231.183 101.192 230.527 101.005 230.025 100.632C229.524 100.259 229.135 99.784 228.857 99.208C228.58 98.632 228.393 98.0027 228.297 97.32C228.201 96.6267 228.153 95.9653 228.153 95.336C228.153 94.7067 228.201 94.0507 228.297 93.368C228.393 92.6747 228.58 92.04 228.857 91.464C229.135 90.888 229.524 90.4133 230.025 90.04C230.527 89.6667 231.183 89.48 231.993 89.48ZM241.071 95.176C241.071 94.8987 241.061 94.6213 241.039 94.344C241.029 94.0667 241.013 93.7893 240.991 93.512H242.127V94.648H242.159C242.415 94.2107 242.767 93.88 243.215 93.656C243.674 93.432 244.127 93.32 244.575 93.32C244.778 93.32 244.991 93.3413 245.215 93.384C245.45 93.4267 245.674 93.5067 245.887 93.624C246.101 93.7307 246.298 93.8853 246.479 94.088C246.671 94.2907 246.831 94.552 246.959 94.872C247.173 94.392 247.509 94.0133 247.967 93.736C248.437 93.4587 248.922 93.32 249.423 93.32C250.383 93.32 251.093 93.576 251.551 94.088C252.01 94.5893 252.239 95.3093 252.239 96.248V101H251.183V96.632C251.183 95.8747 251.05 95.2933 250.783 94.888C250.517 94.4827 250.021 94.28 249.295 94.28C248.901 94.28 248.57 94.36 248.303 94.52C248.037 94.6693 247.818 94.872 247.647 95.128C247.487 95.384 247.37 95.6773 247.295 96.008C247.221 96.328 247.183 96.664 247.183 97.016V101H246.127V96.632C246.127 95.8747 245.994 95.2933 245.727 94.888C245.461 94.4827 244.965 94.28 244.239 94.28C244.175 94.28 244.026 94.3013 243.791 94.344C243.567 94.3867 243.333 94.504 243.087 94.696C242.842 94.888 242.618 95.176 242.415 95.56C242.223 95.944 242.127 96.4773 242.127 97.16V101H241.071V95.176ZM255.748 90.632C255.748 90.856 255.668 91.0427 255.508 91.192C255.348 91.3307 255.172 91.4 254.98 91.4C254.788 91.4 254.612 91.3307 254.452 91.192C254.292 91.0427 254.212 90.856 254.212 90.632C254.212 90.408 254.292 90.2267 254.452 90.088C254.612 89.9387 254.788 89.864 254.98 89.864C255.172 89.864 255.348 89.9387 255.508 90.088C255.668 90.2267 255.748 90.408 255.748 90.632ZM255.508 101H254.452V93.512H255.508V101ZM258.578 93.512C258.6 93.7147 258.61 93.9173 258.61 94.12C258.621 94.312 258.626 94.5093 258.626 94.712H258.658C258.776 94.5093 258.925 94.3227 259.106 94.152C259.288 93.9813 259.49 93.8373 259.714 93.72C259.938 93.592 260.173 93.496 260.418 93.432C260.674 93.3573 260.925 93.32 261.17 93.32C262.13 93.32 262.84 93.576 263.298 94.088C263.757 94.5893 263.986 95.3093 263.986 96.248V101H262.93V96.856C262.93 96.024 262.786 95.3893 262.498 94.952C262.21 94.504 261.677 94.28 260.898 94.28C260.845 94.28 260.696 94.3013 260.45 94.344C260.205 94.3867 259.944 94.504 259.666 94.696C259.4 94.888 259.16 95.176 258.946 95.56C258.733 95.944 258.626 96.4773 258.626 97.16V101H257.57V95.16C257.57 94.9573 257.56 94.7013 257.538 94.392C257.528 94.0827 257.512 93.7893 257.49 93.512H258.578ZM269.944 95.288C269.784 94.9787 269.571 94.7333 269.304 94.552C269.038 94.3707 268.712 94.28 268.328 94.28C268.147 94.28 267.96 94.3013 267.768 94.344C267.587 94.3867 267.422 94.456 267.272 94.552C267.123 94.6373 267 94.7493 266.904 94.888C266.819 95.0267 266.776 95.1973 266.776 95.4C266.776 95.752 266.899 96.008 267.144 96.168C267.39 96.328 267.758 96.4667 268.248 96.584L269.32 96.84C269.843 96.9573 270.275 97.1973 270.616 97.56C270.968 97.912 271.144 98.3547 271.144 98.888C271.144 99.2933 271.059 99.6453 270.888 99.944C270.728 100.232 270.51 100.472 270.232 100.664C269.966 100.845 269.656 100.979 269.304 101.064C268.952 101.149 268.595 101.192 268.232 101.192C267.656 101.192 267.118 101.085 266.616 100.872C266.126 100.648 265.704 100.269 265.352 99.736L266.264 99.112C266.478 99.4533 266.744 99.7253 267.064 99.928C267.395 100.131 267.784 100.232 268.232 100.232C268.446 100.232 268.659 100.211 268.872 100.168C269.086 100.115 269.272 100.04 269.432 99.944C269.603 99.8373 269.736 99.704 269.832 99.544C269.939 99.384 269.992 99.1973 269.992 98.984C269.992 98.6107 269.854 98.344 269.576 98.184C269.299 98.0133 268.963 97.88 268.568 97.784L267.544 97.544C267.416 97.512 267.24 97.4587 267.016 97.384C266.803 97.3093 266.59 97.1973 266.376 97.048C266.174 96.8987 265.998 96.7067 265.848 96.472C265.699 96.2267 265.624 95.928 265.624 95.576C265.624 95.192 265.699 94.856 265.848 94.568C266.008 94.28 266.216 94.0453 266.472 93.864C266.739 93.6827 267.038 93.5493 267.368 93.464C267.699 93.368 268.04 93.32 268.392 93.32C268.915 93.32 269.4 93.4213 269.848 93.624C270.296 93.8267 270.643 94.1733 270.888 94.664L269.944 95.288Z" fill="#181818"/>
<path d="M28 22C29.1046 22 30 21.1046 30 20C30 18.8954 29.1046 18 28 18C26.8954 18 26 18.8954 26 20C26 21.1046 26.8954 22 28 22Z" fill="#6D6E71"/>
<path d="M37 30.0005V28.0005C34.76 28.0005 32.84 27.0405 31.4 25.3205L30.06 23.7205C29.68 23.2605 29.12 23.0005 28.53 23.0005H27.48C26.89 23.0005 26.33 23.2605 25.95 23.7205L24.61 25.3205C23.16 27.0405 21.24 28.0005 19 28.0005V30.0005C21.77 30.0005 24.19 28.8305 26 26.7505V29.0005L22.12 30.5505C21.45 30.8205 21 31.4805 21 32.2105C21 33.2005 21.8 34.0005 22.79 34.0005H25V33.5005C25 32.1205 26.12 31.0005 27.5 31.0005H30.5C30.78 31.0005 31 31.2205 31 31.5005C31 31.7805 30.78 32.0005 30.5 32.0005H27.5C26.67 32.0005 26 32.6705 26 33.5005V34.0005H33.21C34.2 34.0005 35 33.2005 35 32.2105C35 31.4805 34.55 30.8205 33.88 30.5505L30 29.0005V26.7505C31.81 28.8305 34.23 30.0005 37 30.0005Z" fill="#6D6E71"/>
<path d="M60.264 19.672H67.768V21.496H62.28V24.28H67.48V26.104H62.28V29.176H68.056V31H60.264V19.672ZM71.3684 26.872L68.7124 23.32H71.0484L72.5844 25.624L74.2484 23.32H76.4404L73.8164 26.872L76.9044 31H74.5684L72.5684 28.248L70.5524 31H68.2804L71.3684 26.872ZM79.0293 27.832C79.0933 28.408 79.3173 28.856 79.7013 29.176C80.0853 29.496 80.5493 29.656 81.0933 29.656C81.5733 29.656 81.9733 29.56 82.2933 29.368C82.6239 29.1653 82.9119 28.9147 83.1573 28.616L84.5333 29.656C84.0853 30.2107 83.5839 30.6053 83.0293 30.84C82.4746 31.0747 81.8933 31.192 81.2853 31.192C80.7093 31.192 80.1653 31.096 79.6533 30.904C79.1413 30.712 78.6986 30.44 78.3253 30.088C77.9519 29.736 77.6533 29.3147 77.4293 28.824C77.2159 28.3227 77.1093 27.768 77.1093 27.16C77.1093 26.552 77.2159 26.0027 77.4293 25.512C77.6533 25.0107 77.9519 24.584 78.3253 24.232C78.6986 23.88 79.1413 23.608 79.6533 23.416C80.1653 23.224 80.7093 23.128 81.2853 23.128C81.8186 23.128 82.3039 23.224 82.7413 23.416C83.1893 23.5973 83.5679 23.864 83.8773 24.216C84.1973 24.568 84.4426 25.0053 84.6133 25.528C84.7946 26.04 84.8853 26.632 84.8853 27.304V27.832H79.0293ZM82.9653 26.392C82.9546 25.8267 82.7786 25.384 82.4373 25.064C82.0959 24.7333 81.6213 24.568 81.0133 24.568C80.4373 24.568 79.9786 24.7333 79.6373 25.064C79.3066 25.3947 79.1039 25.8373 79.0293 26.392H82.9653ZM86.1959 23.32H88.1159V24.536H88.1479C88.3612 24.088 88.6652 23.7413 89.0599 23.496C89.4546 23.2507 89.9079 23.128 90.4199 23.128C90.5372 23.128 90.6492 23.1387 90.7559 23.16C90.8732 23.1813 90.9906 23.208 91.1079 23.24V25.096C90.9479 25.0533 90.7879 25.0213 90.6279 25C90.4786 24.968 90.3292 24.952 90.1799 24.952C89.7319 24.952 89.3692 25.0373 89.0919 25.208C88.8252 25.368 88.6172 25.5547 88.4679 25.768C88.3292 25.9813 88.2332 26.1947 88.1799 26.408C88.1372 26.6213 88.1159 26.7813 88.1159 26.888V31H86.1959V23.32ZM96.8965 25.624C96.6725 25.3893 96.4379 25.2027 96.1925 25.064C95.9472 24.9253 95.6965 24.856 95.4405 24.856C95.0885 24.856 94.7739 24.92 94.4965 25.048C94.2192 25.176 93.9792 25.3467 93.7765 25.56C93.5845 25.7733 93.4352 26.0187 93.3285 26.296C93.2325 26.5733 93.1845 26.8613 93.1845 27.16C93.1845 27.4587 93.2325 27.7467 93.3285 28.024C93.4352 28.3013 93.5845 28.5467 93.7765 28.76C93.9792 28.9733 94.2192 29.144 94.4965 29.272C94.7739 29.4 95.0885 29.464 95.4405 29.464C95.7392 29.464 96.0165 29.4053 96.2725 29.288C96.5285 29.16 96.7472 28.9787 96.9285 28.744L98.2085 30.12C98.0165 30.312 97.7925 30.4773 97.5365 30.616C97.2912 30.7547 97.0405 30.8667 96.7845 30.952C96.5285 31.0373 96.2832 31.096 96.0485 31.128C95.8139 31.1707 95.6112 31.192 95.4405 31.192C94.8645 31.192 94.3205 31.096 93.8085 30.904C93.2965 30.712 92.8539 30.44 92.4805 30.088C92.1072 29.736 91.8085 29.3147 91.5845 28.824C91.3712 28.3227 91.2645 27.768 91.2645 27.16C91.2645 26.552 91.3712 26.0027 91.5845 25.512C91.8085 25.0107 92.1072 24.584 92.4805 24.232C92.8539 23.88 93.2965 23.608 93.8085 23.416C94.3205 23.224 94.8645 23.128 95.4405 23.128C95.9312 23.128 96.4219 23.224 96.9125 23.416C97.4139 23.5973 97.8512 23.8907 98.2245 24.296L96.8965 25.624ZM98.9144 23.32H100.834V31H98.9144V23.32ZM98.6424 20.712C98.6424 20.4027 98.7544 20.136 98.9784 19.912C99.2131 19.6773 99.5064 19.56 99.8584 19.56C100.21 19.56 100.504 19.672 100.738 19.896C100.984 20.1093 101.106 20.3813 101.106 20.712C101.106 21.0427 100.984 21.32 100.738 21.544C100.504 21.7573 100.21 21.864 99.8584 21.864C99.5064 21.864 99.2131 21.752 98.9784 21.528C98.7544 21.2933 98.6424 21.0213 98.6424 20.712ZM106.65 25.448C106.276 24.9253 105.775 24.664 105.146 24.664C104.89 24.664 104.639 24.728 104.394 24.856C104.148 24.984 104.026 25.192 104.026 25.48C104.026 25.7147 104.127 25.8853 104.33 25.992C104.532 26.0987 104.788 26.1893 105.098 26.264C105.407 26.3387 105.738 26.4187 106.09 26.504C106.452 26.5787 106.788 26.7013 107.098 26.872C107.407 27.032 107.663 27.256 107.866 27.544C108.068 27.832 108.17 28.2267 108.17 28.728C108.17 29.1867 108.068 29.576 107.866 29.896C107.674 30.2053 107.418 30.456 107.098 30.648C106.788 30.84 106.436 30.9787 106.042 31.064C105.647 31.1493 105.252 31.192 104.858 31.192C104.26 31.192 103.711 31.1067 103.21 30.936C102.708 30.7653 102.26 30.456 101.866 30.008L103.146 28.808C103.391 29.0853 103.652 29.3147 103.93 29.496C104.218 29.6667 104.564 29.752 104.97 29.752C105.108 29.752 105.252 29.736 105.402 29.704C105.551 29.672 105.69 29.6187 105.818 29.544C105.946 29.4693 106.047 29.3787 106.122 29.272C106.207 29.1547 106.25 29.0213 106.25 28.872C106.25 28.6053 106.148 28.408 105.946 28.28C105.743 28.152 105.487 28.0507 105.178 27.976C104.868 27.8907 104.532 27.816 104.17 27.752C103.818 27.6773 103.487 27.5653 103.178 27.416C102.868 27.256 102.612 27.0373 102.41 26.76C102.207 26.4827 102.106 26.0987 102.106 25.608C102.106 25.1813 102.191 24.8133 102.362 24.504C102.543 24.184 102.778 23.9227 103.066 23.72C103.354 23.5173 103.684 23.368 104.058 23.272C104.431 23.176 104.81 23.128 105.194 23.128C105.706 23.128 106.212 23.2187 106.714 23.4C107.215 23.5707 107.62 23.8693 107.93 24.296L106.65 25.448ZM110.714 27.832C110.778 28.408 111.002 28.856 111.386 29.176C111.77 29.496 112.234 29.656 112.778 29.656C113.258 29.656 113.658 29.56 113.978 29.368C114.309 29.1653 114.597 28.9147 114.842 28.616L116.218 29.656C115.77 30.2107 115.269 30.6053 114.714 30.84C114.16 31.0747 113.578 31.192 112.97 31.192C112.394 31.192 111.85 31.096 111.338 30.904C110.826 30.712 110.384 30.44 110.01 30.088C109.637 29.736 109.338 29.3147 109.114 28.824C108.901 28.3227 108.794 27.768 108.794 27.16C108.794 26.552 108.901 26.0027 109.114 25.512C109.338 25.0107 109.637 24.584 110.01 24.232C110.384 23.88 110.826 23.608 111.338 23.416C111.85 23.224 112.394 23.128 112.97 23.128C113.504 23.128 113.989 23.224 114.426 23.416C114.874 23.5973 115.253 23.864 115.562 24.216C115.882 24.568 116.128 25.0053 116.298 25.528C116.48 26.04 116.57 26.632 116.57 27.304V27.832H110.714ZM114.65 26.392C114.64 25.8267 114.464 25.384 114.122 25.064C113.781 24.7333 113.306 24.568 112.698 24.568C112.122 24.568 111.664 24.7333 111.322 25.064C110.992 25.3947 110.789 25.8373 110.714 26.392H114.65Z" fill="#181818"/>
<g clip-path="url(#clip2_1602_87272)">
<rect x="50" y="59" width="22" height="22" fill="#2F5B54"/>
</g>
<path d="M75.248 61.976L83.408 65.784V66.52L75.248 70.328V69.368L82.112 66.152L75.248 62.936V61.976ZM90.0596 67.688C90.0596 68.0507 90.1183 68.3813 90.2356 68.68C90.3636 68.9787 90.5396 69.24 90.7636 69.464C90.9876 69.6773 91.2543 69.8427 91.5636 69.96C91.873 70.0773 92.2143 70.136 92.5876 70.136C92.961 70.136 93.3023 70.0773 93.6116 69.96C93.921 69.8427 94.1876 69.6773 94.4116 69.464C94.6356 69.24 94.8063 68.9787 94.9236 68.68C95.0516 68.3813 95.1156 68.0507 95.1156 67.688C95.1156 67.3253 95.0516 66.9947 94.9236 66.696C94.8063 66.3973 94.6356 66.1413 94.4116 65.928C94.1876 65.7147 93.921 65.5493 93.6116 65.432C93.3023 65.304 92.961 65.24 92.5876 65.24C92.2143 65.24 91.873 65.304 91.5636 65.432C91.2543 65.5493 90.9876 65.7147 90.7636 65.928C90.5396 66.1413 90.3636 66.3973 90.2356 66.696C90.1183 66.9947 90.0596 67.3253 90.0596 67.688ZM91.2116 64.536L91.2436 64.568C91.425 64.44 91.665 64.344 91.9636 64.28C92.273 64.216 92.5556 64.184 92.8116 64.184C93.3023 64.184 93.7556 64.2747 94.1716 64.456C94.5983 64.6267 94.9663 64.8667 95.2756 65.176C95.585 65.4853 95.825 65.8533 95.9956 66.28C96.177 66.7067 96.2676 67.176 96.2676 67.688C96.2676 68.2107 96.177 68.6853 95.9956 69.112C95.8143 69.5387 95.5583 69.9067 95.2276 70.216C94.897 70.5253 94.5076 70.7653 94.0596 70.936C93.6116 71.1067 93.121 71.192 92.5876 71.192C92.0543 71.192 91.5636 71.1067 91.1156 70.936C90.6676 70.7653 90.2783 70.5253 89.9476 70.216C89.617 69.9067 89.361 69.5387 89.1796 69.112C88.9983 68.6853 88.9076 68.2107 88.9076 67.688C88.9076 67.0587 88.9983 66.5093 89.1796 66.04C89.3716 65.5707 89.6063 65.1067 89.8836 64.648L92.9396 59.672H94.2996L91.2116 64.536ZM100.993 60.536C100.375 60.536 99.8841 60.7013 99.5214 61.032C99.1694 61.3627 98.9027 61.7733 98.7214 62.264C98.5401 62.7547 98.4227 63.2773 98.3694 63.832C98.3267 64.3867 98.3054 64.888 98.3054 65.336C98.3054 65.784 98.3267 66.2853 98.3694 66.84C98.4227 67.3947 98.5401 67.9173 98.7214 68.408C98.9027 68.8987 99.1694 69.3093 99.5214 69.64C99.8841 69.9707 100.375 70.136 100.993 70.136C101.612 70.136 102.097 69.9707 102.449 69.64C102.812 69.3093 103.084 68.8987 103.265 68.408C103.447 67.9173 103.559 67.3947 103.601 66.84C103.655 66.2853 103.681 65.784 103.681 65.336C103.681 64.888 103.655 64.3867 103.601 63.832C103.559 63.2773 103.447 62.7547 103.265 62.264C103.084 61.7733 102.812 61.3627 102.449 61.032C102.097 60.7013 101.612 60.536 100.993 60.536ZM100.993 59.48C101.804 59.48 102.46 59.6667 102.961 60.04C103.463 60.4133 103.852 60.888 104.129 61.464C104.407 62.04 104.593 62.6747 104.689 63.368C104.785 64.0507 104.833 64.7067 104.833 65.336C104.833 65.9653 104.785 66.6267 104.689 67.32C104.593 68.0027 104.407 68.632 104.129 69.208C103.852 69.784 103.463 70.2587 102.961 70.632C102.46 71.0053 101.804 71.192 100.993 71.192C100.183 71.192 99.5267 71.0053 99.0254 70.632C98.5241 70.2587 98.1347 69.784 97.8574 69.208C97.5801 68.632 97.3934 68.0027 97.2974 67.32C97.2014 66.6267 97.1534 65.9653 97.1534 65.336C97.1534 64.7067 97.2014 64.0507 97.2974 63.368C97.3934 62.6747 97.5801 62.04 97.8574 61.464C98.1347 60.888 98.5241 60.4133 99.0254 60.04C99.5267 59.6667 100.183 59.48 100.993 59.48ZM110.071 65.176C110.071 64.8987 110.061 64.6213 110.039 64.344C110.029 64.0667 110.013 63.7893 109.991 63.512H111.127V64.648H111.159C111.415 64.2107 111.767 63.88 112.215 63.656C112.674 63.432 113.127 63.32 113.575 63.32C113.778 63.32 113.991 63.3413 114.215 63.384C114.45 63.4267 114.674 63.5067 114.887 63.624C115.101 63.7307 115.298 63.8853 115.479 64.088C115.671 64.2907 115.831 64.552 115.959 64.872C116.173 64.392 116.509 64.0133 116.967 63.736C117.437 63.4587 117.922 63.32 118.423 63.32C119.383 63.32 120.093 63.576 120.551 64.088C121.01 64.5893 121.239 65.3093 121.239 66.248V71H120.183V66.632C120.183 65.8747 120.05 65.2933 119.783 64.888C119.517 64.4827 119.021 64.28 118.295 64.28C117.901 64.28 117.57 64.36 117.303 64.52C117.037 64.6693 116.818 64.872 116.647 65.128C116.487 65.384 116.37 65.6773 116.295 66.008C116.221 66.328 116.183 66.664 116.183 67.016V71H115.127V66.632C115.127 65.8747 114.994 65.2933 114.727 64.888C114.461 64.4827 113.965 64.28 113.239 64.28C113.175 64.28 113.026 64.3013 112.791 64.344C112.567 64.3867 112.333 64.504 112.087 64.696C111.842 64.888 111.618 65.176 111.415 65.56C111.223 65.944 111.127 66.4773 111.127 67.16V71H110.071V65.176ZM124.748 60.632C124.748 60.856 124.668 61.0427 124.508 61.192C124.348 61.3307 124.172 61.4 123.98 61.4C123.788 61.4 123.612 61.3307 123.452 61.192C123.292 61.0427 123.212 60.856 123.212 60.632C123.212 60.408 123.292 60.2267 123.452 60.088C123.612 59.9387 123.788 59.864 123.98 59.864C124.172 59.864 124.348 59.9387 124.508 60.088C124.668 60.2267 124.748 60.408 124.748 60.632ZM124.508 71H123.452V63.512H124.508V71ZM127.578 63.512C127.6 63.7147 127.61 63.9173 127.61 64.12C127.621 64.312 127.626 64.5093 127.626 64.712H127.658C127.776 64.5093 127.925 64.3227 128.106 64.152C128.288 63.9813 128.49 63.8373 128.714 63.72C128.938 63.592 129.173 63.496 129.418 63.432C129.674 63.3573 129.925 63.32 130.17 63.32C131.13 63.32 131.84 63.576 132.298 64.088C132.757 64.5893 132.986 65.3093 132.986 66.248V71H131.93V66.856C131.93 66.024 131.786 65.3893 131.498 64.952C131.21 64.504 130.677 64.28 129.898 64.28C129.845 64.28 129.696 64.3013 129.45 64.344C129.205 64.3867 128.944 64.504 128.666 64.696C128.4 64.888 128.16 65.176 127.946 65.56C127.733 65.944 127.626 66.4773 127.626 67.16V71H126.57V65.16C126.57 64.9573 126.56 64.7013 126.538 64.392C126.528 64.0827 126.512 63.7893 126.49 63.512H127.578ZM138.944 65.288C138.784 64.9787 138.571 64.7333 138.304 64.552C138.038 64.3707 137.712 64.28 137.328 64.28C137.147 64.28 136.96 64.3013 136.768 64.344C136.587 64.3867 136.422 64.456 136.272 64.552C136.123 64.6373 136 64.7493 135.904 64.888C135.819 65.0267 135.776 65.1973 135.776 65.4C135.776 65.752 135.899 66.008 136.144 66.168C136.39 66.328 136.758 66.4667 137.248 66.584L138.32 66.84C138.843 66.9573 139.275 67.1973 139.616 67.56C139.968 67.912 140.144 68.3547 140.144 68.888C140.144 69.2933 140.059 69.6453 139.888 69.944C139.728 70.232 139.51 70.472 139.232 70.664C138.966 70.8453 138.656 70.9787 138.304 71.064C137.952 71.1493 137.595 71.192 137.232 71.192C136.656 71.192 136.118 71.0853 135.616 70.872C135.126 70.648 134.704 70.2693 134.352 69.736L135.264 69.112C135.478 69.4533 135.744 69.7253 136.064 69.928C136.395 70.1307 136.784 70.232 137.232 70.232C137.446 70.232 137.659 70.2107 137.872 70.168C138.086 70.1147 138.272 70.04 138.432 69.944C138.603 69.8373 138.736 69.704 138.832 69.544C138.939 69.384 138.992 69.1973 138.992 68.984C138.992 68.6107 138.854 68.344 138.576 68.184C138.299 68.0133 137.963 67.88 137.568 67.784L136.544 67.544C136.416 67.512 136.24 67.4587 136.016 67.384C135.803 67.3093 135.59 67.1973 135.376 67.048C135.174 66.8987 134.998 66.7067 134.848 66.472C134.699 66.2267 134.624 65.928 134.624 65.576C134.624 65.192 134.699 64.856 134.848 64.568C135.008 64.28 135.216 64.0453 135.472 63.864C135.739 63.6827 136.038 63.5493 136.368 63.464C136.699 63.368 137.04 63.32 137.392 63.32C137.915 63.32 138.4 63.4213 138.848 63.624C139.296 63.8267 139.643 64.1733 139.888 64.664L138.944 65.288Z" fill="#181818"/>
<g clip-path="url(#clip3_1602_87272)">
<rect x="50" y="89" width="22" height="22" fill="#5A9F93"/>
</g>
<path d="M79.504 90.824H79.472L75.568 97.256H79.504V90.824ZM80.656 97.256H82.288V98.312H80.656V101H79.504V98.312H74.608V97L79.184 89.672H80.656V97.256ZM86.8538 90.536C86.2351 90.536 85.7444 90.7013 85.3818 91.032C85.0298 91.3627 84.7631 91.7733 84.5818 92.264C84.4004 92.7547 84.2831 93.2773 84.2298 93.832C84.1871 94.3867 84.1658 94.888 84.1658 95.336C84.1658 95.784 84.1871 96.2853 84.2298 96.84C84.2831 97.3947 84.4004 97.9173 84.5818 98.408C84.7631 98.8987 85.0298 99.3093 85.3818 99.64C85.7444 99.9707 86.2351 100.136 86.8538 100.136C87.4724 100.136 87.9578 99.9707 88.3098 99.64C88.6724 99.3093 88.9444 98.8987 89.1258 98.408C89.3071 97.9173 89.4191 97.3947 89.4618 96.84C89.5151 96.2853 89.5418 95.784 89.5418 95.336C89.5418 94.888 89.5151 94.3867 89.4618 93.832C89.4191 93.2773 89.3071 92.7547 89.1258 92.264C88.9444 91.7733 88.6724 91.3627 88.3098 91.032C87.9578 90.7013 87.4724 90.536 86.8538 90.536ZM86.8538 89.48C87.6644 89.48 88.3204 89.6667 88.8218 90.04C89.3231 90.4133 89.7124 90.888 89.9898 91.464C90.2671 92.04 90.4538 92.6747 90.5498 93.368C90.6458 94.0507 90.6938 94.7067 90.6938 95.336C90.6938 95.9653 90.6458 96.6267 90.5498 97.32C90.4538 98.0027 90.2671 98.632 89.9898 99.208C89.7124 99.784 89.3231 100.259 88.8218 100.632C88.3204 101.005 87.6644 101.192 86.8538 101.192C86.0431 101.192 85.3871 101.005 84.8858 100.632C84.3844 100.259 83.9951 99.784 83.7178 99.208C83.4404 98.632 83.2538 98.0027 83.1578 97.32C83.0618 96.6267 83.0138 95.9653 83.0138 95.336C83.0138 94.7067 83.0618 94.0507 83.1578 93.368C83.2538 92.6747 83.4404 92.04 83.7178 91.464C83.9951 90.888 84.3844 90.4133 84.8858 90.04C85.3871 89.6667 86.0431 89.48 86.8538 89.48ZM99.4998 97.688H95.3878V96.632H99.4998V97.688ZM105.511 97.688C105.511 98.0507 105.57 98.3813 105.687 98.68C105.815 98.9787 105.991 99.24 106.215 99.464C106.439 99.6773 106.706 99.8427 107.015 99.96C107.325 100.077 107.666 100.136 108.039 100.136C108.413 100.136 108.754 100.077 109.063 99.96C109.373 99.8427 109.639 99.6773 109.863 99.464C110.087 99.24 110.258 98.9787 110.375 98.68C110.503 98.3813 110.567 98.0507 110.567 97.688C110.567 97.3253 110.503 96.9947 110.375 96.696C110.258 96.3973 110.087 96.1413 109.863 95.928C109.639 95.7147 109.373 95.5493 109.063 95.432C108.754 95.304 108.413 95.24 108.039 95.24C107.666 95.24 107.325 95.304 107.015 95.432C106.706 95.5493 106.439 95.7147 106.215 95.928C105.991 96.1413 105.815 96.3973 105.687 96.696C105.57 96.9947 105.511 97.3253 105.511 97.688ZM106.663 94.536L106.695 94.568C106.877 94.44 107.117 94.344 107.415 94.28C107.725 94.216 108.007 94.184 108.263 94.184C108.754 94.184 109.207 94.2747 109.623 94.456C110.05 94.6267 110.418 94.8667 110.727 95.176C111.037 95.4853 111.277 95.8533 111.447 96.28C111.629 96.7067 111.719 97.176 111.719 97.688C111.719 98.2107 111.629 98.6853 111.447 99.112C111.266 99.5387 111.01 99.9067 110.679 100.216C110.349 100.525 109.959 100.765 109.511 100.936C109.063 101.107 108.573 101.192 108.039 101.192C107.506 101.192 107.015 101.107 106.567 100.936C106.119 100.765 105.73 100.525 105.399 100.216C105.069 99.9067 104.813 99.5387 104.631 99.112C104.45 98.6853 104.359 98.2107 104.359 97.688C104.359 97.0587 104.45 96.5093 104.631 96.04C104.823 95.5707 105.058 95.1067 105.335 94.648L108.391 89.672H109.751L106.663 94.536ZM116.445 90.536C115.826 90.536 115.336 90.7013 114.973 91.032C114.621 91.3627 114.354 91.7733 114.173 92.264C113.992 92.7547 113.874 93.2773 113.821 93.832C113.778 94.3867 113.757 94.888 113.757 95.336C113.757 95.784 113.778 96.2853 113.821 96.84C113.874 97.3947 113.992 97.9173 114.173 98.408C114.354 98.8987 114.621 99.3093 114.973 99.64C115.336 99.9707 115.826 100.136 116.445 100.136C117.064 100.136 117.549 99.9707 117.901 99.64C118.264 99.3093 118.536 98.8987 118.717 98.408C118.898 97.9173 119.01 97.3947 119.053 96.84C119.106 96.2853 119.133 95.784 119.133 95.336C119.133 94.888 119.106 94.3867 119.053 93.832C119.01 93.2773 118.898 92.7547 118.717 92.264C118.536 91.7733 118.264 91.3627 117.901 91.032C117.549 90.7013 117.064 90.536 116.445 90.536ZM116.445 89.48C117.256 89.48 117.912 89.6667 118.413 90.04C118.914 90.4133 119.304 90.888 119.581 91.464C119.858 92.04 120.045 92.6747 120.141 93.368C120.237 94.0507 120.285 94.7067 120.285 95.336C120.285 95.9653 120.237 96.6267 120.141 97.32C120.045 98.0027 119.858 98.632 119.581 99.208C119.304 99.784 118.914 100.259 118.413 100.632C117.912 101.005 117.256 101.192 116.445 101.192C115.634 101.192 114.978 101.005 114.477 100.632C113.976 100.259 113.586 99.784 113.309 99.208C113.032 98.632 112.845 98.0027 112.749 97.32C112.653 96.6267 112.605 95.9653 112.605 95.336C112.605 94.7067 112.653 94.0507 112.749 93.368C112.845 92.6747 113.032 92.04 113.309 91.464C113.586 90.888 113.976 90.4133 114.477 90.04C114.978 89.6667 115.634 89.48 116.445 89.48ZM125.523 95.176C125.523 94.8987 125.512 94.6213 125.491 94.344C125.48 94.0667 125.464 93.7893 125.443 93.512H126.579V94.648H126.611C126.867 94.2107 127.219 93.88 127.667 93.656C128.126 93.432 128.579 93.32 129.027 93.32C129.23 93.32 129.443 93.3413 129.667 93.384C129.902 93.4267 130.126 93.5067 130.339 93.624C130.552 93.7307 130.75 93.8853 130.931 94.088C131.123 94.2907 131.283 94.552 131.411 94.872C131.624 94.392 131.96 94.0133 132.419 93.736C132.888 93.4587 133.374 93.32 133.875 93.32C134.835 93.32 135.544 93.576 136.003 94.088C136.462 94.5893 136.691 95.3093 136.691 96.248V101H135.635V96.632C135.635 95.8747 135.502 95.2933 135.235 94.888C134.968 94.4827 134.472 94.28 133.747 94.28C133.352 94.28 133.022 94.36 132.755 94.52C132.488 94.6693 132.27 94.872 132.099 95.128C131.939 95.384 131.822 95.6773 131.747 96.008C131.672 96.328 131.635 96.664 131.635 97.016V101H130.579V96.632C130.579 95.8747 130.446 95.2933 130.179 94.888C129.912 94.4827 129.416 94.28 128.691 94.28C128.627 94.28 128.478 94.3013 128.243 94.344C128.019 94.3867 127.784 94.504 127.539 94.696C127.294 94.888 127.07 95.176 126.867 95.56C126.675 95.944 126.579 96.4773 126.579 97.16V101H125.523V95.176ZM140.199 90.632C140.199 90.856 140.119 91.0427 139.959 91.192C139.799 91.3307 139.623 91.4 139.431 91.4C139.239 91.4 139.063 91.3307 138.903 91.192C138.743 91.0427 138.663 90.856 138.663 90.632C138.663 90.408 138.743 90.2267 138.903 90.088C139.063 89.9387 139.239 89.864 139.431 89.864C139.623 89.864 139.799 89.9387 139.959 90.088C140.119 90.2267 140.199 90.408 140.199 90.632ZM139.959 101H138.903V93.512H139.959V101ZM143.03 93.512C143.051 93.7147 143.062 93.9173 143.062 94.12C143.073 94.312 143.078 94.5093 143.078 94.712H143.11C143.227 94.5093 143.377 94.3227 143.558 94.152C143.739 93.9813 143.942 93.8373 144.166 93.72C144.39 93.592 144.625 93.496 144.87 93.432C145.126 93.3573 145.377 93.32 145.622 93.32C146.582 93.32 147.291 93.576 147.75 94.088C148.209 94.5893 148.438 95.3093 148.438 96.248V101H147.382V96.856C147.382 96.024 147.238 95.3893 146.95 94.952C146.662 94.504 146.129 94.28 145.35 94.28C145.297 94.28 145.147 94.3013 144.902 94.344C144.657 94.3867 144.395 94.504 144.118 94.696C143.851 94.888 143.611 95.176 143.398 95.56C143.185 95.944 143.078 96.4773 143.078 97.16V101H142.022V95.16C142.022 94.9573 142.011 94.7013 141.99 94.392C141.979 94.0827 141.963 93.7893 141.942 93.512H143.03ZM154.396 95.288C154.236 94.9787 154.023 94.7333 153.756 94.552C153.489 94.3707 153.164 94.28 152.78 94.28C152.599 94.28 152.412 94.3013 152.22 94.344C152.039 94.3867 151.873 94.456 151.724 94.552C151.575 94.6373 151.452 94.7493 151.356 94.888C151.271 95.0267 151.228 95.1973 151.228 95.4C151.228 95.752 151.351 96.008 151.596 96.168C151.841 96.328 152.209 96.4667 152.7 96.584L153.772 96.84C154.295 96.9573 154.727 97.1973 155.068 97.56C155.42 97.912 155.596 98.3547 155.596 98.888C155.596 99.2933 155.511 99.6453 155.34 99.944C155.18 100.232 154.961 100.472 154.684 100.664C154.417 100.845 154.108 100.979 153.756 101.064C153.404 101.149 153.047 101.192 152.684 101.192C152.108 101.192 151.569 101.085 151.068 100.872C150.577 100.648 150.156 100.269 149.804 99.736L150.716 99.112C150.929 99.4533 151.196 99.7253 151.516 99.928C151.847 100.131 152.236 100.232 152.684 100.232C152.897 100.232 153.111 100.211 153.324 100.168C153.537 100.115 153.724 100.04 153.884 99.944C154.055 99.8373 154.188 99.704 154.284 99.544C154.391 99.384 154.444 99.1973 154.444 98.984C154.444 98.6107 154.305 98.344 154.028 98.184C153.751 98.0133 153.415 97.88 153.02 97.784L151.996 97.544C151.868 97.512 151.692 97.4587 151.468 97.384C151.255 97.3093 151.041 97.1973 150.828 97.048C150.625 96.8987 150.449 96.7067 150.3 96.472C150.151 96.2267 150.076 95.928 150.076 95.576C150.076 95.192 150.151 94.856 150.3 94.568C150.46 94.28 150.668 94.0453 150.924 93.864C151.191 93.6827 151.489 93.5493 151.82 93.464C152.151 93.368 152.492 93.32 152.844 93.32C153.367 93.32 153.852 93.4213 154.3 93.624C154.748 93.8267 155.095 94.1733 155.34 94.664L154.396 95.288Z" fill="#181818"/>
<defs>
<clipPath id="clip0_1602_87272">
<rect x="181" y="59" width="14" height="14" rx="2.2" fill="white"/>
</clipPath>
<clipPath id="clip1_1602_87272">
<rect x="181" y="89" width="14" height="14" rx="2.2" fill="white"/>
</clipPath>
<clipPath id="clip2_1602_87272">
<rect x="50" y="59" width="14" height="14" rx="2.2" fill="white"/>
</clipPath>
<clipPath id="clip3_1602_87272">
<rect x="50" y="89" width="14" height="14" rx="2.2" fill="white"/>
</clipPath>
</defs>
</svg>
