<svg width="21" height="19" viewBox="0 0 21 19" fill="none" xmlns="http://www.w3.org/2000/svg">
<path d="M10.4993 5C11.788 5 12.8327 3.99264 12.8327 2.75C12.8327 1.50736 11.788 0.5 10.4993 0.5C9.21068 0.5 8.16602 1.50736 8.16602 2.75C8.16602 3.99264 9.21068 5 10.4993 5Z" fill="#B31F20"/>
<path d="M21 14V11.75C18.3867 11.75 16.1467 10.67 14.4667 8.735L12.9033 6.935C12.46 6.4175 11.8067 6.125 11.1183 6.125H9.89333C9.205 6.125 8.55167 6.4175 8.10833 6.935L6.545 8.735C4.85333 10.67 2.61333 11.75 0 11.75V14C3.23167 14 6.055 12.6838 8.16667 10.3438V12.875L3.64 14.6187C2.85833 14.9225 2.33333 15.665 2.33333 16.4862C2.33333 17.6 3.26667 18.5 4.42167 18.5H7V17.9375C7 16.385 8.30667 15.125 9.91667 15.125H13.4167C13.7433 15.125 14 15.3725 14 15.6875C14 16.0025 13.7433 16.25 13.4167 16.25H9.91667C8.94833 16.25 8.16667 17.0037 8.16667 17.9375V18.5H16.5783C17.7333 18.5 18.6667 17.6 18.6667 16.4862C18.6667 15.665 18.1417 14.9225 17.36 14.6187L12.8333 12.875V10.3438C14.945 12.6838 17.7683 14 21 14Z" fill="#B31F20"/>
</svg>
