<svg width="55" height="75" viewBox="0 0 55 75" fill="none" xmlns="http://www.w3.org/2000/svg">
<rect x="3.5" y="1" width="48" height="48" rx="15" fill="#EFEFF3"/>
<path d="M33.66 21.0001L28 15.3501L22.34 21.0001C20.78 22.5601 20 24.6401 20 26.6401C20 28.6401 20.78 30.7501 22.34 32.3101C23.9 33.8701 25.95 34.6601 28 34.6601C30.05 34.6601 32.1 33.8701 33.66 32.3101C35.22 30.7501 36 28.6401 36 26.6401C36 24.6401 35.22 22.5601 33.66 21.0001ZM22 27.0001C22.01 25.0001 22.62 23.7301 23.76 22.6001L28 18.2701L32.24 22.6501C33.38 23.7701 33.99 25.0001 34 27.0001H22Z" fill="#6D6E70"/>
<rect x="3.5" y="1" width="48" height="48" rx="15" stroke="#EFEFF3" stroke-width="2"/>
<path d="M13.6051 57.088H19.8351V58.348H14.9491V61.456H19.4991V62.716H14.9491V67H13.6051V57.088ZM21.4201 56.416H22.6801V67H21.4201V56.416ZM25.7074 63.682C25.7074 64.018 25.7587 64.3307 25.8614 64.62C25.9641 64.9 26.1087 65.1427 26.2954 65.348C26.4821 65.544 26.7107 65.7027 26.9814 65.824C27.2521 65.936 27.5554 65.992 27.8914 65.992C28.2274 65.992 28.5307 65.936 28.8014 65.824C29.0721 65.7027 29.3007 65.544 29.4874 65.348C29.6741 65.1427 29.8187 64.9 29.9214 64.62C30.0241 64.3307 30.0754 64.018 30.0754 63.682C30.0754 63.346 30.0241 63.038 29.9214 62.758C29.8187 62.4687 29.6741 62.226 29.4874 62.03C29.3007 61.8247 29.0721 61.666 28.8014 61.554C28.5307 61.4327 28.2274 61.372 27.8914 61.372C27.5554 61.372 27.2521 61.4327 26.9814 61.554C26.7107 61.666 26.4821 61.8247 26.2954 62.03C26.1087 62.226 25.9641 62.4687 25.8614 62.758C25.7587 63.038 25.7074 63.346 25.7074 63.682ZM24.3634 63.682C24.3634 63.1967 24.4521 62.744 24.6294 62.324C24.8161 61.904 25.0681 61.5353 25.3854 61.218C25.7027 60.9007 26.0761 60.6533 26.5054 60.476C26.9347 60.2893 27.3967 60.196 27.8914 60.196C28.3861 60.196 28.8481 60.2893 29.2774 60.476C29.7067 60.6533 30.0801 60.9007 30.3974 61.218C30.7147 61.5353 30.9621 61.904 31.1394 62.324C31.3261 62.744 31.4194 63.1967 31.4194 63.682C31.4194 64.1673 31.3261 64.6247 31.1394 65.054C30.9621 65.474 30.7147 65.8427 30.3974 66.16C30.0801 66.468 29.7067 66.7153 29.2774 66.902C28.8481 67.0793 28.3861 67.168 27.8914 67.168C27.3967 67.168 26.9347 67.0793 26.5054 66.902C26.0761 66.7153 25.7027 66.468 25.3854 66.16C25.0681 65.8427 24.8161 65.474 24.6294 65.054C24.4521 64.6247 24.3634 64.1673 24.3634 63.682ZM32.1999 60.364H33.6139L35.1119 65.32H35.1399L36.7219 60.364H38.0519L39.7319 65.32H39.7599L41.1879 60.364H42.5179L40.3759 67H39.1019L37.3519 62.044H37.3239L35.7419 67H34.3839L32.1999 60.364Z" fill="#6D6D70"/>
</svg>
