<svg width="345" height="154" viewBox="0 0 345 154" fill="none" xmlns="http://www.w3.org/2000/svg">
<rect x="1" y="1" width="343" height="152" rx="12" fill="white"/>
<g clip-path="url(#clip0_1650_87617)">
<rect x="51" y="59" width="14" height="14" rx="2.2" fill="#831414"/>
<rect x="51" y="59" width="22" height="22" fill="#D32729"/>
</g>
<path d="M76.536 59.672H77.688V64.584H83.864V59.672H85.016V71H83.864V65.64H77.688V71H76.536V59.672ZM93.038 66.68C93.038 65.9653 92.8247 65.3893 92.398 64.952C91.9713 64.504 91.374 64.28 90.606 64.28C90.2647 64.28 89.934 64.3493 89.614 64.488C89.294 64.616 89.0113 64.792 88.766 65.016C88.5313 65.24 88.3393 65.496 88.19 65.784C88.0513 66.072 87.982 66.3707 87.982 66.68H93.038ZM87.95 67.544C87.982 67.9173 88.0727 68.2693 88.222 68.6C88.3713 68.9307 88.5687 69.2187 88.814 69.464C89.0593 69.6987 89.342 69.8853 89.662 70.024C89.982 70.1627 90.3287 70.232 90.702 70.232C91.2673 70.232 91.7527 70.104 92.158 69.848C92.574 69.5813 92.8887 69.2773 93.102 68.936L93.918 69.608C93.47 70.1733 92.974 70.5787 92.43 70.824C91.8967 71.0693 91.3207 71.192 90.702 71.192C90.1473 71.192 89.63 71.096 89.15 70.904C88.6807 70.7013 88.2753 70.424 87.934 70.072C87.5927 69.72 87.3207 69.304 87.118 68.824C86.926 68.344 86.83 67.8213 86.83 67.256C86.83 66.6907 86.926 66.168 87.118 65.688C87.31 65.208 87.5767 64.792 87.918 64.44C88.2593 64.088 88.6593 63.816 89.118 63.624C89.5767 63.4213 90.0727 63.32 90.606 63.32C91.1713 63.32 91.678 63.4213 92.126 63.624C92.574 63.8267 92.9473 64.0987 93.246 64.44C93.5553 64.7707 93.79 65.1653 93.95 65.624C94.11 66.072 94.19 66.552 94.19 67.064V67.544H87.95ZM99.8758 67.272C99.6091 67.272 99.2731 67.288 98.8678 67.32C98.4731 67.3413 98.0891 67.4053 97.7158 67.512C97.3531 67.608 97.0384 67.7627 96.7718 67.976C96.5158 68.1893 96.3878 68.4827 96.3878 68.856C96.3878 69.1013 96.4358 69.3147 96.5318 69.496C96.6384 69.6667 96.7771 69.8107 96.9478 69.928C97.1184 70.0347 97.3051 70.1147 97.5078 70.168C97.7211 70.2107 97.9344 70.232 98.1478 70.232C98.5318 70.232 98.8624 70.168 99.1398 70.04C99.4278 69.912 99.6678 69.7413 99.8598 69.528C100.052 69.304 100.19 69.048 100.276 68.76C100.372 68.4613 100.42 68.1467 100.42 67.816V67.272H99.8758ZM100.42 66.408V66.216C100.42 64.9253 99.7798 64.28 98.4998 64.28C97.6251 64.28 96.8624 64.5733 96.2118 65.16L95.5718 64.408C96.2758 63.6827 97.3318 63.32 98.7398 63.32C99.1024 63.32 99.4491 63.3733 99.7798 63.48C100.121 63.5867 100.414 63.752 100.66 63.976C100.905 64.1893 101.102 64.4613 101.252 64.792C101.401 65.1227 101.476 65.5173 101.476 65.976V69.32C101.476 69.608 101.486 69.912 101.508 70.232C101.54 70.5413 101.572 70.7973 101.604 71H100.58C100.548 70.8187 100.521 70.6213 100.5 70.408C100.489 70.1947 100.484 69.9867 100.484 69.784H100.452C100.142 70.2853 99.7744 70.648 99.3478 70.872C98.9318 71.0853 98.4198 71.192 97.8118 71.192C97.4811 71.192 97.1611 71.144 96.8518 71.048C96.5424 70.9627 96.2651 70.8293 96.0198 70.648C95.7851 70.456 95.5931 70.2267 95.4438 69.96C95.3051 69.6827 95.2358 69.3627 95.2358 69C95.2358 68.392 95.3904 67.9173 95.6998 67.576C96.0198 67.224 96.4144 66.9627 96.8838 66.792C97.3638 66.6213 97.8704 66.5147 98.4038 66.472C98.9478 66.4293 99.4438 66.408 99.8918 66.408H100.42ZM106.728 71H105.544L102.504 63.512H103.768L106.152 69.816H106.184L108.568 63.512H109.768L106.728 71ZM113.45 69.704L115.738 63.512H117.018L113.274 72.952C113.05 73.528 112.762 73.9867 112.41 74.328C112.068 74.6693 111.572 74.84 110.922 74.84C110.762 74.84 110.596 74.8347 110.426 74.824C110.266 74.8133 110.106 74.7813 109.946 74.728L110.058 73.704C110.282 73.8213 110.548 73.88 110.858 73.88C111.231 73.88 111.524 73.7627 111.738 73.528C111.951 73.2933 112.138 72.9627 112.298 72.536L112.842 71.096L109.77 63.512H111.098L113.45 69.704Z" fill="#181818"/>
<g clip-path="url(#clip1_1650_87617)">
<rect x="51" y="89" width="22" height="22" fill="#E44545"/>
</g>
<path d="M82.12 98.888L85.944 89.672H87.704V101H86.552V91.208H86.52L82.424 101H81.816L77.72 91.208H77.688V101H76.536V89.672H78.296L82.12 98.888ZM95.7255 96.68C95.7255 95.9653 95.5122 95.3893 95.0855 94.952C94.6588 94.504 94.0615 94.28 93.2935 94.28C92.9522 94.28 92.6215 94.3493 92.3015 94.488C91.9815 94.616 91.6988 94.792 91.4535 95.016C91.2188 95.24 91.0268 95.496 90.8775 95.784C90.7388 96.072 90.6695 96.3707 90.6695 96.68H95.7255ZM90.6375 97.544C90.6695 97.9173 90.7602 98.2693 90.9095 98.6C91.0588 98.9307 91.2562 99.2187 91.5015 99.464C91.7468 99.6987 92.0295 99.8853 92.3495 100.024C92.6695 100.163 93.0162 100.232 93.3895 100.232C93.9548 100.232 94.4402 100.104 94.8455 99.848C95.2615 99.5813 95.5762 99.2773 95.7895 98.936L96.6055 99.608C96.1575 100.173 95.6615 100.579 95.1175 100.824C94.5842 101.069 94.0082 101.192 93.3895 101.192C92.8348 101.192 92.3175 101.096 91.8375 100.904C91.3682 100.701 90.9628 100.424 90.6215 100.072C90.2802 99.72 90.0082 99.304 89.8055 98.824C89.6135 98.344 89.5175 97.8213 89.5175 97.256C89.5175 96.6907 89.6135 96.168 89.8055 95.688C89.9975 95.208 90.2642 94.792 90.6055 94.44C90.9468 94.088 91.3468 93.816 91.8055 93.624C92.2642 93.4213 92.7602 93.32 93.2935 93.32C93.8588 93.32 94.3655 93.4213 94.8135 93.624C95.2615 93.8267 95.6348 94.0987 95.9335 94.44C96.2428 94.7707 96.4775 95.1653 96.6375 95.624C96.7975 96.072 96.8775 96.552 96.8775 97.064V97.544H90.6375ZM98.9473 97.256C98.9473 97.672 99.0113 98.0613 99.1393 98.424C99.2779 98.7867 99.4699 99.1013 99.7153 99.368C99.9606 99.6347 100.254 99.848 100.595 100.008C100.947 100.157 101.342 100.232 101.779 100.232C102.206 100.232 102.601 100.157 102.963 100.008C103.337 99.848 103.657 99.6347 103.923 99.368C104.19 99.1013 104.398 98.7867 104.547 98.424C104.697 98.0613 104.771 97.672 104.771 97.256C104.771 96.84 104.697 96.4507 104.547 96.088C104.398 95.7253 104.19 95.4107 103.923 95.144C103.657 94.8773 103.337 94.6693 102.963 94.52C102.601 94.36 102.206 94.28 101.779 94.28C101.342 94.28 100.947 94.36 100.595 94.52C100.254 94.6693 99.9606 94.8773 99.7153 95.144C99.4699 95.4107 99.2779 95.7253 99.1393 96.088C99.0113 96.4507 98.9473 96.84 98.9473 97.256ZM105.779 101H104.723V99.752H104.691C104.521 100.008 104.318 100.227 104.083 100.408C103.849 100.589 103.603 100.739 103.347 100.856C103.091 100.973 102.825 101.059 102.547 101.112C102.281 101.165 102.025 101.192 101.779 101.192C101.193 101.192 100.654 101.096 100.163 100.904C99.6833 100.701 99.2673 100.424 98.9153 100.072C98.5633 99.72 98.2859 99.304 98.0833 98.824C97.8913 98.344 97.7953 97.8213 97.7953 97.256C97.7953 96.6907 97.8913 96.168 98.0833 95.688C98.2859 95.208 98.5633 94.792 98.9153 94.44C99.2673 94.088 99.6833 93.816 100.163 93.624C100.654 93.4213 101.193 93.32 101.779 93.32C102.025 93.32 102.281 93.3467 102.547 93.4C102.825 93.4533 103.091 93.5387 103.347 93.656C103.603 93.7733 103.849 93.9227 104.083 94.104C104.318 94.2853 104.521 94.504 104.691 94.76H104.723V88.904H105.779V101ZM109.14 90.632C109.14 90.856 109.06 91.0427 108.9 91.192C108.74 91.3307 108.564 91.4 108.372 91.4C108.18 91.4 108.004 91.3307 107.844 91.192C107.684 91.0427 107.604 90.856 107.604 90.632C107.604 90.408 107.684 90.2267 107.844 90.088C108.004 89.9387 108.18 89.864 108.372 89.864C108.564 89.864 108.74 89.9387 108.9 90.088C109.06 90.2267 109.14 90.408 109.14 90.632ZM108.9 101H107.844V93.512H108.9V101ZM116.371 101C116.349 100.797 116.333 100.6 116.323 100.408C116.323 100.205 116.323 100.003 116.323 99.8H116.291C116.173 100.003 116.024 100.189 115.843 100.36C115.661 100.531 115.459 100.68 115.235 100.808C115.011 100.925 114.771 101.016 114.515 101.08C114.269 101.155 114.024 101.192 113.779 101.192C112.819 101.192 112.109 100.941 111.651 100.44C111.192 99.928 110.963 99.2027 110.963 98.264V93.512H112.019V97.656C112.019 98.072 112.051 98.44 112.115 98.76C112.179 99.08 112.285 99.352 112.435 99.576C112.595 99.7893 112.803 99.9547 113.059 100.072C113.325 100.179 113.656 100.232 114.051 100.232C114.104 100.232 114.253 100.211 114.499 100.168C114.744 100.125 115 100.008 115.267 99.816C115.544 99.624 115.789 99.336 116.003 98.952C116.216 98.568 116.323 98.0347 116.323 97.352V93.512H117.379V99.352C117.379 99.5547 117.384 99.8107 117.395 100.12C117.416 100.429 117.437 100.723 117.459 101H116.371ZM119.368 95.176C119.368 94.8987 119.358 94.6213 119.336 94.344C119.326 94.0667 119.31 93.7893 119.288 93.512H120.424V94.648H120.456C120.712 94.2107 121.064 93.88 121.512 93.656C121.971 93.432 122.424 93.32 122.872 93.32C123.075 93.32 123.288 93.3413 123.512 93.384C123.747 93.4267 123.971 93.5067 124.184 93.624C124.398 93.7307 124.595 93.8853 124.776 94.088C124.968 94.2907 125.128 94.552 125.256 94.872C125.47 94.392 125.806 94.0133 126.264 93.736C126.734 93.4587 127.219 93.32 127.72 93.32C128.68 93.32 129.39 93.576 129.848 94.088C130.307 94.5893 130.536 95.3093 130.536 96.248V101H129.48V96.632C129.48 95.8747 129.347 95.2933 129.08 94.888C128.814 94.4827 128.318 94.28 127.592 94.28C127.198 94.28 126.867 94.36 126.6 94.52C126.334 94.6693 126.115 94.872 125.944 95.128C125.784 95.384 125.667 95.6773 125.592 96.008C125.518 96.328 125.48 96.664 125.48 97.016V101H124.424V96.632C124.424 95.8747 124.291 95.2933 124.024 94.888C123.758 94.4827 123.262 94.28 122.536 94.28C122.472 94.28 122.323 94.3013 122.088 94.344C121.864 94.3867 121.63 94.504 121.384 94.696C121.139 94.888 120.915 95.176 120.712 95.56C120.52 95.944 120.424 96.4773 120.424 97.16V101H119.368V95.176Z" fill="#181818"/>
<g clip-path="url(#clip2_1650_87617)">
<rect x="51" y="119" width="22" height="22" fill="#E3797A"/>
</g>
<path d="M77.688 129.944H82.968V131H76.536V119.672H77.688V129.944ZM85.2031 120.632C85.2031 120.856 85.1231 121.043 84.9631 121.192C84.8031 121.331 84.6271 121.4 84.4351 121.4C84.2431 121.4 84.0671 121.331 83.9071 121.192C83.7471 121.043 83.6671 120.856 83.6671 120.632C83.6671 120.408 83.7471 120.227 83.9071 120.088C84.0671 119.939 84.2431 119.864 84.4351 119.864C84.6271 119.864 84.8031 119.939 84.9631 120.088C85.1231 120.227 85.2031 120.408 85.2031 120.632ZM84.9631 131H83.9071V123.512H84.9631V131ZM87.794 127.16C87.794 127.555 87.8634 127.928 88.002 128.28C88.1514 128.621 88.3487 128.925 88.594 129.192C88.85 129.448 89.1434 129.656 89.474 129.816C89.8154 129.965 90.1834 130.04 90.578 130.04C90.962 130.04 91.3247 129.971 91.666 129.832C92.018 129.693 92.3274 129.501 92.594 129.256C92.8607 129 93.0634 128.696 93.202 128.344C93.3514 127.992 93.4207 127.597 93.41 127.16C93.41 126.765 93.346 126.397 93.218 126.056C93.09 125.704 92.9034 125.4 92.658 125.144C92.4127 124.877 92.114 124.669 91.762 124.52C91.41 124.36 91.0154 124.28 90.578 124.28C90.1834 124.28 89.8154 124.36 89.474 124.52C89.1434 124.669 88.85 124.877 88.594 125.144C88.3487 125.4 88.1514 125.704 88.002 126.056C87.8634 126.397 87.794 126.765 87.794 127.16ZM87.602 132.504C87.9114 132.92 88.3114 133.251 88.802 133.496C89.3034 133.752 89.858 133.88 90.466 133.88C90.9994 133.88 91.4527 133.8 91.826 133.64C92.1994 133.491 92.498 133.283 92.722 133.016C92.9567 132.749 93.122 132.435 93.218 132.072C93.3247 131.72 93.378 131.341 93.378 130.936V129.592H93.346C93.0047 130.104 92.5887 130.467 92.098 130.68C91.6074 130.893 91.09 131 90.546 131C90.002 131 89.49 130.904 89.01 130.712C88.5407 130.52 88.13 130.259 87.778 129.928C87.426 129.587 87.1487 129.181 86.946 128.712C86.7434 128.243 86.642 127.736 86.642 127.192C86.642 126.648 86.738 126.141 86.93 125.672C87.122 125.203 87.3834 124.792 87.714 124.44C88.0554 124.088 88.4554 123.816 88.914 123.624C89.3834 123.421 89.8954 123.32 90.45 123.32C90.674 123.32 90.9087 123.341 91.154 123.384C91.41 123.427 91.6607 123.501 91.906 123.608C92.162 123.715 92.4127 123.864 92.658 124.056C92.9034 124.237 93.1327 124.472 93.346 124.76H93.378V123.512H94.434V130.936C94.434 131.341 94.3807 131.773 94.274 132.232C94.178 132.691 93.9807 133.112 93.682 133.496C93.394 133.88 92.9887 134.2 92.466 134.456C91.9434 134.712 91.2607 134.84 90.418 134.84C89.6714 134.84 89.0047 134.717 88.418 134.472C87.8314 134.227 87.298 133.848 86.818 133.336L87.602 132.504ZM96.3224 118.904H97.3784V124.712H97.4104C97.5277 124.509 97.6771 124.323 97.8584 124.152C98.0397 123.981 98.2424 123.837 98.4664 123.72C98.6904 123.592 98.9251 123.496 99.1704 123.432C99.4264 123.357 99.6771 123.32 99.9224 123.32C100.882 123.32 101.592 123.576 102.05 124.088C102.509 124.589 102.738 125.309 102.738 126.248V131H101.682V126.856C101.682 126.024 101.538 125.389 101.25 124.952C100.962 124.504 100.429 124.28 99.6504 124.28C99.5971 124.28 99.4477 124.301 99.2024 124.344C98.9571 124.387 98.6957 124.504 98.4184 124.696C98.1517 124.888 97.9117 125.176 97.6984 125.56C97.4851 125.944 97.3784 126.477 97.3784 127.16V131H96.3224V118.904ZM108.6 124.472H106.44V128.888C106.44 129.165 106.467 129.395 106.52 129.576C106.573 129.747 106.648 129.88 106.744 129.976C106.84 130.072 106.952 130.141 107.08 130.184C107.219 130.216 107.368 130.232 107.528 130.232C107.709 130.232 107.896 130.205 108.088 130.152C108.28 130.099 108.456 130.029 108.616 129.944L108.664 130.92C108.269 131.101 107.795 131.192 107.24 131.192C107.037 131.192 106.824 131.165 106.6 131.112C106.387 131.059 106.189 130.957 106.008 130.808C105.827 130.659 105.677 130.456 105.56 130.2C105.443 129.944 105.384 129.608 105.384 129.192V124.472H103.8V123.512H105.384V121.4H106.44V123.512H108.6V124.472Z" fill="#181818"/>
<rect x="1" y="1" width="343" height="152" rx="12" stroke="#C4C4C4"/>
<path d="M33.16 22L27.5 16.35L21.84 22C20.28 23.56 19.5 25.64 19.5 27.64C19.5 29.64 20.28 31.75 21.84 33.31C23.4 34.87 25.45 35.66 27.5 35.66C29.55 35.66 31.6 34.87 33.16 33.31C34.72 31.75 35.5 29.64 35.5 27.64C35.5 25.64 34.72 23.56 33.16 22ZM21.5 28C21.51 26 22.12 24.73 23.26 23.6L27.5 19.27L31.74 23.65C32.88 24.77 33.49 26 33.5 28H21.5Z" fill="#6D6E71"/>
<path d="M60.264 19.672H64.072C64.616 19.672 65.1387 19.7253 65.64 19.832C66.152 19.9387 66.6 20.12 66.984 20.376C67.368 20.6213 67.672 20.9573 67.896 21.384C68.1307 21.8 68.248 22.3227 68.248 22.952C68.248 23.6667 68.1253 24.2427 67.88 24.68C67.6347 25.1173 67.304 25.4587 66.888 25.704C66.472 25.9387 65.9867 26.0987 65.432 26.184C64.888 26.2693 64.3173 26.312 63.72 26.312H62.28V31H60.264V19.672ZM63.496 24.584C63.784 24.584 64.0827 24.5733 64.392 24.552C64.7013 24.5307 64.984 24.4667 65.24 24.36C65.5067 24.2533 65.72 24.0933 65.88 23.88C66.0507 23.6667 66.136 23.368 66.136 22.984C66.136 22.632 66.0613 22.3547 65.912 22.152C65.7627 21.9387 65.5707 21.7787 65.336 21.672C65.1013 21.5547 64.84 21.48 64.552 21.448C64.264 21.416 63.9867 21.4 63.72 21.4H62.28V24.584H63.496ZM70.9204 27.832C70.9844 28.408 71.2084 28.856 71.5924 29.176C71.9764 29.496 72.4404 29.656 72.9844 29.656C73.4644 29.656 73.8644 29.56 74.1844 29.368C74.5151 29.1653 74.8031 28.9147 75.0484 28.616L76.4244 29.656C75.9764 30.2107 75.4751 30.6053 74.9204 30.84C74.3657 31.0747 73.7844 31.192 73.1764 31.192C72.6004 31.192 72.0564 31.096 71.5444 30.904C71.0324 30.712 70.5897 30.44 70.2164 30.088C69.8431 29.736 69.5444 29.3147 69.3204 28.824C69.1071 28.3227 69.0004 27.768 69.0004 27.16C69.0004 26.552 69.1071 26.0027 69.3204 25.512C69.5444 25.0107 69.8431 24.584 70.2164 24.232C70.5897 23.88 71.0324 23.608 71.5444 23.416C72.0564 23.224 72.6004 23.128 73.1764 23.128C73.7097 23.128 74.1951 23.224 74.6324 23.416C75.0804 23.5973 75.4591 23.864 75.7684 24.216C76.0884 24.568 76.3337 25.0053 76.5044 25.528C76.6857 26.04 76.7764 26.632 76.7764 27.304V27.832H70.9204ZM74.8564 26.392C74.8457 25.8267 74.6697 25.384 74.3284 25.064C73.9871 24.7333 73.5124 24.568 72.9044 24.568C72.3284 24.568 71.8697 24.7333 71.5284 25.064C71.1977 25.3947 70.9951 25.8373 70.9204 26.392H74.8564ZM78.087 23.32H80.007V24.536H80.039C80.2524 24.088 80.5564 23.7413 80.951 23.496C81.3457 23.2507 81.799 23.128 82.311 23.128C82.4284 23.128 82.5404 23.1387 82.647 23.16C82.7644 23.1813 82.8817 23.208 82.999 23.24V25.096C82.839 25.0533 82.679 25.0213 82.519 25C82.3697 24.968 82.2204 24.952 82.071 24.952C81.623 24.952 81.2604 25.0373 80.983 25.208C80.7164 25.368 80.5084 25.5547 80.359 25.768C80.2204 25.9813 80.1244 26.1947 80.071 26.408C80.0284 26.6213 80.007 26.7813 80.007 26.888V31H78.087V23.32ZM83.8529 23.32H85.7729V31H83.8529V23.32ZM83.5809 20.712C83.5809 20.4027 83.6929 20.136 83.9169 19.912C84.1516 19.6773 84.4449 19.56 84.7969 19.56C85.1489 19.56 85.4422 19.672 85.6769 19.896C85.9222 20.1093 86.0449 20.3813 86.0449 20.712C86.0449 21.0427 85.9222 21.32 85.6769 21.544C85.4422 21.7573 85.1489 21.864 84.7969 21.864C84.4449 21.864 84.1516 21.752 83.9169 21.528C83.6929 21.2933 83.5809 21.0213 83.5809 20.712ZM87.1083 27.16C87.1083 26.552 87.215 26.0027 87.4283 25.512C87.6523 25.0107 87.951 24.584 88.3243 24.232C88.6976 23.88 89.1403 23.608 89.6523 23.416C90.1643 23.224 90.7083 23.128 91.2843 23.128C91.8603 23.128 92.4043 23.224 92.9163 23.416C93.4283 23.608 93.871 23.88 94.2443 24.232C94.6176 24.584 94.911 25.0107 95.1243 25.512C95.3483 26.0027 95.4603 26.552 95.4603 27.16C95.4603 27.768 95.3483 28.3227 95.1243 28.824C94.911 29.3147 94.6176 29.736 94.2443 30.088C93.871 30.44 93.4283 30.712 92.9163 30.904C92.4043 31.096 91.8603 31.192 91.2843 31.192C90.7083 31.192 90.1643 31.096 89.6523 30.904C89.1403 30.712 88.6976 30.44 88.3243 30.088C87.951 29.736 87.6523 29.3147 87.4283 28.824C87.215 28.3227 87.1083 27.768 87.1083 27.16ZM89.0283 27.16C89.0283 27.4587 89.0763 27.7467 89.1723 28.024C89.279 28.3013 89.4283 28.5467 89.6203 28.76C89.823 28.9733 90.063 29.144 90.3403 29.272C90.6176 29.4 90.9323 29.464 91.2843 29.464C91.6363 29.464 91.951 29.4 92.2283 29.272C92.5056 29.144 92.7403 28.9733 92.9323 28.76C93.135 28.5467 93.2843 28.3013 93.3803 28.024C93.487 27.7467 93.5403 27.4587 93.5403 27.16C93.5403 26.8613 93.487 26.5733 93.3803 26.296C93.2843 26.0187 93.135 25.7733 92.9323 25.56C92.7403 25.3467 92.5056 25.176 92.2283 25.048C91.951 24.92 91.6363 24.856 91.2843 24.856C90.9323 24.856 90.6176 24.92 90.3403 25.048C90.063 25.176 89.823 25.3467 89.6203 25.56C89.4283 25.7733 89.279 26.0187 89.1723 26.296C89.0763 26.5733 89.0283 26.8613 89.0283 27.16ZM102.853 29.848H102.821C102.544 30.3173 102.17 30.6587 101.701 30.872C101.232 31.0853 100.725 31.192 100.181 31.192C99.5837 31.192 99.0504 31.0907 98.5811 30.888C98.1224 30.6747 97.7277 30.3867 97.3971 30.024C97.0664 29.6613 96.8157 29.2347 96.6451 28.744C96.4744 28.2533 96.3891 27.7253 96.3891 27.16C96.3891 26.5947 96.4797 26.0667 96.6611 25.576C96.8424 25.0853 97.0931 24.6587 97.4131 24.296C97.7437 23.9333 98.1384 23.6507 98.5971 23.448C99.0557 23.2347 99.5571 23.128 100.101 23.128C100.464 23.128 100.784 23.1653 101.061 23.24C101.338 23.3147 101.584 23.4107 101.797 23.528C102.01 23.6453 102.192 23.7733 102.341 23.912C102.49 24.04 102.613 24.168 102.709 24.296H102.757V18.904H104.677V31H102.853V29.848ZM98.3091 27.16C98.3091 27.4587 98.3571 27.7467 98.4531 28.024C98.5597 28.3013 98.7091 28.5467 98.9011 28.76C99.1037 28.9733 99.3437 29.144 99.6211 29.272C99.8984 29.4 100.213 29.464 100.565 29.464C100.917 29.464 101.232 29.4 101.509 29.272C101.786 29.144 102.021 28.9733 102.213 28.76C102.416 28.5467 102.565 28.3013 102.661 28.024C102.768 27.7467 102.821 27.4587 102.821 27.16C102.821 26.8613 102.768 26.5733 102.661 26.296C102.565 26.0187 102.416 25.7733 102.213 25.56C102.021 25.3467 101.786 25.176 101.509 25.048C101.232 24.92 100.917 24.856 100.565 24.856C100.213 24.856 99.8984 24.92 99.6211 25.048C99.3437 25.176 99.1037 25.3467 98.9011 25.56C98.7091 25.7733 98.5597 26.0187 98.4531 26.296C98.3571 26.5733 98.3091 26.8613 98.3091 27.16ZM111.304 24.952H109.72V23.32H111.304V22.232C111.304 21.6987 111.341 21.2187 111.416 20.792C111.49 20.3547 111.629 19.9813 111.832 19.672C112.045 19.3627 112.338 19.128 112.712 18.968C113.085 18.7973 113.57 18.712 114.168 18.712C114.605 18.712 115.01 18.7493 115.384 18.824L115.256 20.456C115.117 20.424 114.984 20.3973 114.856 20.376C114.728 20.3547 114.594 20.344 114.456 20.344C114.189 20.344 113.976 20.3867 113.816 20.472C113.656 20.5573 113.528 20.6747 113.432 20.824C113.346 20.9627 113.288 21.128 113.256 21.32C113.234 21.512 113.224 21.7147 113.224 21.928V23.32H115V24.952H113.224V31H111.304V24.952ZM116.248 18.904H118.168V31H116.248V18.904ZM119.231 27.16C119.231 26.552 119.338 26.0027 119.551 25.512C119.775 25.0107 120.074 24.584 120.447 24.232C120.821 23.88 121.263 23.608 121.775 23.416C122.287 23.224 122.831 23.128 123.407 23.128C123.983 23.128 124.527 23.224 125.039 23.416C125.551 23.608 125.994 23.88 126.367 24.232C126.741 24.584 127.034 25.0107 127.247 25.512C127.471 26.0027 127.583 26.552 127.583 27.16C127.583 27.768 127.471 28.3227 127.247 28.824C127.034 29.3147 126.741 29.736 126.367 30.088C125.994 30.44 125.551 30.712 125.039 30.904C124.527 31.096 123.983 31.192 123.407 31.192C122.831 31.192 122.287 31.096 121.775 30.904C121.263 30.712 120.821 30.44 120.447 30.088C120.074 29.736 119.775 29.3147 119.551 28.824C119.338 28.3227 119.231 27.768 119.231 27.16ZM121.151 27.16C121.151 27.4587 121.199 27.7467 121.295 28.024C121.402 28.3013 121.551 28.5467 121.743 28.76C121.946 28.9733 122.186 29.144 122.463 29.272C122.741 29.4 123.055 29.464 123.407 29.464C123.759 29.464 124.074 29.4 124.351 29.272C124.629 29.144 124.863 28.9733 125.055 28.76C125.258 28.5467 125.407 28.3013 125.503 28.024C125.61 27.7467 125.663 27.4587 125.663 27.16C125.663 26.8613 125.61 26.5733 125.503 26.296C125.407 26.0187 125.258 25.7733 125.055 25.56C124.863 25.3467 124.629 25.176 124.351 25.048C124.074 24.92 123.759 24.856 123.407 24.856C123.055 24.856 122.741 24.92 122.463 25.048C122.186 25.176 121.946 25.3467 121.743 25.56C121.551 25.7733 121.402 26.0187 121.295 26.296C121.199 26.5733 121.151 26.8613 121.151 27.16ZM127.856 23.32H129.936L131.6 28.696H131.632L133.184 23.32H135.264L136.928 28.696H136.96L138.56 23.32H140.496L137.888 31H135.984L134.16 25.752H134.128L132.512 31H130.528L127.856 23.32Z" fill="#181818"/>
<g clip-path="url(#clip3_1650_87617)">
<rect x="181" y="59" width="22" height="22" fill="#FFBEBF"/>
</g>
<path d="M211.896 61.544C211.395 60.808 210.664 60.44 209.704 60.44C209.405 60.44 209.112 60.4827 208.824 60.568C208.536 60.6427 208.275 60.7653 208.04 60.936C207.816 61.096 207.635 61.3093 207.496 61.576C207.357 61.832 207.288 62.136 207.288 62.488C207.288 63 207.432 63.4 207.72 63.688C208.008 63.9653 208.365 64.1947 208.792 64.376C209.219 64.5573 209.683 64.7227 210.184 64.872C210.696 65.0107 211.165 65.2027 211.592 65.448C212.019 65.6827 212.376 65.9973 212.664 66.392C212.952 66.7867 213.096 67.3253 213.096 68.008C213.096 68.52 212.984 68.984 212.76 69.4C212.547 69.8053 212.259 70.1467 211.896 70.424C211.544 70.7013 211.144 70.9147 210.696 71.064C210.259 71.2133 209.816 71.288 209.368 71.288C208.675 71.288 208.013 71.16 207.384 70.904C206.765 70.6373 206.237 70.2053 205.8 69.608L206.84 68.856C207.085 69.272 207.427 69.608 207.864 69.864C208.301 70.1093 208.819 70.232 209.416 70.232C209.704 70.232 209.992 70.1893 210.28 70.104C210.568 70.008 210.824 69.8747 211.048 69.704C211.283 69.5227 211.475 69.304 211.624 69.048C211.773 68.792 211.848 68.4987 211.848 68.168C211.848 67.7733 211.763 67.448 211.592 67.192C211.432 66.9253 211.213 66.7067 210.936 66.536C210.669 66.3547 210.36 66.2053 210.008 66.088C209.667 65.9707 209.309 65.8533 208.936 65.736C208.573 65.6187 208.216 65.4853 207.864 65.336C207.523 65.1867 207.213 65 206.936 64.776C206.669 64.5413 206.451 64.2533 206.28 63.912C206.12 63.56 206.04 63.1227 206.04 62.6C206.04 62.056 206.141 61.5813 206.344 61.176C206.557 60.7707 206.835 60.4347 207.176 60.168C207.528 59.9013 207.923 59.704 208.36 59.576C208.797 59.448 209.245 59.384 209.704 59.384C210.344 59.384 210.925 59.4853 211.448 59.688C211.971 59.8907 212.456 60.248 212.904 60.76L211.896 61.544ZM221.39 67.256C221.39 66.84 221.32 66.4507 221.182 66.088C221.054 65.7253 220.867 65.4107 220.622 65.144C220.376 64.8773 220.078 64.6693 219.726 64.52C219.384 64.36 218.995 64.28 218.558 64.28C218.12 64.28 217.72 64.36 217.358 64.52C216.995 64.6693 216.68 64.8773 216.414 65.144C216.147 65.4107 215.939 65.7253 215.79 66.088C215.64 66.4507 215.566 66.84 215.566 67.256C215.566 67.672 215.64 68.0613 215.79 68.424C215.939 68.7867 216.147 69.1013 216.414 69.368C216.68 69.6347 216.995 69.848 217.358 70.008C217.72 70.1573 218.12 70.232 218.558 70.232C218.995 70.232 219.384 70.1573 219.726 70.008C220.078 69.848 220.376 69.6347 220.622 69.368C220.867 69.1013 221.054 68.7867 221.182 68.424C221.32 68.0613 221.39 67.672 221.39 67.256ZM214.558 63.512H215.614V64.76H215.646C215.816 64.504 216.019 64.2853 216.254 64.104C216.488 63.9227 216.734 63.7733 216.99 63.656C217.246 63.5387 217.507 63.4533 217.774 63.4C218.051 63.3467 218.312 63.32 218.558 63.32C219.144 63.32 219.678 63.4213 220.158 63.624C220.648 63.816 221.07 64.088 221.422 64.44C221.774 64.792 222.046 65.208 222.238 65.688C222.44 66.168 222.542 66.6907 222.542 67.256C222.542 67.8213 222.44 68.344 222.238 68.824C222.046 69.304 221.774 69.72 221.422 70.072C221.07 70.424 220.648 70.7013 220.158 70.904C219.678 71.096 219.144 71.192 218.558 71.192C218.312 71.192 218.051 71.1653 217.774 71.112C217.507 71.0587 217.246 70.9733 216.99 70.856C216.734 70.7387 216.488 70.5893 216.254 70.408C216.019 70.2267 215.816 70.008 215.646 69.752H215.614V75.608H214.558V63.512ZM230.27 67.256C230.27 66.84 230.201 66.4507 230.062 66.088C229.934 65.7253 229.747 65.4107 229.502 65.144C229.257 64.8773 228.958 64.6693 228.606 64.52C228.265 64.36 227.875 64.28 227.438 64.28C227.001 64.28 226.606 64.36 226.254 64.52C225.913 64.6693 225.619 64.8773 225.374 65.144C225.139 65.4107 224.953 65.7253 224.814 66.088C224.686 66.4507 224.622 66.84 224.622 67.256C224.622 67.672 224.686 68.0613 224.814 68.424C224.953 68.7867 225.139 69.1013 225.374 69.368C225.619 69.6347 225.913 69.848 226.254 70.008C226.606 70.1573 227.001 70.232 227.438 70.232C227.875 70.232 228.265 70.1573 228.606 70.008C228.958 69.848 229.257 69.6347 229.502 69.368C229.747 69.1013 229.934 68.7867 230.062 68.424C230.201 68.0613 230.27 67.672 230.27 67.256ZM231.422 67.256C231.422 67.8213 231.321 68.344 231.118 68.824C230.926 69.304 230.654 69.72 230.302 70.072C229.95 70.424 229.529 70.7013 229.038 70.904C228.558 71.096 228.025 71.192 227.438 71.192C226.862 71.192 226.329 71.096 225.838 70.904C225.358 70.7013 224.942 70.424 224.59 70.072C224.238 69.72 223.961 69.304 223.758 68.824C223.566 68.344 223.47 67.8213 223.47 67.256C223.47 66.6907 223.566 66.168 223.758 65.688C223.961 65.208 224.238 64.792 224.59 64.44C224.942 64.088 225.358 63.816 225.838 63.624C226.329 63.4213 226.862 63.32 227.438 63.32C228.025 63.32 228.558 63.4213 229.038 63.624C229.529 63.816 229.95 64.088 230.302 64.44C230.654 64.792 230.926 65.208 231.118 65.688C231.321 66.168 231.422 66.6907 231.422 67.256ZM236.726 64.472H234.566V68.888C234.566 69.1653 234.592 69.3947 234.646 69.576C234.699 69.7467 234.774 69.88 234.87 69.976C234.966 70.072 235.078 70.1413 235.206 70.184C235.344 70.216 235.494 70.232 235.654 70.232C235.835 70.232 236.022 70.2053 236.214 70.152C236.406 70.0987 236.582 70.0293 236.742 69.944L236.79 70.92C236.395 71.1013 235.92 71.192 235.366 71.192C235.163 71.192 234.95 71.1653 234.726 71.112C234.512 71.0587 234.315 70.9573 234.134 70.808C233.952 70.6587 233.803 70.456 233.686 70.2C233.568 69.944 233.51 69.608 233.51 69.192V64.472H231.926V63.512H233.51V61.4H234.566V63.512H236.726V64.472ZM241.553 64.472H239.393V68.888C239.393 69.1653 239.42 69.3947 239.473 69.576C239.527 69.7467 239.601 69.88 239.697 69.976C239.793 70.072 239.905 70.1413 240.033 70.184C240.172 70.216 240.321 70.232 240.481 70.232C240.663 70.232 240.849 70.2053 241.041 70.152C241.233 70.0987 241.409 70.0293 241.569 69.944L241.617 70.92C241.223 71.1013 240.748 71.192 240.193 71.192C239.991 71.192 239.777 71.1653 239.553 71.112C239.34 71.0587 239.143 70.9573 238.961 70.808C238.78 70.6587 238.631 70.456 238.513 70.2C238.396 69.944 238.337 69.608 238.337 69.192V64.472H236.753V63.512H238.337V61.4H239.393V63.512H241.553V64.472ZM244.045 60.632C244.045 60.856 243.965 61.0427 243.805 61.192C243.645 61.3307 243.469 61.4 243.277 61.4C243.085 61.4 242.909 61.3307 242.749 61.192C242.589 61.0427 242.509 60.856 242.509 60.632C242.509 60.408 242.589 60.2267 242.749 60.088C242.909 59.9387 243.085 59.864 243.277 59.864C243.469 59.864 243.645 59.9387 243.805 60.088C243.965 60.2267 244.045 60.408 244.045 60.632ZM243.805 71H242.749V63.512H243.805V71ZM246.876 63.512C246.897 63.7147 246.908 63.9173 246.908 64.12C246.918 64.312 246.924 64.5093 246.924 64.712H246.956C247.073 64.5093 247.222 64.3227 247.404 64.152C247.585 63.9813 247.788 63.8373 248.012 63.72C248.236 63.592 248.47 63.496 248.716 63.432C248.972 63.3573 249.222 63.32 249.468 63.32C250.428 63.32 251.137 63.576 251.596 64.088C252.054 64.5893 252.284 65.3093 252.284 66.248V71H251.228V66.856C251.228 66.024 251.084 65.3893 250.796 64.952C250.508 64.504 249.974 64.28 249.196 64.28C249.142 64.28 248.993 64.3013 248.748 64.344C248.502 64.3867 248.241 64.504 247.964 64.696C247.697 64.888 247.457 65.176 247.244 65.56C247.03 65.944 246.924 66.4773 246.924 67.16V71H245.868V65.16C245.868 64.9573 245.857 64.7013 245.836 64.392C245.825 64.0827 245.809 63.7893 245.788 63.512H246.876ZM255.042 67.16C255.042 67.5547 255.111 67.928 255.25 68.28C255.399 68.6213 255.596 68.9253 255.842 69.192C256.098 69.448 256.391 69.656 256.722 69.816C257.063 69.9653 257.431 70.04 257.826 70.04C258.21 70.04 258.572 69.9707 258.914 69.832C259.266 69.6933 259.575 69.5013 259.842 69.256C260.108 69 260.311 68.696 260.45 68.344C260.599 67.992 260.668 67.5973 260.658 67.16C260.658 66.7653 260.594 66.3973 260.466 66.056C260.338 65.704 260.151 65.4 259.906 65.144C259.66 64.8773 259.362 64.6693 259.01 64.52C258.658 64.36 258.263 64.28 257.826 64.28C257.431 64.28 257.063 64.36 256.722 64.52C256.391 64.6693 256.098 64.8773 255.842 65.144C255.596 65.4 255.399 65.704 255.25 66.056C255.111 66.3973 255.042 66.7653 255.042 67.16ZM254.85 72.504C255.159 72.92 255.559 73.2507 256.05 73.496C256.551 73.752 257.106 73.88 257.714 73.88C258.247 73.88 258.7 73.8 259.074 73.64C259.447 73.4907 259.746 73.2827 259.97 73.016C260.204 72.7493 260.37 72.4347 260.466 72.072C260.572 71.72 260.626 71.3413 260.626 70.936V69.592H260.594C260.252 70.104 259.836 70.4667 259.346 70.68C258.855 70.8933 258.338 71 257.794 71C257.25 71 256.738 70.904 256.258 70.712C255.788 70.52 255.378 70.2587 255.026 69.928C254.674 69.5867 254.396 69.1813 254.194 68.712C253.991 68.2427 253.89 67.736 253.89 67.192C253.89 66.648 253.986 66.1413 254.178 65.672C254.37 65.2027 254.631 64.792 254.962 64.44C255.303 64.088 255.703 63.816 256.162 63.624C256.631 63.4213 257.143 63.32 257.698 63.32C257.922 63.32 258.156 63.3413 258.402 63.384C258.658 63.4267 258.908 63.5013 259.154 63.608C259.41 63.7147 259.66 63.864 259.906 64.056C260.151 64.2373 260.38 64.472 260.594 64.76H260.626V63.512H261.682V70.936C261.682 71.3413 261.628 71.7733 261.522 72.232C261.426 72.6907 261.228 73.112 260.93 73.496C260.642 73.88 260.236 74.2 259.714 74.456C259.191 74.712 258.508 74.84 257.666 74.84C256.919 74.84 256.252 74.7173 255.666 74.472C255.079 74.2267 254.546 73.848 254.066 73.336L254.85 72.504Z" fill="#181818"/>
<g clip-path="url(#clip4_1650_87617)">
<rect x="181" y="89" width="22" height="22" fill="#FFEBEB"/>
</g>
<path d="M214.728 99.272H214.76V89.672H215.912V101H214.472L207.72 91.304H207.688V101H206.536V89.672H207.976L214.728 99.272ZM224.536 97.256C224.536 96.84 224.467 96.4507 224.328 96.088C224.2 95.7253 224.014 95.4107 223.768 95.144C223.523 94.8773 223.224 94.6693 222.872 94.52C222.531 94.36 222.142 94.28 221.704 94.28C221.267 94.28 220.872 94.36 220.52 94.52C220.179 94.6693 219.886 94.8773 219.64 95.144C219.406 95.4107 219.219 95.7253 219.08 96.088C218.952 96.4507 218.888 96.84 218.888 97.256C218.888 97.672 218.952 98.0613 219.08 98.424C219.219 98.7867 219.406 99.1013 219.64 99.368C219.886 99.6347 220.179 99.848 220.52 100.008C220.872 100.157 221.267 100.232 221.704 100.232C222.142 100.232 222.531 100.157 222.872 100.008C223.224 99.848 223.523 99.6347 223.768 99.368C224.014 99.1013 224.2 98.7867 224.328 98.424C224.467 98.0613 224.536 97.672 224.536 97.256ZM225.688 97.256C225.688 97.8213 225.587 98.344 225.384 98.824C225.192 99.304 224.92 99.72 224.568 100.072C224.216 100.424 223.795 100.701 223.304 100.904C222.824 101.096 222.291 101.192 221.704 101.192C221.128 101.192 220.595 101.096 220.104 100.904C219.624 100.701 219.208 100.424 218.856 100.072C218.504 99.72 218.227 99.304 218.024 98.824C217.832 98.344 217.736 97.8213 217.736 97.256C217.736 96.6907 217.832 96.168 218.024 95.688C218.227 95.208 218.504 94.792 218.856 94.44C219.208 94.088 219.624 93.816 220.104 93.624C220.595 93.4213 221.128 93.32 221.704 93.32C222.291 93.32 222.824 93.4213 223.304 93.624C223.795 93.816 224.216 94.088 224.568 94.44C224.92 94.792 225.192 95.208 225.384 95.688C225.587 96.168 225.688 96.6907 225.688 97.256ZM237.92 97.256C237.92 96.84 237.851 96.4507 237.712 96.088C237.584 95.7253 237.397 95.4107 237.152 95.144C236.907 94.8773 236.608 94.6693 236.256 94.52C235.915 94.36 235.525 94.28 235.088 94.28C234.651 94.28 234.251 94.36 233.888 94.52C233.525 94.6693 233.211 94.8773 232.944 95.144C232.677 95.4107 232.469 95.7253 232.32 96.088C232.171 96.4507 232.096 96.84 232.096 97.256C232.096 97.672 232.171 98.0613 232.32 98.424C232.469 98.7867 232.677 99.1013 232.944 99.368C233.211 99.6347 233.525 99.848 233.888 100.008C234.251 100.157 234.651 100.232 235.088 100.232C235.525 100.232 235.915 100.157 236.256 100.008C236.608 99.848 236.907 99.6347 237.152 99.368C237.397 99.1013 237.584 98.7867 237.712 98.424C237.851 98.0613 237.92 97.672 237.92 97.256ZM231.088 93.512H232.144V94.76H232.176C232.347 94.504 232.549 94.2853 232.784 94.104C233.019 93.9227 233.264 93.7733 233.52 93.656C233.776 93.5387 234.037 93.4533 234.304 93.4C234.581 93.3467 234.843 93.32 235.088 93.32C235.675 93.32 236.208 93.4213 236.688 93.624C237.179 93.816 237.6 94.088 237.952 94.44C238.304 94.792 238.576 95.208 238.768 95.688C238.971 96.168 239.072 96.6907 239.072 97.256C239.072 97.8213 238.971 98.344 238.768 98.824C238.576 99.304 238.304 99.72 237.952 100.072C237.6 100.424 237.179 100.701 236.688 100.904C236.208 101.096 235.675 101.192 235.088 101.192C234.843 101.192 234.581 101.165 234.304 101.112C234.037 101.059 233.776 100.973 233.52 100.856C233.264 100.739 233.019 100.589 232.784 100.408C232.549 100.227 232.347 100.008 232.176 99.752H232.144V105.608H231.088V93.512ZM246.208 96.68C246.208 95.9653 245.995 95.3893 245.568 94.952C245.142 94.504 244.544 94.28 243.776 94.28C243.435 94.28 243.104 94.3493 242.784 94.488C242.464 94.616 242.182 94.792 241.936 95.016C241.702 95.24 241.51 95.496 241.36 95.784C241.222 96.072 241.152 96.3707 241.152 96.68H246.208ZM241.12 97.544C241.152 97.9173 241.243 98.2693 241.392 98.6C241.542 98.9307 241.739 99.2187 241.984 99.464C242.23 99.6987 242.512 99.8853 242.832 100.024C243.152 100.163 243.499 100.232 243.872 100.232C244.438 100.232 244.923 100.104 245.328 99.848C245.744 99.5813 246.059 99.2773 246.272 98.936L247.088 99.608C246.64 100.173 246.144 100.579 245.6 100.824C245.067 101.069 244.491 101.192 243.872 101.192C243.318 101.192 242.8 101.096 242.32 100.904C241.851 100.701 241.446 100.424 241.104 100.072C240.763 99.72 240.491 99.304 240.288 98.824C240.096 98.344 240 97.8213 240 97.256C240 96.6907 240.096 96.168 240.288 95.688C240.48 95.208 240.747 94.792 241.088 94.44C241.43 94.088 241.83 93.816 242.288 93.624C242.747 93.4213 243.243 93.32 243.776 93.32C244.342 93.32 244.848 93.4213 245.296 93.624C245.744 93.8267 246.118 94.0987 246.416 94.44C246.726 94.7707 246.96 95.1653 247.12 95.624C247.28 96.072 247.36 96.552 247.36 97.064V97.544H241.12ZM248.902 95.848C248.902 95.5173 248.892 95.1813 248.87 94.84C248.86 94.4987 248.849 94.056 248.838 93.512H249.878V94.904H249.91C249.985 94.7013 250.092 94.5093 250.23 94.328C250.369 94.136 250.534 93.9653 250.726 93.816C250.929 93.6667 251.158 93.5493 251.414 93.464C251.681 93.368 251.98 93.32 252.31 93.32C252.609 93.32 252.87 93.352 253.094 93.416L252.886 94.456C252.748 94.4027 252.545 94.376 252.278 94.376C251.873 94.376 251.526 94.456 251.238 94.616C250.95 94.7653 250.71 94.9627 250.518 95.208C250.326 95.4427 250.182 95.6987 250.086 95.976C250.001 96.2533 249.958 96.52 249.958 96.776V101H248.902V95.848ZM255.154 90.632C255.154 90.856 255.074 91.0427 254.914 91.192C254.754 91.3307 254.578 91.4 254.386 91.4C254.194 91.4 254.018 91.3307 253.858 91.192C253.698 91.0427 253.618 90.856 253.618 90.632C253.618 90.408 253.698 90.2267 253.858 90.088C254.018 89.9387 254.194 89.864 254.386 89.864C254.578 89.864 254.754 89.9387 254.914 90.088C255.074 90.2267 255.154 90.408 255.154 90.632ZM254.914 101H253.858V93.512H254.914V101ZM263.393 97.256C263.393 96.84 263.323 96.4507 263.185 96.088C263.057 95.7253 262.87 95.4107 262.625 95.144C262.379 94.8773 262.081 94.6693 261.729 94.52C261.387 94.36 260.998 94.28 260.561 94.28C260.123 94.28 259.729 94.36 259.377 94.52C259.035 94.6693 258.742 94.8773 258.497 95.144C258.262 95.4107 258.075 95.7253 257.937 96.088C257.809 96.4507 257.745 96.84 257.745 97.256C257.745 97.672 257.809 98.0613 257.937 98.424C258.075 98.7867 258.262 99.1013 258.497 99.368C258.742 99.6347 259.035 99.848 259.377 100.008C259.729 100.157 260.123 100.232 260.561 100.232C260.998 100.232 261.387 100.157 261.729 100.008C262.081 99.848 262.379 99.6347 262.625 99.368C262.87 99.1013 263.057 98.7867 263.185 98.424C263.323 98.0613 263.393 97.672 263.393 97.256ZM264.545 97.256C264.545 97.8213 264.443 98.344 264.241 98.824C264.049 99.304 263.777 99.72 263.425 100.072C263.073 100.424 262.651 100.701 262.161 100.904C261.681 101.096 261.147 101.192 260.561 101.192C259.985 101.192 259.451 101.096 258.961 100.904C258.481 100.701 258.065 100.424 257.713 100.072C257.361 99.72 257.083 99.304 256.881 98.824C256.689 98.344 256.593 97.8213 256.593 97.256C256.593 96.6907 256.689 96.168 256.881 95.688C257.083 95.208 257.361 94.792 257.713 94.44C258.065 94.088 258.481 93.816 258.961 93.624C259.451 93.4213 259.985 93.32 260.561 93.32C261.147 93.32 261.681 93.4213 262.161 93.624C262.651 93.816 263.073 94.088 263.425 94.44C263.777 94.792 264.049 95.208 264.241 95.688C264.443 96.168 264.545 96.6907 264.545 97.256ZM266.616 97.256C266.616 97.672 266.68 98.0613 266.808 98.424C266.947 98.7867 267.139 99.1013 267.384 99.368C267.63 99.6347 267.923 99.848 268.264 100.008C268.616 100.157 269.011 100.232 269.448 100.232C269.875 100.232 270.27 100.157 270.632 100.008C271.006 99.848 271.326 99.6347 271.592 99.368C271.859 99.1013 272.067 98.7867 272.216 98.424C272.366 98.0613 272.44 97.672 272.44 97.256C272.44 96.84 272.366 96.4507 272.216 96.088C272.067 95.7253 271.859 95.4107 271.592 95.144C271.326 94.8773 271.006 94.6693 270.632 94.52C270.27 94.36 269.875 94.28 269.448 94.28C269.011 94.28 268.616 94.36 268.264 94.52C267.923 94.6693 267.63 94.8773 267.384 95.144C267.139 95.4107 266.947 95.7253 266.808 96.088C266.68 96.4507 266.616 96.84 266.616 97.256ZM273.448 101H272.392V99.752H272.36C272.19 100.008 271.987 100.227 271.752 100.408C271.518 100.589 271.272 100.739 271.016 100.856C270.76 100.973 270.494 101.059 270.216 101.112C269.95 101.165 269.694 101.192 269.448 101.192C268.862 101.192 268.323 101.096 267.832 100.904C267.352 100.701 266.936 100.424 266.584 100.072C266.232 99.72 265.955 99.304 265.752 98.824C265.56 98.344 265.464 97.8213 265.464 97.256C265.464 96.6907 265.56 96.168 265.752 95.688C265.955 95.208 266.232 94.792 266.584 94.44C266.936 94.088 267.352 93.816 267.832 93.624C268.323 93.4213 268.862 93.32 269.448 93.32C269.694 93.32 269.95 93.3467 270.216 93.4C270.494 93.4533 270.76 93.5387 271.016 93.656C271.272 93.7733 271.518 93.9227 271.752 94.104C271.987 94.2853 272.19 94.504 272.36 94.76H272.392V88.904H273.448V101Z" fill="#181818"/>
<defs>
<clipPath id="clip0_1650_87617">
<rect x="51" y="59" width="14" height="14" rx="2.2" fill="white"/>
</clipPath>
<clipPath id="clip1_1650_87617">
<rect x="51" y="89" width="14" height="14" rx="2.2" fill="white"/>
</clipPath>
<clipPath id="clip2_1650_87617">
<rect x="51" y="119" width="14" height="14" rx="2.2" fill="white"/>
</clipPath>
<clipPath id="clip3_1650_87617">
<rect x="181" y="59" width="14" height="14" rx="2.2" fill="white"/>
</clipPath>
<clipPath id="clip4_1650_87617">
<rect x="181" y="89" width="14" height="14" rx="2.2" fill="white"/>
</clipPath>
</defs>
</svg>
