<svg width="25" height="24" viewBox="0 0 25 24" fill="none" xmlns="http://www.w3.org/2000/svg">
<path d="M12.3871 0C9.02194 0 8.60181 0.015 7.28052 0.072C5.96129 0.132 5.06323 0.333 4.27355 0.63C3.4591 0.936 2.76748 1.347 2.07897 2.014C1.39045 2.681 0.965161 3.35 0.650323 4.14C0.343742 4.905 0.135226 5.775 0.0743226 7.053C0.0123871 8.333 0 8.74 0 12C0 15.26 0.0154839 15.667 0.0743226 16.947C0.136258 18.224 0.343742 19.095 0.650323 19.86C0.966193 20.648 1.39045 21.319 2.07897 21.986C2.76748 22.652 3.45806 23.065 4.27355 23.37C5.06426 23.666 5.96232 23.869 7.28052 23.928C8.60181 23.988 9.02194 24 12.3871 24C15.7523 24 16.1724 23.985 17.4937 23.928C18.8119 23.868 19.711 23.666 20.5006 23.37C21.3141 23.064 22.0067 22.652 22.6952 21.986C23.3827 21.319 23.809 20.651 24.1239 19.86C24.4294 19.095 24.639 18.224 24.6999 16.947C24.7618 15.667 24.7742 15.26 24.7742 12C24.7742 8.74 24.7587 8.333 24.6999 7.053C24.6379 5.776 24.4294 4.904 24.1239 4.14C23.808 3.351 23.3827 2.681 22.6952 2.014C22.0067 1.347 21.3172 0.935 20.5006 0.63C19.711 0.333 18.8119 0.131 17.4937 0.072C16.1724 0.012 15.7523 0 12.3871 0ZM12.3871 2.16C15.6934 2.16 16.0877 2.176 17.3935 2.231C18.6013 2.286 19.2568 2.48 19.6924 2.646C20.2725 2.863 20.6834 3.123 21.119 3.542C21.5515 3.962 21.8199 4.361 22.0439 4.923C22.2132 5.345 22.4155 5.98 22.4702 7.15C22.529 8.416 22.5424 8.796 22.5424 12C22.5424 15.204 22.527 15.585 22.4661 16.85C22.4031 18.02 22.2018 18.655 22.0315 19.077C21.8003 19.639 21.537 20.037 21.1035 20.459C20.671 20.878 20.2529 21.138 19.679 21.355C19.2454 21.519 18.5796 21.715 17.3719 21.768C16.0568 21.825 15.6697 21.838 12.3561 21.838C9.04155 21.838 8.65445 21.823 7.34039 21.764C6.13161 21.703 5.46581 21.508 5.03226 21.343C4.4449 21.119 4.04129 20.864 3.60877 20.444C3.17419 20.025 2.89652 19.62 2.67974 19.064C2.50942 18.644 2.30916 17.999 2.24619 16.829C2.19974 15.569 2.18323 15.18 2.18323 11.985C2.18323 8.789 2.19974 8.399 2.24619 7.124C2.30916 5.954 2.50942 5.31 2.67974 4.89C2.89652 4.32 3.17419 3.93 3.60877 3.509C4.04129 3.09 4.4449 2.82 5.03226 2.611C5.46581 2.445 6.11716 2.25 7.3249 2.19C8.64103 2.145 9.02813 2.13 12.3406 2.13L12.3871 2.16ZM12.3871 5.838C8.87226 5.838 6.02632 8.598 6.02632 12C6.02632 15.405 8.87535 18.162 12.3871 18.162C15.9019 18.162 18.7479 15.402 18.7479 12C18.7479 8.595 15.8988 5.838 12.3871 5.838ZM12.3871 16C10.1058 16 8.25806 14.21 8.25806 12C8.25806 9.79 10.1058 8 12.3871 8C14.6684 8 16.5161 9.79 16.5161 12C16.5161 14.21 14.6684 16 12.3871 16ZM20.4862 5.595C20.4862 6.39 19.8194 7.035 18.9997 7.035C18.1791 7.035 17.5133 6.389 17.5133 5.595C17.5133 4.801 18.1801 4.156 18.9997 4.156C19.8183 4.155 20.4862 4.801 20.4862 5.595Z" fill="#5A9F93"/>
</svg>
