<svg xmlns="http://www.w3.org/2000/svg" viewBox="0 0 338.83 488.73"><defs><style>.cls-1{fill:#050605;}.cls-2{fill:#f8f9f9;}.cls-3{fill:#080505;}.cls-4{fill:#d22729;}</style></defs><g id="Layer_2" data-name="Layer 2"><g id="Layer_1-2" data-name="Layer 1"><path class="cls-1" d="M0,296A337.29,337.29,0,0,1,11.3,216.6c8.34-32.1,20.87-62.52,36.43-91.79C66.4,89.67,87.94,56.33,110,23.25c4.33-6.49,8.37-13.16,13.55-19,4.77-5.41,8.74-5.53,14.36-.8C152.46,15.7,166.09,29,179.48,42.57c7.9,8,16.19,15.62,24,23.77,11.42,11.94,22.09,24.5,32.66,37.17,11,13.22,23.26,25.44,33.66,39.18,23,30.37,42.57,62.74,55.27,98.89,7.06,20.09,11.74,40.71,12.86,62,.15,2.9.83,5.71.88,8.64.67,34.92-8.8,66.94-27.25,96.45-7.61,12.17-15.84,23.84-25.73,34.32C273.37,456.2,258.58,465.8,242,472.75a204.11,204.11,0,0,1-61.46,15.32c-30.07,2.62-58.85-2.6-86.32-14.9C82.34,467.85,72.06,460,62.87,450.84,31.73,419.94,11.73,383.07,4,339.7A232.06,232.06,0,0,1,.77,311.15C.51,306.09-.14,301.06,0,296ZM131.52,17.69c-4.4,5.42-8.48,10.49-12.61,15.52A398.25,398.25,0,0,0,90.5,72.29c-9.07,14.24-17.37,28.88-25.64,43.55A377.8,377.8,0,0,0,38.8,173.2c-4.75,13.11-9,26.43-13.73,39.53-9.13,25.07-13.44,51-13.88,77.58-.12,7.4.73,14.82,1.24,22.23a201.7,201.7,0,0,0,25.26,85.73c8.44,15.11,18.26,29.28,30.46,41.5S94.51,461.68,111.43,467c22.25,7,44.9,10,68,7.55,20.29-2.13,39.64-8.16,58.27-16.47,12.41-5.54,23.5-13,32.64-23.06C285,419,296.65,400.85,306.17,381.41a145.35,145.35,0,0,0,14.24-79.1A242.19,242.19,0,0,0,303.85,234c-12.75-31.52-31-59.76-51.5-86.68-9.76-12.84-21.24-24.24-31.58-36.61C206,93,191,75.56,174.35,59.58c-9.16-8.8-18.27-17.64-27-26.91C142.57,27.53,137.14,23,131.52,17.69Z"/><path class="cls-2" d="M131.52,17.69c5.62,5.27,11,9.84,15.86,15,8.7,9.27,17.81,18.11,27,26.91C191,75.56,206,93,220.77,110.69c10.34,12.37,21.82,23.77,31.58,36.61,20.46,26.92,38.75,55.16,51.5,86.68a242.19,242.19,0,0,1,16.56,68.33,145.35,145.35,0,0,1-14.24,79.1C296.65,400.85,285,419,270.38,435c-9.14,10.07-20.23,17.52-32.64,23.06-18.63,8.31-38,14.34-58.27,16.47-23.14,2.43-45.79-.54-68-7.55-16.92-5.33-31-15-43.28-27.24s-22-26.39-30.46-41.5a201.7,201.7,0,0,1-25.26-85.73c-.51-7.41-1.36-14.83-1.24-22.23.44-26.58,4.75-52.51,13.88-77.58,4.77-13.1,9-26.42,13.73-39.53a377.8,377.8,0,0,1,26.06-57.36c8.27-14.67,16.57-29.31,25.64-43.55a398.25,398.25,0,0,1,28.41-39.08C123,28.18,127.12,23.11,131.52,17.69ZM27.25,296.53c-.12,4.36.44,8.68.62,13,1.5,35.87,13.19,68.11,34.53,96.85,10.8,14.54,23.27,27.45,39.41,36.12C121,452.86,142,457.15,163.56,457.6c19,.4,37.51-3.17,55.49-9.33,14-4.8,27.23-11.1,38.53-20.86,11.64-10.06,20.71-22.26,28.88-35.21,13.73-21.73,22.23-45.23,23.35-71,1-23.64-3.25-46.57-10.9-68.9-9.81-28.59-25.15-54.21-42.68-78.61-8.91-12.39-19.94-23-29.43-34.92-19.64-24.61-42.2-46.43-64.61-68.4C155.72,64,148.76,58.18,142,52.18c-4.31-3.79-7.81-3.54-11.58.89a96.62,96.62,0,0,0-7.29,9.48C110.52,81.86,97.74,101,85.79,120.73c-18.47,30.49-34.9,61.92-45.34,96.18C32.55,242.87,27.74,269.35,27.25,296.53Z"/><path class="cls-3" d="M27.25,296.53c.49-27.18,5.3-53.66,13.2-79.62,10.44-34.26,26.87-65.69,45.34-96.18C97.74,101,110.52,81.86,123.08,62.55a96.62,96.62,0,0,1,7.29-9.48c3.77-4.43,7.27-4.68,11.58-.89,6.81,6,13.77,11.84,20.24,18.18,22.41,22,45,43.79,64.61,68.4,9.49,11.9,20.52,22.53,29.43,34.92,17.53,24.4,32.87,50,42.68,78.61,7.65,22.33,11.92,45.26,10.9,68.9-1.12,25.78-9.62,49.28-23.35,71-8.17,12.95-17.24,25.15-28.88,35.21-11.3,9.76-24.52,16.06-38.53,20.86-18,6.16-36.48,9.73-55.49,9.33-21.61-.45-42.52-4.74-61.75-15.08C85.67,433.85,73.2,420.94,62.4,406.4c-21.34-28.74-33-61-34.53-96.85C27.69,305.21,27.13,300.89,27.25,296.53Zm9.33-2.62c.57,5.52.62,11.68,1.09,17.83a169.37,169.37,0,0,0,34,90.44c13.45,18,29.64,32.2,51.91,38.46,15.69,4.41,31.57,6.91,47.83,5.8,17.52-1.19,34.28-5.87,50.46-12.62,11.33-4.72,21.8-10.88,30.2-20a186.29,186.29,0,0,0,30.81-46,120.76,120.76,0,0,0,11.82-61.75,200.89,200.89,0,0,0-11.86-55.67C272.4,222,256.13,196.92,238,172.94c-7.11-9.42-15.44-17.82-23.1-26.79-13.56-15.87-26.9-31.93-42-46.38-7.62-7.28-15.12-14.66-22.37-22.31-3.61-3.83-7.6-7.29-11.33-11-1.7-1.7-3-1.63-4.39.31-.52.75-1.15,1.41-1.68,2.14-10.5,14.35-21.34,28.47-31.42,43.11A425.13,425.13,0,0,0,53,206,269.9,269.9,0,0,0,36.58,293.91Z"/><path class="cls-4" d="M36.58,293.91A269.9,269.9,0,0,1,53,206a425.13,425.13,0,0,1,48.68-94c10.08-14.64,20.92-28.76,31.42-43.11.53-.73,1.16-1.39,1.68-2.14,1.35-1.94,2.69-2,4.39-.31,3.73,3.72,7.72,7.18,11.33,11,7.25,7.65,14.75,15,22.37,22.31,15.12,14.45,28.46,30.51,42,46.38,7.66,9,16,17.37,23.1,26.79,18.11,24,34.38,49.08,44.83,77.48a200.89,200.89,0,0,1,11.86,55.67,120.76,120.76,0,0,1-11.82,61.75,186.29,186.29,0,0,1-30.81,46c-8.4,9.11-18.87,15.27-30.2,20-16.18,6.75-32.94,11.43-50.46,12.62-16.26,1.11-32.14-1.39-47.83-5.8-22.27-6.26-38.46-20.46-51.91-38.46a169.37,169.37,0,0,1-34-90.44C37.2,305.59,37.15,299.43,36.58,293.91Zm148-119.73a67,67,0,0,0-2.32-6.4c-2.08-4.4-6.39-6.14-12-5.08-3.91.75-6.17,3.43-6.75,8.07a29,29,0,0,0,.64,9.7c3.48,16.1,13.11,28.38,24.89,39.18,3.59,3.28,5.67,2.51,8-1.91a20.63,20.63,0,0,0,.93-2c3.31-8.23,6.69-16.43,9.86-24.71A41.5,41.5,0,0,0,210.29,174c-.44-8.12-5.34-11.74-11.79-11.16a13.72,13.72,0,0,0-11,7.09C186.73,171.27,186.65,173.1,184.55,174.18Z"/><path class="cls-3" d="M184.55,174.18c2.1-1.08,2.18-2.91,3-4.26a13.72,13.72,0,0,1,11-7.09c6.45-.58,11.35,3,11.79,11.16a41.5,41.5,0,0,1-2.49,17.08c-3.17,8.28-6.55,16.48-9.86,24.71a20.63,20.63,0,0,1-.93,2c-2.32,4.42-4.4,5.19-8,1.91-11.78-10.8-21.41-23.08-24.89-39.18a29,29,0,0,1-.64-9.7c.58-4.64,2.84-7.32,6.75-8.07,5.6-1.06,9.91.68,12,5.08A67,67,0,0,1,184.55,174.18ZM191.9,217a6.38,6.38,0,0,0,2.24-2.89,257.68,257.68,0,0,0,10.74-27.3,33,33,0,0,0,1.76-12.29c-.33-6.61-4.69-9.4-10.73-7-3.44,1.35-5.52,3.86-7.06,7.12-1.06,2.24-1,5-3.17,6.75-.37-.18-.87-.25-1-.51-1.58-3.24-3.07-6.52-4.63-9.78-2-4.24-4.79-5.57-9.18-4.45-2.59.66-3.74,2.71-3.77,7a22.22,22.22,0,0,0,.39,4.31c1.77,9.43,6.09,17.76,11.55,25.49A55.14,55.14,0,0,0,191.9,217Z"/><path class="cls-2" d="M191.9,217a55.14,55.14,0,0,1-12.85-13.57c-5.46-7.73-9.78-16.06-11.55-25.49a22.22,22.22,0,0,1-.39-4.31c0-4.3,1.18-6.35,3.77-7,4.39-1.12,7.16.21,9.18,4.45,1.56,3.26,3.05,6.54,4.63,9.78.12.26.62.33,1,.51,2.14-1.73,2.11-4.51,3.17-6.75,1.54-3.26,3.62-5.77,7.06-7.12,6-2.37,10.4.42,10.73,7a33,33,0,0,1-1.76,12.29,257.68,257.68,0,0,1-10.74,27.3A6.38,6.38,0,0,1,191.9,217Z"/></g></g></svg>