<svg xmlns="http://www.w3.org/2000/svg" viewBox="0 0 281.48 572.55"><defs><style>.cls-1{fill:#0b0b0b;}.cls-2{fill:#fdfbfb;}.cls-3{fill:#f9f8f8;}.cls-4{fill:#d42c2e;}.cls-5{fill:#73c7b7;}</style></defs><g id="Layer_2" data-name="Layer 2"><g id="Layer_1-2" data-name="Layer 1"><path class="cls-1" d="M38.52,402.58c-3.6-.35-6.49-.55-9.36-.94-3.9-.52-5.65-2.45-5.95-6.46a21.8,21.8,0,0,1,0-4.35c1.34-10.26,1.31-20.6,2.11-30.89.67-8.49,1.22-17,1.74-25.47.72-11.57,1.43-23.14,2-34.71.72-14.69.09-29.37-.55-44-.8-18.26-4.18-36-11.77-52.77a67.93,67.93,0,0,0-7.52-13.22c-3.32-4.38-5.6-9.33-8-14.23a11.4,11.4,0,0,1-.82-2c-1.09-4-.49-5.19,3.57-6.3q13.38-3.63,26.85-7c7.72-1.9,15.84-2.27,23.15-5.8.47-.23.92-.51,1.72-1-1.73-3.82-3.39-7.6-5.14-11.34-4.53-9.7-9.15-19.36-13.67-29.06C29.27,96.51,27.39,78.9,28.22,61c.41-8.95,4.26-16.56,10.63-23.21,12.41-13,27.39-21.29,44.47-26.15C97.62,7.56,112,3.71,126.8,2,141.35.35,156-1,170.66,1c3,.43,6.21-.12,9.23.34,19.5,3,38.31,8.19,55.41,18.34,10.36,6.16,15.82,15.75,17.64,27.44a67.75,67.75,0,0,1,.59,18.93c-1.11,9-1.58,18-2.33,27.05-1.12,13.58-5.54,26.19-11.29,38.42a134.65,134.65,0,0,0-6.32,15.2c3,1.32,5.9.16,8.64,0,9-.59,18.11-.32,27.1-1.64,2.69-.39,5.36-.91,8.07-1.14,3.63-.32,4.8.94,3.67,4.37-4.64,14.17-7,28.91-11,43.23-3.33,11.95-4.55,24.17-5.31,36.5C264,239.62,263,251.15,262,262.69c-.61,7.81.4,15.57.75,23.35.91,20.3,3.87,40.34,7.52,60.31,1.7,9.32,4.8,18.23,7.27,27.32a29.8,29.8,0,0,1,1,3.66c.51,3.58-1,5.67-4.63,6.66a70.61,70.61,0,0,0-13.33,4.63c-3.4,1.69-3.44,1.69-2.15,5.12a262.33,262.33,0,0,1,9.21,28.47c5.19,20.73,7.61,41.7,4,63-3.47,20.76-14.24,37.28-29.48,51.41-21.82,20.24-48.23,29.57-77.07,33.41a313.23,313.23,0,0,1-44.46,2.49,113,113,0,0,1-38.84-7.17C67.07,559.78,55.24,550,45.65,537.58A103.48,103.48,0,0,1,24.2,482c-1.81-20.86,2.57-40.78,8.14-60.56C34.1,415.22,36.36,409.12,38.52,402.58ZM229.88,159.35c-.93-.24-1.28.42-1.65,1.06-1.5,1-1.71,2.71-2.31,4.18a158.91,158.91,0,0,0-7.29,24.47c-5.48,23.58-8.27,47.43-6,71.62a194.76,194.76,0,0,0,16.89,62.14c6.22,13.72,12.25,27.49,17.13,41.76,1.21,3.52,2.25,7.2,4.54,10.46,3.39-2.21,7.16-2.61,10.28-3.36-20.27-69.17-20.43-138.55-5.13-208.8-7.49,1.3-14.27.36-21-.9,1-.4,2-1.19,2.94-1.12,6.6.54,13.2.4,19.8.53,1.07,0,1.46.86,1.89,1.64a4.39,4.39,0,0,1-.09,3.17c-4.33,15.21-5.87,30.91-8,46.49-1.41,10.22-1.88,20.54-2.49,30.84a333.77,333.77,0,0,0-.25,35.36,447.23,447.23,0,0,0,7.19,59.21c1.26,6.9,3,13.71,3.82,20.76a47.43,47.43,0,0,0,3,10.77c1.09,2.88-.27,3.83-2.5,4.71-2.82,1.12-5.6,2.35-8.6,3.61.83,2.19,1.38,4.2,2.79,5.89,5.19-2.43,10.17-4.65,15.58-5.47,2.79-.43,3.06-1.51,2.29-4-2.86-9.16-5.86-18.3-7.42-27.82-3-18.38-5.93-36.75-7.28-55.38-1.05-14.66-1.69-29.25-.5-43.9.73-9,1.59-18,2.1-27a164.43,164.43,0,0,1,5.14-31.55c3.19-12.44,6-25,9.14-38.21a117.59,117.59,0,0,1-18.15.21c-6.71-.32-13.46.06-20.12-.61-3.09-.31-4.21.61-5,3.1-.51,1.55-1.24,3-1.75,4.56C228.62,158.54,229.09,159.1,229.88,159.35Zm-191,174.26c.12,0,.34-.09.34-.13a4,4,0,0,0-.1-.68c.63-9.77,1.06-19.54,1.56-29.31.95-18.69-.37-37.31-1.32-55.93C38.92,240,37.4,232.49,36.18,225c-.82-5-1.13-10.23-3.61-14.73-5.25-9.54-9.58-19.5-13.89-29.49-1.46-3.39-1.42-4,2.19-4.88,6.68-1.65,13.43-3,20.13-4.59,6.44-1.53,12.85-3.22,19.07-4.78.26-2.12-.65-3.37-1.12-4.71-1.42-4.07-1.48-4-5.82-2.83-10.83,3-21.68,5.91-32.51,8.93-5.15,1.44-10.26,3-15.52,4.6a53.51,53.51,0,0,0,6.35,12c10.7,14.29,16.21,30.65,19.52,47.94s3.34,35,3.47,52.53c.14,18.29-.79,36.6-1.52,54.9-.42,10.48-1.64,20.93-2,31.41-.27,8.07-1.18,16.08-1.89,24.58,3.28,0,6.17,0,9.06,0,2.68-.06,4.41-1.21,4.48-4.36-1.16-.21-2.22-.38-3.28-.58s-3,.12-2.81-1.66,2-.89,3.15-1a1,1,0,0,1,.53.1c3.35,1.8,4.46-.16,5.28-3a55.82,55.82,0,0,1,2.2-5.56c8.46-20.63,17.14-41.15,23.05-62.75A215.94,215.94,0,0,0,78,243.36c-1.08-14.32-4.35-28.28-7.58-42.23-2.25-9.72-4.79-19.36-7.77-28.88-.75-2.4-1.57-3.07-4.2-2.25-11.41,3.59-22.91,6.87-34.88,8-2.09.2-2.42,1.27-1.65,2.92,2.68,5.75,4.11,12,7.3,17.56A86.58,86.58,0,0,1,41,237.19a188.19,188.19,0,0,0,2.41,19.38,49.77,49.77,0,0,1,.85,8.08c0,6.88-.38,13.81.26,20.64,1.07,11.65,0,23.22-.87,34.75-1.33,18-3.52,36-5.35,54l-1.69,0,.18-4.35c.12-.05.34-.1.34-.15a4.1,4.1,0,0,0-.12-.7C37.8,357.07,38.91,345.37,38.83,333.61ZM124.47,564c18.55-.37,32.67-1,46.61-3.52,26.09-4.69,49.57-14.59,68.56-33.88,10.91-11.08,19.79-23.14,22.84-38.75a113,113,0,0,0,1.68-30.28,176.16,176.16,0,0,0-7.55-41c-3.43-10.72-7.11-21.33-11.56-31.66-7.54-17.49-13-35.78-21.05-53.08-13.8-29.66-21.45-60.68-20.21-93.71a274.4,274.4,0,0,1,8.49-59c4.7-18,12.93-34.62,20.23-51.58,4.84-11.23,9.28-22.44,10.15-34.79.54-7.57,1.14-15.15,2.09-22.68a96.81,96.81,0,0,0,.48-17.35c-.66-12.2-6-21.46-17-27.14-2.42-1.25-4.82-2.53-7.31-3.64-13-5.78-26.25-10.44-40.45-12.09-8-.93-15.9-.43-23.86.06-9.76.59-19.46,1.67-29.15,2.91-18.39,2.34-36,7.9-53.93,12.44C62.62,28,54.42,34.3,46.5,41.65c-8.11,7.52-11,16.61-10.32,27.41,1,16.48,4.43,32.17,11.76,47.13,6.21,12.68,12.6,25.31,17.66,38.55,7.53,19.73,12.29,40.19,16.63,60.79a213.87,213.87,0,0,1,2.84,70.23c-3.28,27-11.63,52.69-22.14,77.69-8.71,20.73-17.69,41.38-23.86,63.05-5.06,17.8-8.94,35.85-7.19,54.64,1.61,17.33,6.7,33.32,17.11,47.46,11.92,16.2,26.91,27.66,47,32C106.89,562.9,117.77,564.29,124.47,564Z"/><path class="cls-2" d="M124.47,564c-6.7.3-17.58-1.09-28.47-3.42-20.1-4.31-35.09-15.77-47-32-10.41-14.14-15.5-30.13-17.11-47.46C30.13,462.35,34,444.3,39.07,426.5c6.17-21.67,15.15-42.32,23.86-63.05,10.51-25,18.86-50.68,22.14-77.69a213.87,213.87,0,0,0-2.84-70.23c-4.34-20.6-9.1-41.06-16.63-60.79-5.06-13.24-11.45-25.87-17.66-38.55-7.33-15-10.77-30.65-11.76-47.13-.64-10.8,2.21-19.89,10.32-27.41C54.42,34.3,62.62,28,73.5,25.21c17.9-4.54,35.54-10.1,53.93-12.44,9.69-1.24,19.39-2.32,29.15-2.91,8-.49,15.89-1,23.86-.06,14.2,1.65,27.49,6.31,40.45,12.09,2.49,1.11,4.89,2.39,7.31,3.64,11,5.68,16.37,14.94,17,27.14A96.81,96.81,0,0,1,244.75,70c-.95,7.53-1.55,15.11-2.09,22.68-.87,12.35-5.31,23.56-10.15,34.79-7.3,17-15.53,33.58-20.23,51.58a274.4,274.4,0,0,0-8.49,59c-1.24,33,6.41,64,20.21,93.71,8.06,17.3,13.51,35.59,21.05,53.08,4.45,10.33,8.13,20.94,11.56,31.66a176.16,176.16,0,0,1,7.55,41,113,113,0,0,1-1.68,30.28c-3.05,15.61-11.93,27.67-22.84,38.75-19,19.29-42.47,29.19-68.56,33.88C157.14,563,143,563.62,124.47,564Zm-42.42-24.6a3.89,3.89,0,0,0,3.6,1.35,6.7,6.7,0,0,0-3.35-2.85,29.91,29.91,0,0,0-9.1-7.32A22.25,22.25,0,0,0,82.05,539.39ZM119.83,551c-6.09-.45-12.11-1.42-18.2-2.16,2.8,2.16,6.11,2.62,9.47,3,4.11,2,8.3.77,12.51.41C122.38,551.5,121.29,550.61,119.83,551ZM58.1,512.41c.48,1.43,1.06,2.76,3.06,3.17-.34-1.81-.54-3.16-1.91-3.92l-6.86-15.29C52.64,502.39,55.27,507.44,58.1,512.41ZM196.12,302c-.79-5.41-1.79-10.75-5-15.41-.19,5.38,2.18,10.19,3.47,15.23a9,9,0,0,0,2.93,6.39C197.65,306,198.32,303.7,196.12,302ZM86.06,349.61a7.25,7.25,0,0,0-1.87,5.27c1.37-1.49,2.39-2.43,2.55-3.92a45.23,45.23,0,0,0,4.75-9.06c2.63-6.35,2.59-6.37,1.7-9.29A155.69,155.69,0,0,0,86.06,349.61ZM99.46,274c0,1.5-.66,3.29,1.92,3.79a13.84,13.84,0,0,0,.17-6.06c.27-5.95.72-11.91-1.78-17.6A107.29,107.29,0,0,0,99.46,274ZM50.25,437.14c2.61-6.28,5.13-12.59,6.06-19.43-3.9,5.27-5.19,11.59-7.07,17.68a5.8,5.8,0,0,0-1,1.7c-.16.85-.91,2.29.65,2.37C50,439.52,50.4,438.28,50.25,437.14ZM226,392.43c.07,1.22.34,2.76,1.76,2.38.8-.21.38-1.9-.23-2.85-.09-.13-.3-.19-.45-.28-1.69-6.24-3.44-12.46-7-18.07-1.16.84-1.19,1.38-1,1.89C220.88,381.36,223.64,386.82,226,392.43ZM207.23,140.08a9.16,9.16,0,0,0-1.64,6.1,3.31,3.31,0,0,0,2.77-3.14c6.67-13.67,6.67-13.67,5.79-17.54C210.89,130,209.28,135.14,207.23,140.08ZM68.6,392.76c-1.35,1.4-1.25,3.06-1.19,5.42,1.86-1.51,2.65-2.75,2.51-4.51l4.31-9.95c3-7,3-7,2.53-10A60.53,60.53,0,0,0,68.6,392.76Zm141-48.7c-.87-5-2.84-9.65-4.8-14.28-.42-1-1.22-2.08-2.47-1.38-.84.46-.66,1.64-.34,2.46,2.3,6,3.85,12.37,7.09,18,.08.69.32,1.67.91,1.64.95,0,.47-1.1.54-1.7a5.32,5.32,0,0,0-.23-1.51c-.23-1.11-.47-2.21-.7-3.32h.25ZM239.16,431c-.91-3.68-1.75-7.38-2.77-11-.27-.93-.74-2.34-2.11-2.06s-1,1.6-.8,2.65c1.44,6.52,2.85,13.06,4.36,19.57a34.88,34.88,0,0,0,1.63,4.33,41,41,0,0,0-.15-12.63c.1-.09.3-.24.29-.26C239.48,431.32,239.31,431.14,239.16,431ZM148.79,339.2c6.37-.21,8.67-1.68,8-6.05-.61-3.82.42-8-2.31-11.45-.61-.76-1-1.93-.28-2.49,2.35-1.91,1.49-4.79,1.84-7,.44-2.77,1.75-6.68-2.88-8.49-1.29-.5-4.45-2.39-1.06-5.36,2-1.77,1-6.18-1.51-7.46-3.4-1.7-2.17-3.68-.91-5.61,1.74-2.65,4.48-4.79,3.16-8.62a2.68,2.68,0,0,1,.92-2.4c3.05-1.82,1.79-3.47.3-5.6a9.4,9.4,0,0,1-1.77-5.2c0-1.52,2.16-1.51,3.48-2A1.91,1.91,0,0,0,157,259.8c.5-3.39,4.22-6.15,2-10.12a1.6,1.6,0,0,1,.35-1.47c3.07-2.88,5.51-6.32,8.33-9.4,2.06-2.26,5-3.58,7.36-5.79,3.59-3.39,5.42-6.81,3.59-11.49-.66-1.72-.5-2.46.4-3.65a8.33,8.33,0,0,0,.81-9.22c-1.6-2.55-1.88-5.3-3-7.85-.63-1.46-.74-2.69-2.71-2.45-1.43.17-1.72-.42-1.49-1.92.78-5.23-.05-6.18-4.87-5.49a10,10,0,0,1-6.22-1.28c-6.43-3.49-15.24-3.28-20.07,1.19-1.68,1.56-2.75,2-5,1.19-4.37-1.5-6.68-.15-9.54,3.61-2.46,3.23-3.47,7.21-6.62,10.23a12.34,12.34,0,0,0-3.62,9.89c.24,2.41,1.85,4.14,3.88,4.11,4.08-.08,5.22-4.71,8.86-5.6a3.4,3.4,0,0,0,2.62-2.44,9.93,9.93,0,0,0-.07-1.07c.18-2.92,3.78-3,4.56-5.4,3.8,1.8,7.06-.91,9.84-2.22,3.61-1.69,6.62-.06,9.83-.18,1.76-.07,4.1,1.46,5.15,3.52A72.22,72.22,0,0,0,164.8,213c1.72,2.67-3,3.74-3.05,6.1-.05,3.41-3.53,3.67-4.6,6-.87,1.85-1.83,2.11-3.19.56-.7-.8-2-1.12-2.18-.2-.46,2.29-5.34,3.67-1.42,7,1,.85,0,2-1.06,2.54s-2.54.21-2.58,1.56c-.07,2.83-2.47,3.9-4,5.38-1.84,1.74-2.64,4.09-4.22,6-.49.58,1,3,1.79,4.44.65,1.27.82,2.12-.49,3.23-2.71,2.31-4.28,5.75-7.43,7.71-1.42.88-2,2.38-2.76,3.9-.9,1.9-.15,4.74-3.31,5.57-1.08.29-.13,1.83.41,2.79,2.07,3.67,3.57,7.83,3,11.82-.72,5.52,3.64,10.82.32,16.26a.86.86,0,0,0,0,.54c1.29,4.38-.72,9.36,2.46,13.4a1.74,1.74,0,0,1-.11,2c-1.39,2.53.05,4.19,1.7,5.77a23.34,23.34,0,0,0,4.05,3.56,3.32,3.32,0,0,1,1.79,3C140.68,337.48,143,339.39,148.79,339.2ZM156,375.61c-2.89.66-6,2.8-9.65,3.32-.73.1-1.11.68-1.41,1.43-1.45,3.6-2.83,7.25-4.56,10.73-3.62,7.28-3.22,9.19,3.42,15.35,1.53,1.43,3.13,2.6,5.54.28,1.11-1.07,3.46-1.84,5.31-2.46,4.08-1.38,7.68-3.09,9.1-7.61a3.23,3.23,0,0,1,2.42-2c3.23-.62,2.35-4.06,4.12-5.8,1.29-1.26-1.27-2.4-2.08-3.62a11.62,11.62,0,0,1-1.26-2.39C164.89,377.09,162.86,375.65,156,375.61ZM97.94,38.94c-10,.88-17.75,4.35-21.26,9.59C84.74,45.9,91.93,43.82,97.94,38.94ZM152.23,27.2c7.89,1.3,15.78,1.55,23.45-1.32C167.81,24.89,160,24.24,152.23,27.2ZM83.32,163.44a50.24,50.24,0,0,0-4.62-18c-.38-.79-1-1.73-2.06-1.13s-.7,1.54-.47,2.42C77.62,152.29,79.3,157.73,83.32,163.44Zm103.46,75.9c-2.09,7.74-1.09,18.24,1.47,21.45C188.57,253.56,189.41,246.3,186.78,239.34Zm52.9,252c4.66-5.21,5.67-12.32,3.72-21.86C242.07,477.3,240.87,484.32,239.68,491.34ZM228.54,53.91c-.37-4.3-1.19-7.7-3.48-10.61-1-1.29-2.11-2.5-3.81-2.77-1-.16-2.23-.66-2.81.67-.45,1,.35,1.76,1.07,2.2,2.11,1.31,3,3.48,4.31,5.42C225,50.56,225.8,52.61,228.54,53.91ZM97.71,235.1c.68-14.39-.17-19.54-3.49-21.71C95.21,220.79,95.16,228.12,97.71,235.1ZM61.63,97.68,58.84,77.53C56.12,84.81,57.54,91.45,61.63,97.68ZM233.51,507.84c-4.87,5-10.49,9.14-14.56,14.8C226.05,519.86,230.37,514.39,233.51,507.84ZM130.81,31.08c-7.77-1.17-14,.22-17.24,3.76C120,35.48,125.41,33.08,130.81,31.08Zm33.75,516.37c-7.25-.87-15.76.87-18.8,3.59A37.23,37.23,0,0,0,164.56,547.45ZM71.87,128.19c0-7-3.21-14.6-7.72-17.23C66.05,117.36,67.57,123.08,71.87,128.19ZM191.4,201.65c-3.47,5.52-3.26,11.65-2.68,17.83A36.2,36.2,0,0,0,191.4,201.65Zm9.34-39.71c-3.43,3.56-5.86,12.19-5.18,18.22C198.45,174.25,199.53,168.3,200.74,161.94ZM49.25,478.41c.3-6.94-1.41-12.43-2.83-18A27.64,27.64,0,0,0,49.25,478.41Zm52.21-181.93c-3.23,5.06-4.56,13.66-3.22,18.87C100.47,309.42,102.34,303.66,101.46,296.48Zm92.61-268.4c6.83,4.23,10.37,5.24,14.63,4.43C204.46,28.57,200.64,27.32,194.07,28.08Zm-127.46,26c-6.58,2.66-8.94,6.67-8,13.61C61.29,62.75,64,58.48,66.61,54.11ZM229.4,67.29c-.42,6-.79,11.09-1.18,16.58A13.24,13.24,0,0,0,229.4,67.29Zm-27,466.16c-6.18,1.49-12.13,4.29-15.21,7.14C193.14,540.05,196.75,538.36,202.41,533.45ZM88.47,178c-1.54,5.85.52,11.16,2.29,16.51C90.72,188.88,91,183.22,88.47,178Zm131.3-66.76c3.54-3.37,4.53-6.79,5.48-10.22.24-.86.41-1.89-.66-2.32s-1.65.44-2,1.24A27.91,27.91,0,0,0,219.77,111.22Z"/><path class="cls-3" d="M36.74,369.63,36.56,374c-1.35,3.73-.35,7.62-.69,11.47,2-3.55,2.38-7.44,2.38-11.41,1.83-18,4-36,5.35-54,.85-11.53,1.94-23.1.87-34.75-.64-6.83-.24-13.76-.26-20.64a49.77,49.77,0,0,0-.85-8.08A188.19,188.19,0,0,1,41,237.19a86.58,86.58,0,0,0-11.73-38.68C26,193,24.6,186.7,21.92,181c-.77-1.65-.44-2.72,1.65-2.92,12-1.16,23.47-4.44,34.88-8,2.63-.82,3.45-.15,4.2,2.25,3,9.52,5.52,19.16,7.77,28.88,3.23,14,6.5,27.91,7.58,42.23a215.94,215.94,0,0,1-7.3,73.72c-5.91,21.6-14.59,42.12-23.05,62.75a55.82,55.82,0,0,0-2.2,5.56c-.82,2.83-1.93,4.79-5.28,3a1,1,0,0,0-.53-.1c-1.15.11-2.94-.72-3.15,1s1.65,1.44,2.81,1.66,2.12.37,3.28.58c-.07,3.15-1.8,4.3-4.48,4.36-2.89.05-5.78,0-9.06,0,.71-8.5,1.62-16.51,1.89-24.58.35-10.48,1.57-20.93,2-31.41.73-18.3,1.66-36.61,1.52-54.9-.13-17.54-.15-35.17-3.47-52.53s-8.82-33.65-19.52-47.94a53.51,53.51,0,0,1-6.35-12c5.26-1.56,10.37-3.16,15.52-4.6,10.83-3,21.68-5.95,32.51-8.93,4.34-1.2,4.4-1.24,5.82,2.83.47,1.34,1.38,2.59,1.12,4.71-6.22,1.56-12.63,3.25-19.07,4.78-6.7,1.59-13.45,2.94-20.13,4.59-3.61.88-3.65,1.49-2.19,4.88,4.31,10,8.64,19.95,13.89,29.49,2.48,4.5,2.79,9.74,3.61,14.73,1.22,7.5,2.74,15,3.13,22.57.95,18.62,2.27,37.24,1.32,55.93-.5,9.77-.93,19.54-1.55,29.3a2.9,2.9,0,0,0-.38.11,5.55,5.55,0,0,0,.13.71c.08,11.76-1,23.46-1.87,35.16a2,2,0,0,0-.38.14A6.2,6.2,0,0,0,36.74,369.63Z"/><path class="cls-3" d="M235.36,162c6.75,1.27,13.53,2.21,21,.91-15.3,70.25-15.14,139.63,5.13,208.8-3.12.75-6.89,1.15-10.28,3.36-2.29-3.26-3.33-6.94-4.54-10.46-4.88-14.27-10.91-28-17.13-41.76a194.76,194.76,0,0,1-16.89-62.14c-2.31-24.19.48-48,6-71.62a158.91,158.91,0,0,1,7.29-24.47c.6-1.47.81-3.2,2.29-4.18A19.1,19.1,0,0,0,235.36,162Z"/><path class="cls-3" d="M229.88,159.35c-.79-.25-1.26-.81-1-1.6.51-1.54,1.24-3,1.75-4.56.81-2.49,1.93-3.41,5-3.1,6.66.67,13.41.29,20.12.61a117.59,117.59,0,0,0,18.15-.21c-3.15,13.23-5.95,25.77-9.14,38.21a164.43,164.43,0,0,0-5.14,31.55c-.51,9-1.37,18-2.1,27-1.19,14.65-.55,29.24.5,43.9,1.35,18.63,4.26,37,7.28,55.38,1.56,9.52,4.56,18.66,7.42,27.82.77,2.49.5,3.57-2.29,4-5.41.82-10.39,3-15.58,5.47-1.41-1.69-2-3.7-2.79-5.89,3-1.26,5.78-2.49,8.6-3.61,2.23-.88,3.59-1.83,2.5-4.71a47.43,47.43,0,0,1-3-10.77c-.77-7.05-2.56-13.86-3.82-20.76a447.23,447.23,0,0,1-7.19-59.21,333.77,333.77,0,0,1,.25-35.36c.61-10.3,1.08-20.62,2.49-30.84,2.16-15.58,3.7-31.28,8-46.49A4.42,4.42,0,0,0,260,163a2.78,2.78,0,0,0,1-2.58A244.11,244.11,0,0,1,229.88,159.35Z"/><path class="cls-4" d="M229.88,159.35a244.11,244.11,0,0,0,31.18,1.11,2.78,2.78,0,0,1-1,2.58c-.44-.79-.83-1.62-1.9-1.65-6.6-.13-13.2,0-19.8-.53-.94-.07-2,.72-3,1.11a19.11,19.11,0,0,1-7.17-1.56C228.6,159.77,229,159.11,229.88,159.35Z"/><path class="cls-5" d="M38.25,374c0,4-.37,7.86-2.38,11.41.34-3.85-.66-7.74.69-11.47C37.12,374,37.69,374,38.25,374Z"/><path class="cls-5" d="M38.83,333.61a5.55,5.55,0,0,1-.13-.71,2.9,2.9,0,0,1,.38-.11,5.68,5.68,0,0,1,.09.69S39,333.57,38.83,333.61Z"/><path class="cls-5" d="M36.74,369.63a6.2,6.2,0,0,1-.16-.72,2,2,0,0,1,.38-.14,4.39,4.39,0,0,1,.12.71S36.86,369.58,36.74,369.63Z"/><path class="cls-4" d="M148.79,339.2c-5.78.19-8.11-1.72-8.81-7.45a3.32,3.32,0,0,0-1.79-3,23.34,23.34,0,0,1-4.05-3.56c-1.65-1.58-3.09-3.24-1.7-5.77a1.74,1.74,0,0,0,.11-2c-3.18-4-1.17-9-2.46-13.4a.86.86,0,0,1,0-.54c3.32-5.44-1-10.74-.32-16.26.52-4-1-8.15-3-11.82-.54-1-1.49-2.5-.41-2.79,3.16-.83,2.41-3.67,3.31-5.57.72-1.52,1.34-3,2.76-3.9,3.15-2,4.72-5.4,7.43-7.71,1.31-1.11,1.14-2,.49-3.23-.76-1.48-2.28-3.86-1.79-4.44,1.58-1.87,2.38-4.22,4.22-6,1.56-1.48,4-2.55,4-5.38,0-1.35,1.68-1.07,2.58-1.56s2.07-1.69,1.06-2.54c-3.92-3.28,1-4.66,1.42-7,.18-.92,1.48-.6,2.18.2,1.36,1.55,2.32,1.29,3.19-.56,1.07-2.28,4.55-2.54,4.6-6,0-2.36,4.77-3.43,3.05-6.1a72.22,72.22,0,0,1-3.48-6.47c-1-2.06-3.39-3.59-5.15-3.52-3.21.12-6.22-1.51-9.83.18-2.78,1.31-6,4-9.84,2.22-.78,2.43-4.38,2.48-4.56,5.4a9.93,9.93,0,0,1,.07,1.07,3.4,3.4,0,0,1-2.62,2.44c-3.64.89-4.78,5.52-8.86,5.6-2,0-3.64-1.7-3.88-4.11a12.34,12.34,0,0,1,3.62-9.89c3.15-3,4.16-7,6.62-10.23,2.86-3.76,5.17-5.11,9.54-3.61,2.27.78,3.34.37,5-1.19,4.83-4.47,13.64-4.68,20.07-1.19a10,10,0,0,0,6.22,1.28c4.82-.69,5.65.26,4.87,5.49-.23,1.5.06,2.09,1.49,1.92,2-.24,2.08,1,2.71,2.45,1.1,2.55,1.38,5.3,3,7.85a8.33,8.33,0,0,1-.81,9.22c-.9,1.19-1.06,1.93-.4,3.65,1.83,4.68,0,8.1-3.59,11.49-2.33,2.21-5.3,3.53-7.36,5.79-2.82,3.08-5.26,6.52-8.33,9.4a1.6,1.6,0,0,0-.35,1.47c2.22,4-1.5,6.73-2,10.12a1.91,1.91,0,0,1-1.22,1.66c-1.32.48-3.45.47-3.48,2a9.4,9.4,0,0,0,1.77,5.2c1.49,2.13,2.75,3.78-.3,5.6a2.68,2.68,0,0,0-.92,2.4c1.32,3.83-1.42,6-3.16,8.62-1.26,1.93-2.49,3.91.91,5.61,2.54,1.28,3.52,5.69,1.51,7.46-3.39,3-.23,4.86,1.06,5.36,4.63,1.81,3.32,5.72,2.88,8.49-.35,2.23.51,5.11-1.84,7-.69.56-.33,1.73.28,2.49,2.73,3.4,1.7,7.63,2.31,11.45C157.46,337.52,155.16,339,148.79,339.2Z"/><path class="cls-4" d="M156,375.61c6.82,0,8.85,1.48,11,7.21a11.62,11.62,0,0,0,1.26,2.39c.81,1.22,3.37,2.36,2.08,3.62-1.77,1.74-.89,5.18-4.12,5.8a3.23,3.23,0,0,0-2.42,2c-1.42,4.52-5,6.23-9.1,7.61-1.85.62-4.2,1.39-5.31,2.46-2.41,2.32-4,1.15-5.54-.28-6.64-6.16-7-8.07-3.42-15.35,1.73-3.48,3.11-7.13,4.56-10.73.3-.75.68-1.33,1.41-1.43C150,378.41,153.15,376.27,156,375.61Z"/><path class="cls-1" d="M239.32,431.78a41,41,0,0,1,.15,12.63,34.88,34.88,0,0,1-1.63-4.33c-1.51-6.51-2.92-13.05-4.36-19.57-.24-1.05-.69-2.34.8-2.65s1.84,1.13,2.11,2.06c1,3.65,1.86,7.35,2.77,11,0,0-.18.47-.18.47Z"/><path class="cls-1" d="M97.94,38.94c-6,4.88-13.2,7-21.26,9.59C80.19,43.29,88,39.82,97.94,38.94Z"/><path class="cls-1" d="M152.23,27.2c7.72-3,15.58-2.31,23.45-1.32C168,28.75,160.12,28.5,152.23,27.2Z"/><path class="cls-1" d="M209.09,348.89c-3.24-5.66-4.79-12-7.09-18-.32-.82-.5-2,.34-2.46,1.25-.7,2,.4,2.47,1.38,2,4.63,3.93,9.27,4.8,14.28V344c.23,1.11.47,2.21.7,3.31C209.9,347.83,209.5,348.36,209.09,348.89Z"/><path class="cls-1" d="M83.32,163.44c-4-5.71-5.7-11.15-7.15-16.69-.23-.88-.49-1.89.47-2.42s1.68.34,2.06,1.13A50.24,50.24,0,0,1,83.32,163.44Z"/><path class="cls-1" d="M186.78,239.34c2.63,7,1.79,14.22,1.47,21.45C185.69,257.58,184.69,247.08,186.78,239.34Z"/><path class="cls-1" d="M239.68,491.34c1.19-7,2.39-14,3.72-21.86C245.35,479,244.34,486.13,239.68,491.34Z"/><path class="cls-1" d="M228.54,53.91c-2.74-1.3-3.57-3.35-4.72-5.09-1.27-1.94-2.2-4.11-4.31-5.42-.72-.44-1.52-1.18-1.07-2.2.58-1.33,1.82-.83,2.81-.67,1.7.27,2.79,1.48,3.81,2.77C227.35,46.21,228.17,49.61,228.54,53.91Z"/><path class="cls-1" d="M97.71,235.1c-2.55-7-2.5-14.31-3.49-21.71C97.54,215.56,98.39,220.71,97.71,235.1Z"/><path class="cls-1" d="M61.63,97.68c-4.09-6.23-5.51-12.87-2.79-20.15Z"/><path class="cls-1" d="M233.51,507.84c-3.14,6.55-7.46,12-14.56,14.8C223,517,228.64,512.8,233.51,507.84Z"/><path class="cls-1" d="M130.81,31.08c-5.4,2-10.79,4.4-17.24,3.76C116.83,31.3,123,29.91,130.81,31.08Z"/><path class="cls-1" d="M164.56,547.45a37.23,37.23,0,0,1-18.8,3.59C148.8,548.32,157.31,546.58,164.56,547.45Z"/><path class="cls-1" d="M71.87,128.19c-4.3-5.11-5.82-10.83-7.72-17.23C68.66,113.59,71.88,121.14,71.87,128.19Z"/><path class="cls-1" d="M191.4,201.65a36.2,36.2,0,0,1-2.68,17.83C188.14,213.3,187.93,207.17,191.4,201.65Z"/><path class="cls-1" d="M68.6,392.76a60.53,60.53,0,0,1,8.16-19c.49,3,.49,3-2.53,10l-4.31,9.95Z"/><path class="cls-1" d="M207.23,140.08c2.05-4.94,3.66-10.1,6.92-14.58.88,3.87.88,3.87-5.79,17.53C206.29,142.7,207.9,141,207.23,140.08Z"/><path class="cls-1" d="M226,392.43c-2.4-5.61-5.16-11.07-7-16.93-.16-.51-.13-1.05,1-1.89,3.57,5.61,5.32,11.83,7,18.06Z"/><path class="cls-1" d="M200.74,161.94c-1.21,6.36-2.29,12.31-5.18,18.22C194.88,174.13,197.31,165.5,200.74,161.94Z"/><path class="cls-1" d="M49.24,435.39c1.88-6.09,3.17-12.41,7.07-17.68-.93,6.84-3.45,13.15-6.06,19.43C49.29,436.91,49.72,435.89,49.24,435.39Z"/><path class="cls-1" d="M99.46,274a107.29,107.29,0,0,1,.31-19.87c2.5,5.69,2,11.65,1.78,17.6C100.66,272.28,101,274,99.46,274Z"/><path class="cls-1" d="M49.25,478.41a27.64,27.64,0,0,1-2.83-18C47.84,466,49.55,471.47,49.25,478.41Z"/><path class="cls-1" d="M101.46,296.48c.88,7.18-1,12.94-3.22,18.87C96.9,310.14,98.23,301.54,101.46,296.48Z"/><path class="cls-1" d="M194.07,28.08c6.57-.76,10.39.49,14.63,4.43C204.44,33.32,200.9,32.31,194.07,28.08Z"/><path class="cls-1" d="M86.06,349.61a155.69,155.69,0,0,1,7.13-17c.89,2.92.93,2.94-1.7,9.29A44.89,44.89,0,0,1,86.74,351,1.36,1.36,0,0,0,86.06,349.61Z"/><path class="cls-1" d="M66.61,54.11c-2.62,4.37-5.32,8.64-8,13.61C57.67,60.78,60,56.77,66.61,54.11Z"/><path class="cls-1" d="M194.55,301.85c-1.29-5-3.66-9.85-3.47-15.23,3.25,4.66,4.25,10,5,15.41A1.23,1.23,0,0,0,194.55,301.85Z"/><path class="cls-1" d="M229.4,67.29a13.24,13.24,0,0,1-1.18,16.58C228.61,78.38,229,73.28,229.4,67.29Z"/><path class="cls-1" d="M202.41,533.45c-5.66,4.91-9.27,6.6-15.21,7.14C190.28,537.74,196.23,534.94,202.41,533.45Z"/><path class="cls-1" d="M88.47,178c2.52,5.24,2.25,10.9,2.29,16.51C89,189.14,86.93,183.83,88.47,178Z"/><path class="cls-1" d="M219.77,111.22a27.91,27.91,0,0,1,2.78-11.3c.39-.8,1-1.67,2-1.24s.9,1.46.66,2.32C224.3,104.43,223.31,107.85,219.77,111.22Z"/><path class="cls-1" d="M58.1,512.41c-2.83-5-5.46-10-5.71-16l6.85,15.28Z"/><path class="cls-1" d="M111.1,551.75c-3.36-.33-6.67-.79-9.47-3,6.09.74,12.11,1.71,18.2,2.16A43.3,43.3,0,0,1,111.1,551.75Z"/><path class="cls-1" d="M82.05,539.39a22.25,22.25,0,0,1-8.85-8.82,30,30,0,0,1,9.1,7.31C81.85,538.32,81.53,538.79,82.05,539.39Z"/><path class="cls-5" d="M194.55,301.85a1.23,1.23,0,0,1,1.57.18c2.2,1.67,1.53,4,1.36,6.21A9,9,0,0,1,194.55,301.85Z"/><path class="cls-5" d="M111.1,551.75a43.3,43.3,0,0,0,8.73-.79c1.46-.35,2.55.54,3.78,1.2C119.4,552.52,115.21,553.78,111.1,551.75Z"/><path class="cls-4" d="M86.06,349.61a1.36,1.36,0,0,1,.68,1.34c-.16,1.5-1.18,2.44-2.55,3.93A7.25,7.25,0,0,1,86.06,349.61Z"/><path class="cls-4" d="M82.05,539.39c-.52-.6-.2-1.07.25-1.51a6.78,6.78,0,0,1,3.35,2.86A3.89,3.89,0,0,1,82.05,539.39Z"/><path class="cls-5" d="M99.46,274c1.55,0,1.2-1.7,2.09-2.27a13.84,13.84,0,0,1-.17,6.06C98.8,277.27,99.42,275.48,99.46,274Z"/><path class="cls-5" d="M207.23,140.08c.67.87-.94,2.62,1.13,2.95a3.32,3.32,0,0,1-2.77,3.15A9.16,9.16,0,0,1,207.23,140.08Z"/><path class="cls-5" d="M68.6,392.76l1.32.91c.14,1.76-.65,3-2.51,4.51C67.35,395.82,67.25,394.16,68.6,392.76Z"/><path class="cls-5" d="M49.24,435.39c.48.5,0,1.52,1,1.75.15,1.14-.3,2.38-1.35,2.32-1.56-.08-.81-1.52-.65-2.37A5.8,5.8,0,0,1,49.24,435.39Z"/><path class="cls-5" d="M58.1,512.41l1.14-.76c1.38.77,1.58,2.12,1.92,3.93C59.16,515.17,58.58,513.84,58.1,512.41Z"/><path class="cls-4" d="M209.09,348.89c.41-.53.81-1.06,1.22-1.58a5.45,5.45,0,0,1,.23,1.52c-.07.6.41,1.65-.54,1.7C209.41,350.56,209.17,349.58,209.09,348.89Z"/><path class="cls-5" d="M226,392.43l1.08-.76c.15.1.36.16.45.29.61,1,1,2.64.23,2.85C226.38,395.19,226.11,393.65,226,392.43Z"/><polygon class="cls-4" points="209.61 344 209.61 344.06 209.86 344.01 209.61 344"/><path class="cls-5" d="M239.32,431.78l-.34-.36s.17-.48.18-.47c.15.19.32.37.45.57C239.62,431.54,239.42,431.69,239.32,431.78Z"/></g></g></svg>