<svg width="29" height="29" viewBox="0 0 29 29" fill="none" xmlns="http://www.w3.org/2000/svg">
<rect width="29" height="29" rx="14.5" fill="#FFDBDB"/>
<rect width="29" height="29" rx="14.5" fill="#B9E0D8"/>
<g clip-path="url(#clip0_1602_87386)">
<path d="M13.8272 15.1161C14.3855 14.1084 15.4585 13.5139 16.082 12.6221C16.7417 11.6869 16.372 9.9396 14.5015 9.9396C13.2762 9.9396 12.6745 10.8676 12.4207 11.6361L10.543 10.8459C11.0577 9.3016 12.457 7.97485 14.4942 7.97485C16.198 7.97485 17.3652 8.7506 17.9597 9.7221C18.4672 10.5559 18.7645 12.1146 17.9815 13.2746C17.1115 14.5579 16.2777 14.9494 15.8282 15.7759C15.647 16.1094 15.5745 16.3269 15.5745 17.3999H13.4792C13.472 16.8344 13.385 15.9136 13.8272 15.1161ZM15.9515 20.2999C15.9515 21.0974 15.299 21.7499 14.5015 21.7499C13.704 21.7499 13.0515 21.0974 13.0515 20.2999C13.0515 19.5024 13.704 18.8499 14.5015 18.8499C15.299 18.8499 15.9515 19.5024 15.9515 20.2999Z" fill="#41736A"/>
</g>
<defs>
<clipPath id="clip0_1602_87386">
<rect width="17.4" height="17.4" fill="white" transform="translate(5.80078 5.80005)"/>
</clipPath>
</defs>
</svg>
