<svg width="25" height="24" viewBox="0 0 25 24" fill="none" xmlns="http://www.w3.org/2000/svg">
<path d="M9.5 14H15.5V15.5H9.5V14Z" fill="black"/>
<path d="M16 11C16.8284 11 17.5 10.3284 17.5 9.5C17.5 8.67157 16.8284 8 16 8C15.1716 8 14.5 8.67157 14.5 9.5C14.5 10.3284 15.1716 11 16 11Z" fill="black"/>
<path d="M9 11C9.82843 11 10.5 10.3284 10.5 9.5C10.5 8.67157 9.82843 8 9 8C8.17157 8 7.5 8.67157 7.5 9.5C7.5 10.3284 8.17157 11 9 11Z" fill="black"/>
<path d="M12.49 2C6.97 2 2.5 6.48 2.5 12C2.5 17.52 6.97 22 12.49 22C18.02 22 22.5 17.52 22.5 12C22.5 6.48 18.02 2 12.49 2ZM12.5 20C8.08 20 4.5 16.42 4.5 12C4.5 7.58 8.08 4 12.5 4C16.92 4 20.5 7.58 20.5 12C20.5 16.42 16.92 20 12.5 20Z" fill="black"/>
</svg>
