<svg width="20" height="23" viewBox="0 0 20 23" fill="none" xmlns="http://www.w3.org/2000/svg">
<path d="M4.23529 10.4117H6.35294V12.5294H4.23529V10.4117ZM19.0588 5.11762V19.9411C19.0588 21.1059 18.1059 22.0588 16.9412 22.0588H2.11765C0.942353 22.0588 0 21.1059 0 19.9411L0.0105882 5.11762C0.0105882 3.95291 0.942353 2.99997 2.11765 2.99997H3.17647V0.882324H5.29412V2.99997H13.7647V0.882324H15.8824V2.99997H16.9412C18.1059 2.99997 19.0588 3.95291 19.0588 5.11762ZM2.11765 7.23526H16.9412V5.11762H2.11765V7.23526ZM16.9412 19.9411V9.35291H2.11765V19.9411H16.9412ZM12.7059 12.5294H14.8235V10.4117H12.7059V12.5294ZM8.47059 12.5294H10.5882V10.4117H8.47059V12.5294Z" fill="#B31F20"/>
</svg>
