<svg width="17" height="23" viewBox="0 0 17 23" fill="none" xmlns="http://www.w3.org/2000/svg">
<path d="M8.52918 0.882324C2.88565 5.69997 0.0585938 9.86115 0.0585938 13.3764C0.0585938 18.6494 4.08212 22.0588 8.52918 22.0588C12.9762 22.0588 16.9998 18.6494 16.9998 13.3764C16.9998 9.86115 14.1727 5.69997 8.52918 0.882324ZM8.52918 19.9411C4.98212 19.9411 2.17624 17.22 2.17624 13.3764C2.17624 10.8988 4.24095 7.61644 8.52918 3.69879C12.8174 7.61644 14.8821 10.8882 14.8821 13.3764C14.8821 17.22 12.0762 19.9411 8.52918 19.9411ZM4.11389 13.5882C4.50565 13.5882 4.8233 13.8635 4.89742 14.2447C5.33153 16.5953 7.31153 17.4 8.75153 17.2835C9.20683 17.2623 9.58801 17.6223 9.58801 18.0776C9.58801 18.5011 9.24918 18.8506 8.82565 18.8717C6.57036 19.0094 3.93389 17.7176 3.33036 14.5094C3.24565 14.0329 3.62683 13.5882 4.11389 13.5882Z" fill="#B31F20"/>
</svg>
