<svg width="345" height="132" viewBox="0 0 345 132" fill="none" xmlns="http://www.w3.org/2000/svg">
<rect x="1" y="1" width="343" height="130" rx="12" fill="white"/>
<g clip-path="url(#clip0_1602_87235)">
<rect x="181" y="59" width="22" height="22" fill="#467CCD"/>
</g>
<path d="M206.92 67.688C206.92 68.0507 206.979 68.3813 207.096 68.68C207.224 68.9787 207.4 69.24 207.624 69.464C207.848 69.6773 208.115 69.8427 208.424 69.96C208.733 70.0773 209.075 70.136 209.448 70.136C209.821 70.136 210.163 70.0773 210.472 69.96C210.781 69.8427 211.048 69.6773 211.272 69.464C211.496 69.24 211.667 68.9787 211.784 68.68C211.912 68.3813 211.976 68.0507 211.976 67.688C211.976 67.3253 211.912 66.9947 211.784 66.696C211.667 66.3973 211.496 66.1413 211.272 65.928C211.048 65.7147 210.781 65.5493 210.472 65.432C210.163 65.304 209.821 65.24 209.448 65.24C209.075 65.24 208.733 65.304 208.424 65.432C208.115 65.5493 207.848 65.7147 207.624 65.928C207.4 66.1413 207.224 66.3973 207.096 66.696C206.979 66.9947 206.92 67.3253 206.92 67.688ZM208.072 64.536L208.104 64.568C208.285 64.44 208.525 64.344 208.824 64.28C209.133 64.216 209.416 64.184 209.672 64.184C210.163 64.184 210.616 64.2747 211.032 64.456C211.459 64.6267 211.827 64.8667 212.136 65.176C212.445 65.4853 212.685 65.8533 212.856 66.28C213.037 66.7067 213.128 67.176 213.128 67.688C213.128 68.2107 213.037 68.6853 212.856 69.112C212.675 69.5387 212.419 69.9067 212.088 70.216C211.757 70.5253 211.368 70.7653 210.92 70.936C210.472 71.1067 209.981 71.192 209.448 71.192C208.915 71.192 208.424 71.1067 207.976 70.936C207.528 70.7653 207.139 70.5253 206.808 70.216C206.477 69.9067 206.221 69.5387 206.04 69.112C205.859 68.6853 205.768 68.2107 205.768 67.688C205.768 67.0587 205.859 66.5093 206.04 66.04C206.232 65.5707 206.467 65.1067 206.744 64.648L209.8 59.672H211.16L208.072 64.536ZM222.094 67.688H217.982V66.632H222.094V67.688ZM233.066 67.816C233.066 67.4853 233.007 67.1813 232.89 66.904C232.772 66.616 232.607 66.3707 232.394 66.168C232.191 65.9547 231.935 65.7893 231.626 65.672C231.327 65.5547 230.996 65.496 230.634 65.496C230.26 65.496 229.924 65.5547 229.626 65.672C229.327 65.7893 229.071 65.9547 228.858 66.168C228.655 66.3707 228.495 66.616 228.378 66.904C228.26 67.1813 228.202 67.4853 228.202 67.816C228.202 68.1467 228.26 68.456 228.378 68.744C228.495 69.0213 228.655 69.2667 228.858 69.48C229.071 69.6827 229.327 69.8427 229.626 69.96C229.924 70.0773 230.26 70.136 230.634 70.136C230.996 70.136 231.327 70.0773 231.626 69.96C231.935 69.8427 232.191 69.6827 232.394 69.48C232.607 69.2667 232.772 69.0213 232.89 68.744C233.007 68.456 233.066 68.1467 233.066 67.816ZM232.65 62.536C232.65 62.248 232.596 61.9813 232.49 61.736C232.394 61.4907 232.255 61.2827 232.074 61.112C231.892 60.9307 231.679 60.792 231.434 60.696C231.188 60.5893 230.922 60.536 230.634 60.536C230.346 60.536 230.079 60.5893 229.834 60.696C229.588 60.792 229.375 60.9307 229.194 61.112C229.012 61.2827 228.868 61.4907 228.762 61.736C228.666 61.9813 228.618 62.248 228.618 62.536C228.618 62.824 228.666 63.0907 228.762 63.336C228.868 63.5813 229.012 63.7947 229.194 63.976C229.375 64.1467 229.588 64.2853 229.834 64.392C230.079 64.488 230.346 64.536 230.634 64.536C230.922 64.536 231.188 64.488 231.434 64.392C231.679 64.2853 231.892 64.1467 232.074 63.976C232.255 63.7947 232.394 63.5813 232.49 63.336C232.596 63.0907 232.65 62.824 232.65 62.536ZM229.162 64.968C228.916 64.8827 228.687 64.76 228.474 64.6C228.271 64.4293 228.095 64.232 227.946 64.008C227.796 63.784 227.679 63.5387 227.594 63.272C227.508 63.0053 227.466 62.728 227.466 62.44C227.466 61.992 227.551 61.5867 227.722 61.224C227.892 60.8507 228.122 60.536 228.41 60.28C228.698 60.024 229.034 59.8267 229.418 59.688C229.802 59.5493 230.207 59.48 230.634 59.48C231.06 59.48 231.466 59.5493 231.85 59.688C232.234 59.8267 232.57 60.024 232.858 60.28C233.146 60.536 233.375 60.8507 233.546 61.224C233.716 61.5867 233.802 61.992 233.802 62.44C233.802 62.728 233.759 63.0053 233.674 63.272C233.588 63.5387 233.471 63.784 233.322 64.008C233.172 64.232 232.991 64.4293 232.778 64.6C232.575 64.76 232.351 64.8827 232.106 64.968V65C232.746 65.1707 233.258 65.5227 233.642 66.056C234.026 66.5893 234.218 67.2293 234.218 67.976C234.218 68.4667 234.116 68.9093 233.914 69.304C233.722 69.6987 233.46 70.04 233.13 70.328C232.81 70.6053 232.431 70.8187 231.994 70.968C231.567 71.1173 231.114 71.192 230.634 71.192C230.154 71.192 229.695 71.1173 229.258 70.968C228.831 70.8187 228.452 70.6053 228.122 70.328C227.802 70.04 227.54 69.6987 227.338 69.304C227.146 68.9093 227.05 68.4667 227.05 67.976C227.05 67.2293 227.242 66.5893 227.626 66.056C228.01 65.5227 228.522 65.1707 229.162 65V64.968ZM239.712 58.904H240.768V64.712H240.8C240.917 64.5093 241.066 64.3227 241.248 64.152C241.429 63.9813 241.632 63.8373 241.856 63.72C242.08 63.592 242.314 63.496 242.56 63.432C242.816 63.3573 243.066 63.32 243.312 63.32C244.272 63.32 244.981 63.576 245.44 64.088C245.898 64.5893 246.128 65.3093 246.128 66.248V71H245.072V66.856C245.072 66.024 244.928 65.3893 244.64 64.952C244.352 64.504 243.818 64.28 243.04 64.28C242.986 64.28 242.837 64.3013 242.592 64.344C242.346 64.3867 242.085 64.504 241.808 64.696C241.541 64.888 241.301 65.176 241.088 65.56C240.874 65.944 240.768 66.4773 240.768 67.16V71H239.712V58.904ZM254.533 67.256C254.533 66.84 254.464 66.4507 254.325 66.088C254.197 65.7253 254.011 65.4107 253.765 65.144C253.52 64.8773 253.221 64.6693 252.869 64.52C252.528 64.36 252.139 64.28 251.701 64.28C251.264 64.28 250.869 64.36 250.517 64.52C250.176 64.6693 249.883 64.8773 249.637 65.144C249.403 65.4107 249.216 65.7253 249.077 66.088C248.949 66.4507 248.885 66.84 248.885 67.256C248.885 67.672 248.949 68.0613 249.077 68.424C249.216 68.7867 249.403 69.1013 249.637 69.368C249.883 69.6347 250.176 69.848 250.517 70.008C250.869 70.1573 251.264 70.232 251.701 70.232C252.139 70.232 252.528 70.1573 252.869 70.008C253.221 69.848 253.52 69.6347 253.765 69.368C254.011 69.1013 254.197 68.7867 254.325 68.424C254.464 68.0613 254.533 67.672 254.533 67.256ZM255.685 67.256C255.685 67.8213 255.584 68.344 255.381 68.824C255.189 69.304 254.917 69.72 254.565 70.072C254.213 70.424 253.792 70.7013 253.301 70.904C252.821 71.096 252.288 71.192 251.701 71.192C251.125 71.192 250.592 71.096 250.101 70.904C249.621 70.7013 249.205 70.424 248.853 70.072C248.501 69.72 248.224 69.304 248.021 68.824C247.829 68.344 247.733 67.8213 247.733 67.256C247.733 66.6907 247.829 66.168 248.021 65.688C248.224 65.208 248.501 64.792 248.853 64.44C249.205 64.088 249.621 63.816 250.101 63.624C250.592 63.4213 251.125 63.32 251.701 63.32C252.288 63.32 252.821 63.4213 253.301 63.624C253.792 63.816 254.213 64.088 254.565 64.44C254.917 64.792 255.189 65.208 255.381 65.688C255.584 66.168 255.685 66.6907 255.685 67.256ZM262.525 71C262.503 70.7973 262.487 70.6 262.477 70.408C262.477 70.2053 262.477 70.0027 262.477 69.8H262.445C262.327 70.0027 262.178 70.1893 261.997 70.36C261.815 70.5307 261.613 70.68 261.389 70.808C261.165 70.9253 260.925 71.016 260.669 71.08C260.423 71.1547 260.178 71.192 259.933 71.192C258.973 71.192 258.263 70.9413 257.805 70.44C257.346 69.928 257.117 69.2027 257.117 68.264V63.512H258.173V67.656C258.173 68.072 258.205 68.44 258.269 68.76C258.333 69.08 258.439 69.352 258.589 69.576C258.749 69.7893 258.957 69.9547 259.213 70.072C259.479 70.1787 259.81 70.232 260.205 70.232C260.258 70.232 260.407 70.2107 260.653 70.168C260.898 70.1253 261.154 70.008 261.421 69.816C261.698 69.624 261.943 69.336 262.157 68.952C262.37 68.568 262.477 68.0347 262.477 67.352V63.512H263.533V69.352C263.533 69.5547 263.538 69.8107 263.549 70.12C263.57 70.4293 263.591 70.7227 263.613 71H262.525ZM265.635 65.848C265.635 65.5173 265.624 65.1813 265.603 64.84C265.592 64.4987 265.581 64.056 265.571 63.512H266.611V64.904H266.643C266.717 64.7013 266.824 64.5093 266.963 64.328C267.101 64.136 267.267 63.9653 267.459 63.816C267.661 63.6667 267.891 63.5493 268.147 63.464C268.413 63.368 268.712 63.32 269.043 63.32C269.341 63.32 269.603 63.352 269.827 63.416L269.619 64.456C269.48 64.4027 269.277 64.376 269.011 64.376C268.605 64.376 268.259 64.456 267.971 64.616C267.683 64.7653 267.443 64.9627 267.251 65.208C267.059 65.4427 266.915 65.6987 266.819 65.976C266.733 66.2533 266.691 66.52 266.691 66.776V71H265.635V65.848ZM274.318 65.288C274.158 64.9787 273.945 64.7333 273.678 64.552C273.412 64.3707 273.086 64.28 272.702 64.28C272.521 64.28 272.334 64.3013 272.142 64.344C271.961 64.3867 271.796 64.456 271.646 64.552C271.497 64.6373 271.374 64.7493 271.278 64.888C271.193 65.0267 271.15 65.1973 271.15 65.4C271.15 65.752 271.273 66.008 271.518 66.168C271.764 66.328 272.132 66.4667 272.622 66.584L273.694 66.84C274.217 66.9573 274.649 67.1973 274.99 67.56C275.342 67.912 275.518 68.3547 275.518 68.888C275.518 69.2933 275.433 69.6453 275.262 69.944C275.102 70.232 274.884 70.472 274.606 70.664C274.34 70.8453 274.03 70.9787 273.678 71.064C273.326 71.1493 272.969 71.192 272.606 71.192C272.03 71.192 271.492 71.0853 270.99 70.872C270.5 70.648 270.078 70.2693 269.726 69.736L270.638 69.112C270.852 69.4533 271.118 69.7253 271.438 69.928C271.769 70.1307 272.158 70.232 272.606 70.232C272.82 70.232 273.033 70.2107 273.246 70.168C273.46 70.1147 273.646 70.04 273.806 69.944C273.977 69.8373 274.11 69.704 274.206 69.544C274.313 69.384 274.366 69.1973 274.366 68.984C274.366 68.6107 274.228 68.344 273.95 68.184C273.673 68.0133 273.337 67.88 272.942 67.784L271.918 67.544C271.79 67.512 271.614 67.4587 271.39 67.384C271.177 67.3093 270.964 67.1973 270.75 67.048C270.548 66.8987 270.372 66.7067 270.222 66.472C270.073 66.2267 269.998 65.928 269.998 65.576C269.998 65.192 270.073 64.856 270.222 64.568C270.382 64.28 270.59 64.0453 270.846 63.864C271.113 63.6827 271.412 63.5493 271.742 63.464C272.073 63.368 272.414 63.32 272.766 63.32C273.289 63.32 273.774 63.4213 274.222 63.624C274.67 63.8267 275.017 64.1733 275.262 64.664L274.318 65.288Z" fill="#181818"/>
<g clip-path="url(#clip1_1602_87235)">
<rect x="181" y="89" width="22" height="22" fill="#92B8F0"/>
</g>
<path d="M214.408 92.936L207.544 96.152L214.408 99.368V100.328L206.248 96.52V95.784L214.408 91.976V92.936ZM221.06 97.688C221.06 98.0507 221.118 98.3813 221.236 98.68C221.364 98.9787 221.54 99.24 221.764 99.464C221.988 99.6773 222.254 99.8427 222.564 99.96C222.873 100.077 223.214 100.136 223.588 100.136C223.961 100.136 224.302 100.077 224.612 99.96C224.921 99.8427 225.188 99.6773 225.412 99.464C225.636 99.24 225.806 98.9787 225.924 98.68C226.052 98.3813 226.116 98.0507 226.116 97.688C226.116 97.3253 226.052 96.9947 225.924 96.696C225.806 96.3973 225.636 96.1413 225.412 95.928C225.188 95.7147 224.921 95.5493 224.612 95.432C224.302 95.304 223.961 95.24 223.588 95.24C223.214 95.24 222.873 95.304 222.564 95.432C222.254 95.5493 221.988 95.7147 221.764 95.928C221.54 96.1413 221.364 96.3973 221.236 96.696C221.118 96.9947 221.06 97.3253 221.06 97.688ZM222.212 94.536L222.244 94.568C222.425 94.44 222.665 94.344 222.964 94.28C223.273 94.216 223.556 94.184 223.812 94.184C224.302 94.184 224.756 94.2747 225.172 94.456C225.598 94.6267 225.966 94.8667 226.276 95.176C226.585 95.4853 226.825 95.8533 226.996 96.28C227.177 96.7067 227.268 97.176 227.268 97.688C227.268 98.2107 227.177 98.6853 226.996 99.112C226.814 99.5387 226.558 99.9067 226.228 100.216C225.897 100.525 225.508 100.765 225.06 100.936C224.612 101.107 224.121 101.192 223.588 101.192C223.054 101.192 222.564 101.107 222.116 100.936C221.668 100.765 221.278 100.525 220.948 100.216C220.617 99.9067 220.361 99.5387 220.18 99.112C219.998 98.6853 219.908 98.2107 219.908 97.688C219.908 97.0587 219.998 96.5093 220.18 96.04C220.372 95.5707 220.606 95.1067 220.884 94.648L223.94 89.672H225.3L222.212 94.536ZM232.666 88.904H233.722V94.712H233.754C233.871 94.5093 234.02 94.3227 234.202 94.152C234.383 93.9813 234.586 93.8373 234.81 93.72C235.034 93.592 235.268 93.496 235.514 93.432C235.77 93.3573 236.02 93.32 236.266 93.32C237.226 93.32 237.935 93.576 238.394 94.088C238.852 94.5893 239.082 95.3093 239.082 96.248V101H238.026V96.856C238.026 96.024 237.882 95.3893 237.594 94.952C237.306 94.504 236.772 94.28 235.994 94.28C235.94 94.28 235.791 94.3013 235.546 94.344C235.3 94.3867 235.039 94.504 234.762 94.696C234.495 94.888 234.255 95.176 234.042 95.56C233.828 95.944 233.722 96.4773 233.722 97.16V101H232.666V88.904ZM247.487 97.256C247.487 96.84 247.418 96.4507 247.279 96.088C247.151 95.7253 246.965 95.4107 246.719 95.144C246.474 94.8773 246.175 94.6693 245.823 94.52C245.482 94.36 245.093 94.28 244.655 94.28C244.218 94.28 243.823 94.36 243.471 94.52C243.13 94.6693 242.837 94.8773 242.591 95.144C242.357 95.4107 242.17 95.7253 242.031 96.088C241.903 96.4507 241.839 96.84 241.839 97.256C241.839 97.672 241.903 98.0613 242.031 98.424C242.17 98.7867 242.357 99.1013 242.591 99.368C242.837 99.6347 243.13 99.848 243.471 100.008C243.823 100.157 244.218 100.232 244.655 100.232C245.093 100.232 245.482 100.157 245.823 100.008C246.175 99.848 246.474 99.6347 246.719 99.368C246.965 99.1013 247.151 98.7867 247.279 98.424C247.418 98.0613 247.487 97.672 247.487 97.256ZM248.639 97.256C248.639 97.8213 248.538 98.344 248.335 98.824C248.143 99.304 247.871 99.72 247.519 100.072C247.167 100.424 246.746 100.701 246.255 100.904C245.775 101.096 245.242 101.192 244.655 101.192C244.079 101.192 243.546 101.096 243.055 100.904C242.575 100.701 242.159 100.424 241.807 100.072C241.455 99.72 241.178 99.304 240.975 98.824C240.783 98.344 240.687 97.8213 240.687 97.256C240.687 96.6907 240.783 96.168 240.975 95.688C241.178 95.208 241.455 94.792 241.807 94.44C242.159 94.088 242.575 93.816 243.055 93.624C243.546 93.4213 244.079 93.32 244.655 93.32C245.242 93.32 245.775 93.4213 246.255 93.624C246.746 93.816 247.167 94.088 247.519 94.44C247.871 94.792 248.143 95.208 248.335 95.688C248.538 96.168 248.639 96.6907 248.639 97.256ZM255.479 101C255.458 100.797 255.442 100.6 255.431 100.408C255.431 100.205 255.431 100.003 255.431 99.8H255.399C255.282 100.003 255.132 100.189 254.951 100.36C254.77 100.531 254.567 100.68 254.343 100.808C254.119 100.925 253.879 101.016 253.623 101.08C253.378 101.155 253.132 101.192 252.887 101.192C251.927 101.192 251.218 100.941 250.759 100.44C250.3 99.928 250.071 99.2027 250.071 98.264V93.512H251.127V97.656C251.127 98.072 251.159 98.44 251.223 98.76C251.287 99.08 251.394 99.352 251.543 99.576C251.703 99.7893 251.911 99.9547 252.167 100.072C252.434 100.179 252.764 100.232 253.159 100.232C253.212 100.232 253.362 100.211 253.607 100.168C253.852 100.125 254.108 100.008 254.375 99.816C254.652 99.624 254.898 99.336 255.111 98.952C255.324 98.568 255.431 98.0347 255.431 97.352V93.512H256.487V99.352C256.487 99.5547 256.492 99.8107 256.503 100.12C256.524 100.429 256.546 100.723 256.567 101H255.479ZM258.589 95.848C258.589 95.5173 258.578 95.1813 258.557 94.84C258.546 94.4987 258.535 94.056 258.525 93.512H259.565V94.904H259.597C259.671 94.7013 259.778 94.5093 259.917 94.328C260.055 94.136 260.221 93.9653 260.413 93.816C260.615 93.6667 260.845 93.5493 261.101 93.464C261.367 93.368 261.666 93.32 261.997 93.32C262.295 93.32 262.557 93.352 262.781 93.416L262.573 94.456C262.434 94.4027 262.231 94.376 261.965 94.376C261.559 94.376 261.213 94.456 260.925 94.616C260.637 94.7653 260.397 94.9627 260.205 95.208C260.013 95.4427 259.869 95.6987 259.773 95.976C259.687 96.2533 259.645 96.52 259.645 96.776V101H258.589V95.848ZM267.272 95.288C267.112 94.9787 266.899 94.7333 266.632 94.552C266.366 94.3707 266.04 94.28 265.656 94.28C265.475 94.28 265.288 94.3013 265.096 94.344C264.915 94.3867 264.75 94.456 264.6 94.552C264.451 94.6373 264.328 94.7493 264.232 94.888C264.147 95.0267 264.104 95.1973 264.104 95.4C264.104 95.752 264.227 96.008 264.472 96.168C264.718 96.328 265.086 96.4667 265.576 96.584L266.648 96.84C267.171 96.9573 267.603 97.1973 267.944 97.56C268.296 97.912 268.472 98.3547 268.472 98.888C268.472 99.2933 268.387 99.6453 268.216 99.944C268.056 100.232 267.838 100.472 267.56 100.664C267.294 100.845 266.984 100.979 266.632 101.064C266.28 101.149 265.923 101.192 265.56 101.192C264.984 101.192 264.446 101.085 263.944 100.872C263.454 100.648 263.032 100.269 262.68 99.736L263.592 99.112C263.806 99.4533 264.072 99.7253 264.392 99.928C264.723 100.131 265.112 100.232 265.56 100.232C265.774 100.232 265.987 100.211 266.2 100.168C266.414 100.115 266.6 100.04 266.76 99.944C266.931 99.8373 267.064 99.704 267.16 99.544C267.267 99.384 267.32 99.1973 267.32 98.984C267.32 98.6107 267.182 98.344 266.904 98.184C266.627 98.0133 266.291 97.88 265.896 97.784L264.872 97.544C264.744 97.512 264.568 97.4587 264.344 97.384C264.131 97.3093 263.918 97.1973 263.704 97.048C263.502 96.8987 263.326 96.7067 263.176 96.472C263.027 96.2267 262.952 95.928 262.952 95.576C262.952 95.192 263.027 94.856 263.176 94.568C263.336 94.28 263.544 94.0453 263.8 93.864C264.067 93.6827 264.366 93.5493 264.696 93.464C265.027 93.368 265.368 93.32 265.72 93.32C266.243 93.32 266.728 93.4213 267.176 93.624C267.624 93.8267 267.971 94.1733 268.216 94.664L267.272 95.288Z" fill="#181818"/>
<rect x="1" y="1" width="343" height="130" rx="12" stroke="#C4C4C4"/>
<g clip-path="url(#clip2_1602_87235)">
<rect x="50" y="59" width="22" height="22" fill="#133364"/>
</g>
<path d="M75.248 61.976L83.408 65.784V66.52L75.248 70.328V69.368L82.112 66.152L75.248 62.936V61.976ZM93.7076 71H92.5556V61.112L90.5236 62.904L89.8036 62.04L92.6836 59.672H93.7076V71ZM100.993 60.536C100.375 60.536 99.8841 60.7013 99.5214 61.032C99.1694 61.3627 98.9027 61.7733 98.7214 62.264C98.5401 62.7547 98.4227 63.2773 98.3694 63.832C98.3267 64.3867 98.3054 64.888 98.3054 65.336C98.3054 65.784 98.3267 66.2853 98.3694 66.84C98.4227 67.3947 98.5401 67.9173 98.7214 68.408C98.9027 68.8987 99.1694 69.3093 99.5214 69.64C99.8841 69.9707 100.375 70.136 100.993 70.136C101.612 70.136 102.097 69.9707 102.449 69.64C102.812 69.3093 103.084 68.8987 103.265 68.408C103.447 67.9173 103.559 67.3947 103.601 66.84C103.655 66.2853 103.681 65.784 103.681 65.336C103.681 64.888 103.655 64.3867 103.601 63.832C103.559 63.2773 103.447 62.7547 103.265 62.264C103.084 61.7733 102.812 61.3627 102.449 61.032C102.097 60.7013 101.612 60.536 100.993 60.536ZM100.993 59.48C101.804 59.48 102.46 59.6667 102.961 60.04C103.463 60.4133 103.852 60.888 104.129 61.464C104.407 62.04 104.593 62.6747 104.689 63.368C104.785 64.0507 104.833 64.7067 104.833 65.336C104.833 65.9653 104.785 66.6267 104.689 67.32C104.593 68.0027 104.407 68.632 104.129 69.208C103.852 69.784 103.463 70.2587 102.961 70.632C102.46 71.0053 101.804 71.192 100.993 71.192C100.183 71.192 99.5267 71.0053 99.0254 70.632C98.5241 70.2587 98.1347 69.784 97.8574 69.208C97.5801 68.632 97.3934 68.0027 97.2974 67.32C97.2014 66.6267 97.1534 65.9653 97.1534 65.336C97.1534 64.7067 97.2014 64.0507 97.2974 63.368C97.3934 62.6747 97.5801 62.04 97.8574 61.464C98.1347 60.888 98.5241 60.4133 99.0254 60.04C99.5267 59.6667 100.183 59.48 100.993 59.48ZM110.071 58.904H111.127V64.712H111.159C111.277 64.5093 111.426 64.3227 111.607 64.152C111.789 63.9813 111.991 63.8373 112.215 63.72C112.439 63.592 112.674 63.496 112.919 63.432C113.175 63.3573 113.426 63.32 113.671 63.32C114.631 63.32 115.341 63.576 115.799 64.088C116.258 64.5893 116.487 65.3093 116.487 66.248V71H115.431V66.856C115.431 66.024 115.287 65.3893 114.999 64.952C114.711 64.504 114.178 64.28 113.399 64.28C113.346 64.28 113.197 64.3013 112.951 64.344C112.706 64.3867 112.445 64.504 112.167 64.696C111.901 64.888 111.661 65.176 111.447 65.56C111.234 65.944 111.127 66.4773 111.127 67.16V71H110.071V58.904ZM124.893 67.256C124.893 66.84 124.824 66.4507 124.685 66.088C124.557 65.7253 124.371 65.4107 124.125 65.144C123.88 64.8773 123.581 64.6693 123.229 64.52C122.888 64.36 122.499 64.28 122.061 64.28C121.624 64.28 121.229 64.36 120.877 64.52C120.536 64.6693 120.243 64.8773 119.997 65.144C119.763 65.4107 119.576 65.7253 119.437 66.088C119.309 66.4507 119.245 66.84 119.245 67.256C119.245 67.672 119.309 68.0613 119.437 68.424C119.576 68.7867 119.763 69.1013 119.997 69.368C120.243 69.6347 120.536 69.848 120.877 70.008C121.229 70.1573 121.624 70.232 122.061 70.232C122.499 70.232 122.888 70.1573 123.229 70.008C123.581 69.848 123.88 69.6347 124.125 69.368C124.371 69.1013 124.557 68.7867 124.685 68.424C124.824 68.0613 124.893 67.672 124.893 67.256ZM126.045 67.256C126.045 67.8213 125.944 68.344 125.741 68.824C125.549 69.304 125.277 69.72 124.925 70.072C124.573 70.424 124.152 70.7013 123.661 70.904C123.181 71.096 122.648 71.192 122.061 71.192C121.485 71.192 120.952 71.096 120.461 70.904C119.981 70.7013 119.565 70.424 119.213 70.072C118.861 69.72 118.584 69.304 118.381 68.824C118.189 68.344 118.093 67.8213 118.093 67.256C118.093 66.6907 118.189 66.168 118.381 65.688C118.584 65.208 118.861 64.792 119.213 64.44C119.565 64.088 119.981 63.816 120.461 63.624C120.952 63.4213 121.485 63.32 122.061 63.32C122.648 63.32 123.181 63.4213 123.661 63.624C124.152 63.816 124.573 64.088 124.925 64.44C125.277 64.792 125.549 65.208 125.741 65.688C125.944 66.168 126.045 66.6907 126.045 67.256ZM132.885 71C132.863 70.7973 132.847 70.6 132.837 70.408C132.837 70.2053 132.837 70.0027 132.837 69.8H132.805C132.687 70.0027 132.538 70.1893 132.357 70.36C132.175 70.5307 131.973 70.68 131.749 70.808C131.525 70.9253 131.285 71.016 131.029 71.08C130.783 71.1547 130.538 71.192 130.293 71.192C129.333 71.192 128.623 70.9413 128.165 70.44C127.706 69.928 127.477 69.2027 127.477 68.264V63.512H128.533V67.656C128.533 68.072 128.565 68.44 128.629 68.76C128.693 69.08 128.799 69.352 128.949 69.576C129.109 69.7893 129.317 69.9547 129.573 70.072C129.839 70.1787 130.17 70.232 130.565 70.232C130.618 70.232 130.767 70.2107 131.013 70.168C131.258 70.1253 131.514 70.008 131.781 69.816C132.058 69.624 132.303 69.336 132.517 68.952C132.73 68.568 132.837 68.0347 132.837 67.352V63.512H133.893V69.352C133.893 69.5547 133.898 69.8107 133.909 70.12C133.93 70.4293 133.951 70.7227 133.973 71H132.885ZM135.994 65.848C135.994 65.5173 135.984 65.1813 135.962 64.84C135.952 64.4987 135.941 64.056 135.93 63.512H136.97V64.904H137.002C137.077 64.7013 137.184 64.5093 137.322 64.328C137.461 64.136 137.626 63.9653 137.818 63.816C138.021 63.6667 138.25 63.5493 138.506 63.464C138.773 63.368 139.072 63.32 139.402 63.32C139.701 63.32 139.962 63.352 140.186 63.416L139.978 64.456C139.84 64.4027 139.637 64.376 139.37 64.376C138.965 64.376 138.618 64.456 138.33 64.616C138.042 64.7653 137.802 64.9627 137.61 65.208C137.418 65.4427 137.274 65.6987 137.178 65.976C137.093 66.2533 137.05 66.52 137.05 66.776V71H135.994V65.848ZM144.678 65.288C144.518 64.9787 144.305 64.7333 144.038 64.552C143.771 64.3707 143.446 64.28 143.062 64.28C142.881 64.28 142.694 64.3013 142.502 64.344C142.321 64.3867 142.155 64.456 142.006 64.552C141.857 64.6373 141.734 64.7493 141.638 64.888C141.553 65.0267 141.51 65.1973 141.51 65.4C141.51 65.752 141.633 66.008 141.878 66.168C142.123 66.328 142.491 66.4667 142.982 66.584L144.054 66.84C144.577 66.9573 145.009 67.1973 145.35 67.56C145.702 67.912 145.878 68.3547 145.878 68.888C145.878 69.2933 145.793 69.6453 145.622 69.944C145.462 70.232 145.243 70.472 144.966 70.664C144.699 70.8453 144.39 70.9787 144.038 71.064C143.686 71.1493 143.329 71.192 142.966 71.192C142.39 71.192 141.851 71.0853 141.35 70.872C140.859 70.648 140.438 70.2693 140.086 69.736L140.998 69.112C141.211 69.4533 141.478 69.7253 141.798 69.928C142.129 70.1307 142.518 70.232 142.966 70.232C143.179 70.232 143.393 70.2107 143.606 70.168C143.819 70.1147 144.006 70.04 144.166 69.944C144.337 69.8373 144.47 69.704 144.566 69.544C144.673 69.384 144.726 69.1973 144.726 68.984C144.726 68.6107 144.587 68.344 144.31 68.184C144.033 68.0133 143.697 67.88 143.302 67.784L142.278 67.544C142.15 67.512 141.974 67.4587 141.75 67.384C141.537 67.3093 141.323 67.1973 141.11 67.048C140.907 66.8987 140.731 66.7067 140.582 66.472C140.433 66.2267 140.358 65.928 140.358 65.576C140.358 65.192 140.433 64.856 140.582 64.568C140.742 64.28 140.95 64.0453 141.206 63.864C141.473 63.6827 141.771 63.5493 142.102 63.464C142.433 63.368 142.774 63.32 143.126 63.32C143.649 63.32 144.134 63.4213 144.582 63.624C145.03 63.8267 145.377 64.1733 145.622 64.664L144.678 65.288Z" fill="#181818"/>
<g clip-path="url(#clip3_1602_87235)">
<rect x="50" y="89" width="22" height="22" fill="#1A50A0"/>
</g>
<path d="M80.88 97.816C80.88 97.4853 80.8213 97.1813 80.704 96.904C80.5867 96.616 80.4213 96.3707 80.208 96.168C80.0053 95.9547 79.7493 95.7893 79.44 95.672C79.1413 95.5547 78.8107 95.496 78.448 95.496C78.0747 95.496 77.7387 95.5547 77.44 95.672C77.1413 95.7893 76.8853 95.9547 76.672 96.168C76.4693 96.3707 76.3093 96.616 76.192 96.904C76.0747 97.1813 76.016 97.4853 76.016 97.816C76.016 98.1467 76.0747 98.456 76.192 98.744C76.3093 99.0213 76.4693 99.2667 76.672 99.48C76.8853 99.6827 77.1413 99.8427 77.44 99.96C77.7387 100.077 78.0747 100.136 78.448 100.136C78.8107 100.136 79.1413 100.077 79.44 99.96C79.7493 99.8427 80.0053 99.6827 80.208 99.48C80.4213 99.2667 80.5867 99.0213 80.704 98.744C80.8213 98.456 80.88 98.1467 80.88 97.816ZM80.464 92.536C80.464 92.248 80.4107 91.9813 80.304 91.736C80.208 91.4907 80.0693 91.2827 79.888 91.112C79.7067 90.9307 79.4933 90.792 79.248 90.696C79.0027 90.5893 78.736 90.536 78.448 90.536C78.16 90.536 77.8933 90.5893 77.648 90.696C77.4027 90.792 77.1893 90.9307 77.008 91.112C76.8267 91.2827 76.6827 91.4907 76.576 91.736C76.48 91.9813 76.432 92.248 76.432 92.536C76.432 92.824 76.48 93.0907 76.576 93.336C76.6827 93.5813 76.8267 93.7947 77.008 93.976C77.1893 94.1467 77.4027 94.2853 77.648 94.392C77.8933 94.488 78.16 94.536 78.448 94.536C78.736 94.536 79.0027 94.488 79.248 94.392C79.4933 94.2853 79.7067 94.1467 79.888 93.976C80.0693 93.7947 80.208 93.5813 80.304 93.336C80.4107 93.0907 80.464 92.824 80.464 92.536ZM76.976 94.968C76.7307 94.8827 76.5013 94.76 76.288 94.6C76.0853 94.4293 75.9093 94.232 75.76 94.008C75.6107 93.784 75.4933 93.5387 75.408 93.272C75.3227 93.0053 75.28 92.728 75.28 92.44C75.28 91.992 75.3653 91.5867 75.536 91.224C75.7067 90.8507 75.936 90.536 76.224 90.28C76.512 90.024 76.848 89.8267 77.232 89.688C77.616 89.5493 78.0213 89.48 78.448 89.48C78.8747 89.48 79.28 89.5493 79.664 89.688C80.048 89.8267 80.384 90.024 80.672 90.28C80.96 90.536 81.1893 90.8507 81.36 91.224C81.5307 91.5867 81.616 91.992 81.616 92.44C81.616 92.728 81.5733 93.0053 81.488 93.272C81.4027 93.5387 81.2853 93.784 81.136 94.008C80.9867 94.232 80.8053 94.4293 80.592 94.6C80.3893 94.76 80.1653 94.8827 79.92 94.968V95C80.56 95.1707 81.072 95.5227 81.456 96.056C81.84 96.5893 82.032 97.2293 82.032 97.976C82.032 98.4667 81.9307 98.9093 81.728 99.304C81.536 99.6987 81.2747 100.04 80.944 100.328C80.624 100.605 80.2453 100.819 79.808 100.968C79.3813 101.117 78.928 101.192 78.448 101.192C77.968 101.192 77.5093 101.117 77.072 100.968C76.6453 100.819 76.2667 100.605 75.936 100.328C75.616 100.04 75.3547 99.6987 75.152 99.304C74.96 98.9093 74.864 98.4667 74.864 97.976C74.864 97.2293 75.056 96.5893 75.44 96.056C75.824 95.5227 76.336 95.1707 76.976 95V94.968ZM91.094 97.688H86.982V96.632H91.094V97.688ZM100.754 101H99.6015V91.112L97.5695 92.904L96.8495 92.04L99.7295 89.672H100.754V101ZM108.039 90.536C107.421 90.536 106.93 90.7013 106.567 91.032C106.215 91.3627 105.949 91.7733 105.767 92.264C105.586 92.7547 105.469 93.2773 105.415 93.832C105.373 94.3867 105.351 94.888 105.351 95.336C105.351 95.784 105.373 96.2853 105.415 96.84C105.469 97.3947 105.586 97.9173 105.767 98.408C105.949 98.8987 106.215 99.3093 106.567 99.64C106.93 99.9707 107.421 100.136 108.039 100.136C108.658 100.136 109.143 99.9707 109.495 99.64C109.858 99.3093 110.13 98.8987 110.311 98.408C110.493 97.9173 110.605 97.3947 110.647 96.84C110.701 96.2853 110.727 95.784 110.727 95.336C110.727 94.888 110.701 94.3867 110.647 93.832C110.605 93.2773 110.493 92.7547 110.311 92.264C110.13 91.7733 109.858 91.3627 109.495 91.032C109.143 90.7013 108.658 90.536 108.039 90.536ZM108.039 89.48C108.85 89.48 109.506 89.6667 110.007 90.04C110.509 90.4133 110.898 90.888 111.175 91.464C111.453 92.04 111.639 92.6747 111.735 93.368C111.831 94.0507 111.879 94.7067 111.879 95.336C111.879 95.9653 111.831 96.6267 111.735 97.32C111.639 98.0027 111.453 98.632 111.175 99.208C110.898 99.784 110.509 100.259 110.007 100.632C109.506 101.005 108.85 101.192 108.039 101.192C107.229 101.192 106.573 101.005 106.071 100.632C105.57 100.259 105.181 99.784 104.903 99.208C104.626 98.632 104.439 98.0027 104.343 97.32C104.247 96.6267 104.199 95.9653 104.199 95.336C104.199 94.7067 104.247 94.0507 104.343 93.368C104.439 92.6747 104.626 92.04 104.903 91.464C105.181 90.888 105.57 90.4133 106.071 90.04C106.573 89.6667 107.229 89.48 108.039 89.48ZM117.117 88.904H118.173V94.712H118.205C118.323 94.5093 118.472 94.3227 118.653 94.152C118.835 93.9813 119.037 93.8373 119.261 93.72C119.485 93.592 119.72 93.496 119.965 93.432C120.221 93.3573 120.472 93.32 120.717 93.32C121.677 93.32 122.387 93.576 122.845 94.088C123.304 94.5893 123.533 95.3093 123.533 96.248V101H122.477V96.856C122.477 96.024 122.333 95.3893 122.045 94.952C121.757 94.504 121.224 94.28 120.445 94.28C120.392 94.28 120.243 94.3013 119.997 94.344C119.752 94.3867 119.491 94.504 119.213 94.696C118.947 94.888 118.707 95.176 118.493 95.56C118.28 95.944 118.173 96.4773 118.173 97.16V101H117.117V88.904ZM131.939 97.256C131.939 96.84 131.87 96.4507 131.731 96.088C131.603 95.7253 131.416 95.4107 131.171 95.144C130.926 94.8773 130.627 94.6693 130.275 94.52C129.934 94.36 129.544 94.28 129.107 94.28C128.67 94.28 128.275 94.36 127.923 94.52C127.582 94.6693 127.288 94.8773 127.043 95.144C126.808 95.4107 126.622 95.7253 126.483 96.088C126.355 96.4507 126.291 96.84 126.291 97.256C126.291 97.672 126.355 98.0613 126.483 98.424C126.622 98.7867 126.808 99.1013 127.043 99.368C127.288 99.6347 127.582 99.848 127.923 100.008C128.275 100.157 128.67 100.232 129.107 100.232C129.544 100.232 129.934 100.157 130.275 100.008C130.627 99.848 130.926 99.6347 131.171 99.368C131.416 99.1013 131.603 98.7867 131.731 98.424C131.87 98.0613 131.939 97.672 131.939 97.256ZM133.091 97.256C133.091 97.8213 132.99 98.344 132.787 98.824C132.595 99.304 132.323 99.72 131.971 100.072C131.619 100.424 131.198 100.701 130.707 100.904C130.227 101.096 129.694 101.192 129.107 101.192C128.531 101.192 127.998 101.096 127.507 100.904C127.027 100.701 126.611 100.424 126.259 100.072C125.907 99.72 125.63 99.304 125.427 98.824C125.235 98.344 125.139 97.8213 125.139 97.256C125.139 96.6907 125.235 96.168 125.427 95.688C125.63 95.208 125.907 94.792 126.259 94.44C126.611 94.088 127.027 93.816 127.507 93.624C127.998 93.4213 128.531 93.32 129.107 93.32C129.694 93.32 130.227 93.4213 130.707 93.624C131.198 93.816 131.619 94.088 131.971 94.44C132.323 94.792 132.595 95.208 132.787 95.688C132.99 96.168 133.091 96.6907 133.091 97.256ZM139.931 101C139.909 100.797 139.893 100.6 139.883 100.408C139.883 100.205 139.883 100.003 139.883 99.8H139.851C139.733 100.003 139.584 100.189 139.403 100.36C139.221 100.531 139.019 100.68 138.795 100.808C138.571 100.925 138.331 101.016 138.075 101.08C137.829 101.155 137.584 101.192 137.339 101.192C136.379 101.192 135.669 100.941 135.211 100.44C134.752 99.928 134.523 99.2027 134.523 98.264V93.512H135.579V97.656C135.579 98.072 135.611 98.44 135.675 98.76C135.739 99.08 135.845 99.352 135.995 99.576C136.155 99.7893 136.363 99.9547 136.619 100.072C136.885 100.179 137.216 100.232 137.611 100.232C137.664 100.232 137.813 100.211 138.059 100.168C138.304 100.125 138.56 100.008 138.827 99.816C139.104 99.624 139.349 99.336 139.563 98.952C139.776 98.568 139.883 98.0347 139.883 97.352V93.512H140.939V99.352C140.939 99.5547 140.944 99.8107 140.955 100.12C140.976 100.429 140.997 100.723 141.019 101H139.931ZM143.04 95.848C143.04 95.5173 143.03 95.1813 143.008 94.84C142.998 94.4987 142.987 94.056 142.976 93.512H144.016V94.904H144.048C144.123 94.7013 144.23 94.5093 144.368 94.328C144.507 94.136 144.672 93.9653 144.864 93.816C145.067 93.6667 145.296 93.5493 145.552 93.464C145.819 93.368 146.118 93.32 146.448 93.32C146.747 93.32 147.008 93.352 147.232 93.416L147.024 94.456C146.886 94.4027 146.683 94.376 146.416 94.376C146.011 94.376 145.664 94.456 145.376 94.616C145.088 94.7653 144.848 94.9627 144.656 95.208C144.464 95.4427 144.32 95.6987 144.224 95.976C144.139 96.2533 144.096 96.52 144.096 96.776V101H143.04V95.848ZM151.724 95.288C151.564 94.9787 151.351 94.7333 151.084 94.552C150.817 94.3707 150.492 94.28 150.108 94.28C149.927 94.28 149.74 94.3013 149.548 94.344C149.367 94.3867 149.201 94.456 149.052 94.552C148.903 94.6373 148.78 94.7493 148.684 94.888C148.599 95.0267 148.556 95.1973 148.556 95.4C148.556 95.752 148.679 96.008 148.924 96.168C149.169 96.328 149.537 96.4667 150.028 96.584L151.1 96.84C151.623 96.9573 152.055 97.1973 152.396 97.56C152.748 97.912 152.924 98.3547 152.924 98.888C152.924 99.2933 152.839 99.6453 152.668 99.944C152.508 100.232 152.289 100.472 152.012 100.664C151.745 100.845 151.436 100.979 151.084 101.064C150.732 101.149 150.375 101.192 150.012 101.192C149.436 101.192 148.897 101.085 148.396 100.872C147.905 100.648 147.484 100.269 147.132 99.736L148.044 99.112C148.257 99.4533 148.524 99.7253 148.844 99.928C149.175 100.131 149.564 100.232 150.012 100.232C150.225 100.232 150.439 100.211 150.652 100.168C150.865 100.115 151.052 100.04 151.212 99.944C151.383 99.8373 151.516 99.704 151.612 99.544C151.719 99.384 151.772 99.1973 151.772 98.984C151.772 98.6107 151.633 98.344 151.356 98.184C151.079 98.0133 150.743 97.88 150.348 97.784L149.324 97.544C149.196 97.512 149.02 97.4587 148.796 97.384C148.583 97.3093 148.369 97.1973 148.156 97.048C147.953 96.8987 147.777 96.7067 147.628 96.472C147.479 96.2267 147.404 95.928 147.404 95.576C147.404 95.192 147.479 94.856 147.628 94.568C147.788 94.28 147.996 94.0453 148.252 93.864C148.519 93.6827 148.817 93.5493 149.148 93.464C149.479 93.368 149.82 93.32 150.172 93.32C150.695 93.32 151.18 93.4213 151.628 93.624C152.076 93.8267 152.423 94.1733 152.668 94.664L151.724 95.288Z" fill="#181818"/>
<path d="M29 18C29.34 18 29.68 18.02 30.01 18.07C28.1 20.23 27 23.05 27 26C27 28.95 28.1 31.77 30.01 33.93C29.68 33.98 29.34 34 29 34C24.59 34 21 30.41 21 26C21 21.59 24.59 18 29 18ZM29 16C23.48 16 19 20.48 19 26C19 31.52 23.48 36 29 36C30.82 36 32.53 35.5 34 34.65C31.01 32.92 29 29.7 29 26C29 22.3 31.01 19.08 34 17.35C32.53 16.5 30.82 16 29 16Z" fill="#6D6E71"/>
<path d="M65.816 22.104C65.6027 21.7947 65.3147 21.5707 64.952 21.432C64.6 21.2827 64.2267 21.208 63.832 21.208C63.5973 21.208 63.368 21.2347 63.144 21.288C62.9307 21.3413 62.7333 21.4267 62.552 21.544C62.3813 21.6613 62.2427 21.816 62.136 22.008C62.0293 22.1893 61.976 22.408 61.976 22.664C61.976 23.048 62.1093 23.3413 62.376 23.544C62.6427 23.7467 62.9733 23.9227 63.368 24.072C63.7627 24.2213 64.1947 24.3653 64.664 24.504C65.1333 24.6427 65.5653 24.8347 65.96 25.08C66.3547 25.3253 66.6853 25.6507 66.952 26.056C67.2187 26.4613 67.352 27 67.352 27.672C67.352 28.28 67.24 28.8133 67.016 29.272C66.792 29.72 66.488 30.0933 66.104 30.392C65.7307 30.6907 65.2933 30.9147 64.792 31.064C64.2907 31.2133 63.7627 31.288 63.208 31.288C62.504 31.288 61.8267 31.1707 61.176 30.936C60.5253 30.7013 59.9653 30.3067 59.496 29.752L61.016 28.28C61.2613 28.6533 61.5813 28.9467 61.976 29.16C62.3813 29.3627 62.808 29.464 63.256 29.464C63.4907 29.464 63.7253 29.432 63.96 29.368C64.1947 29.304 64.408 29.208 64.6 29.08C64.792 28.952 64.9467 28.792 65.064 28.6C65.1813 28.3973 65.24 28.168 65.24 27.912C65.24 27.496 65.1067 27.176 64.84 26.952C64.5733 26.728 64.2427 26.5413 63.848 26.392C63.4533 26.232 63.0213 26.0827 62.552 25.944C62.0827 25.8053 61.6507 25.6187 61.256 25.384C60.8613 25.1387 60.5307 24.8187 60.264 24.424C59.9973 24.0187 59.864 23.48 59.864 22.808C59.864 22.2213 59.9813 21.7147 60.216 21.288C60.4613 20.8613 60.776 20.5093 61.16 20.232C61.5547 19.944 62.0027 19.7307 62.504 19.592C63.0053 19.4533 63.5173 19.384 64.04 19.384C64.6373 19.384 65.2133 19.4747 65.768 19.656C66.3333 19.8373 66.84 20.136 67.288 20.552L65.816 22.104ZM68.8226 18.904H70.7426V31H68.8226V18.904ZM73.998 27.832C74.062 28.408 74.286 28.856 74.67 29.176C75.054 29.496 75.518 29.656 76.062 29.656C76.542 29.656 76.942 29.56 77.262 29.368C77.5927 29.1653 77.8807 28.9147 78.126 28.616L79.502 29.656C79.054 30.2107 78.5527 30.6053 77.998 30.84C77.4434 31.0747 76.862 31.192 76.254 31.192C75.678 31.192 75.134 31.096 74.622 30.904C74.11 30.712 73.6674 30.44 73.294 30.088C72.9207 29.736 72.622 29.3147 72.398 28.824C72.1847 28.3227 72.078 27.768 72.078 27.16C72.078 26.552 72.1847 26.0027 72.398 25.512C72.622 25.0107 72.9207 24.584 73.294 24.232C73.6674 23.88 74.11 23.608 74.622 23.416C75.134 23.224 75.678 23.128 76.254 23.128C76.7874 23.128 77.2727 23.224 77.71 23.416C78.158 23.5973 78.5367 23.864 78.846 24.216C79.166 24.568 79.4114 25.0053 79.582 25.528C79.7634 26.04 79.854 26.632 79.854 27.304V27.832H73.998ZM77.934 26.392C77.9234 25.8267 77.7474 25.384 77.406 25.064C77.0647 24.7333 76.59 24.568 75.982 24.568C75.406 24.568 74.9474 24.7333 74.606 25.064C74.2754 25.3947 74.0727 25.8373 73.998 26.392H77.934ZM82.7007 27.832C82.7647 28.408 82.9887 28.856 83.3727 29.176C83.7567 29.496 84.2207 29.656 84.7647 29.656C85.2447 29.656 85.6447 29.56 85.9647 29.368C86.2953 29.1653 86.5833 28.9147 86.8287 28.616L88.2047 29.656C87.7567 30.2107 87.2553 30.6053 86.7007 30.84C86.146 31.0747 85.5647 31.192 84.9567 31.192C84.3807 31.192 83.8367 31.096 83.3247 30.904C82.8127 30.712 82.37 30.44 81.9967 30.088C81.6233 29.736 81.3247 29.3147 81.1007 28.824C80.8873 28.3227 80.7807 27.768 80.7807 27.16C80.7807 26.552 80.8873 26.0027 81.1007 25.512C81.3247 25.0107 81.6233 24.584 81.9967 24.232C82.37 23.88 82.8127 23.608 83.3247 23.416C83.8367 23.224 84.3807 23.128 84.9567 23.128C85.49 23.128 85.9753 23.224 86.4127 23.416C86.8607 23.5973 87.2393 23.864 87.5487 24.216C87.8687 24.568 88.114 25.0053 88.2847 25.528C88.466 26.04 88.5567 26.632 88.5567 27.304V27.832H82.7007ZM86.6367 26.392C86.626 25.8267 86.45 25.384 86.1087 25.064C85.7673 24.7333 85.2927 24.568 84.6847 24.568C84.1087 24.568 83.65 24.7333 83.3087 25.064C82.978 25.3947 82.7753 25.8373 82.7007 26.392H86.6367ZM89.8673 23.32H91.6913V24.472H91.7233C92.0006 24.0027 92.374 23.6613 92.8433 23.448C93.3126 23.2347 93.8193 23.128 94.3633 23.128C94.95 23.128 95.478 23.2347 95.9473 23.448C96.4166 23.6507 96.8166 23.9333 97.1473 24.296C97.478 24.6587 97.7286 25.0853 97.8993 25.576C98.07 26.0667 98.1553 26.5947 98.1553 27.16C98.1553 27.7253 98.0646 28.2533 97.8833 28.744C97.702 29.2347 97.446 29.6613 97.1153 30.024C96.7953 30.3867 96.406 30.6747 95.9473 30.888C95.4886 31.0907 94.9873 31.192 94.4433 31.192C94.0806 31.192 93.7606 31.1547 93.4833 31.08C93.206 31.0053 92.9606 30.9093 92.7473 30.792C92.534 30.6747 92.3526 30.552 92.2033 30.424C92.054 30.2853 91.9313 30.152 91.8353 30.024H91.7873V34.648H89.8673V23.32ZM96.2353 27.16C96.2353 26.8613 96.182 26.5733 96.0753 26.296C95.9793 26.0187 95.83 25.7733 95.6273 25.56C95.4353 25.3467 95.2006 25.176 94.9233 25.048C94.646 24.92 94.3313 24.856 93.9793 24.856C93.6273 24.856 93.3126 24.92 93.0353 25.048C92.758 25.176 92.518 25.3467 92.3153 25.56C92.1233 25.7733 91.974 26.0187 91.8673 26.296C91.7713 26.5733 91.7233 26.8613 91.7233 27.16C91.7233 27.4587 91.7713 27.7467 91.8673 28.024C91.974 28.3013 92.1233 28.5467 92.3153 28.76C92.518 28.9733 92.758 29.144 93.0353 29.272C93.3126 29.4 93.6273 29.464 93.9793 29.464C94.3313 29.464 94.646 29.4 94.9233 29.272C95.2006 29.144 95.4353 28.9733 95.6273 28.76C95.83 28.5467 95.9793 28.3013 96.0753 28.024C96.182 27.7467 96.2353 27.4587 96.2353 27.16Z" fill="#181818"/>
<defs>
<clipPath id="clip0_1602_87235">
<rect x="181" y="59" width="14" height="14" rx="2.2" fill="white"/>
</clipPath>
<clipPath id="clip1_1602_87235">
<rect x="181" y="89" width="14" height="14" rx="2.2" fill="white"/>
</clipPath>
<clipPath id="clip2_1602_87235">
<rect x="50" y="59" width="14" height="14" rx="2.2" fill="white"/>
</clipPath>
<clipPath id="clip3_1602_87235">
<rect x="50" y="89" width="14" height="14" rx="2.2" fill="white"/>
</clipPath>
</defs>
</svg>
