<svg width="25" height="20" viewBox="0 0 25 20" fill="none" xmlns="http://www.w3.org/2000/svg">
<path d="M24.7274 2.56885C23.8424 2.95785 22.8974 3.22285 21.9024 3.34385C22.9164 2.73285 23.6964 1.76985 24.0654 0.62085C23.1144 1.17585 22.0604 1.57985 20.9384 1.80485C20.0424 0.84585 18.7654 0.24585 17.3474 0.24585C14.6304 0.24585 12.4274 2.44885 12.4274 5.16285C12.4274 5.55285 12.4724 5.92785 12.5544 6.28685C8.46444 6.09385 4.83944 4.12985 2.41344 1.16085C1.98644 1.88285 1.74744 2.72185 1.74744 3.63585C1.74744 5.34585 2.61744 6.84885 3.93544 7.73185C3.12844 7.70585 2.36944 7.48385 1.70744 7.11585V7.17685C1.70744 9.56185 3.40044 11.5508 5.65344 12.0038C5.24044 12.1148 4.80444 12.1748 4.35744 12.1748C4.04344 12.1748 3.74244 12.1448 3.44144 12.0888C4.07244 14.0418 5.88644 15.4658 8.04544 15.5058C6.36544 16.8248 4.23644 17.6108 1.94344 17.6108C1.55344 17.6108 1.16444 17.5878 0.773438 17.5438C2.96244 18.9378 5.54144 19.7528 8.33044 19.7528C17.3844 19.7528 22.3294 12.2568 22.3294 5.76685C22.3294 5.55785 22.3294 5.34685 22.3144 5.13685C23.2754 4.44785 24.1144 3.57685 24.7744 2.58885L24.7274 2.56885Z" fill="#5A9F93"/>
</svg>
