<svg width="25" height="18" viewBox="0 0 25 18" fill="none" xmlns="http://www.w3.org/2000/svg">
<path d="M24.5344 4.20005C24.5344 4.20005 24.3 2.54536 23.5781 1.8188C22.6641 0.862549 21.6422 0.857861 21.1734 0.801611C17.8172 0.557861 12.7781 0.557861 12.7781 0.557861H12.7687C12.7687 0.557861 7.72969 0.557861 4.37344 0.801611C3.90469 0.857861 2.88281 0.862549 1.96875 1.8188C1.24688 2.54536 1.01719 4.20005 1.01719 4.20005C1.01719 4.20005 0.773438 6.14536 0.773438 8.08599V9.90474C0.773438 11.8454 1.0125 13.7907 1.0125 13.7907C1.0125 13.7907 1.24687 15.4454 1.96406 16.1719C2.87812 17.1282 4.07813 17.0954 4.6125 17.1985C6.53438 17.3813 12.7734 17.4375 12.7734 17.4375C12.7734 17.4375 17.8172 17.4282 21.1734 17.1891C21.6422 17.1329 22.6641 17.1282 23.5781 16.1719C24.3 15.4454 24.5344 13.7907 24.5344 13.7907C24.5344 13.7907 24.7734 11.85 24.7734 9.90474V8.08599C24.7734 6.14536 24.5344 4.20005 24.5344 4.20005ZM10.2938 12.1125V5.36724L16.7766 8.75161L10.2938 12.1125Z" fill="#5A9F93"/>
</svg>
