<svg width="21" height="20" viewBox="0 0 21 20" fill="black" xmlns="http://www.w3.org/2000/svg">
<path d="M5.14 8.56L6.2 7.5L5.14 6.44L6.2 5.38L8.32 7.5L6.2 9.62L5.14 8.56ZM2.32 7C2.35 7 2.37 7.01 2.4 7.01C3.59 4.07 6.46 2 9.82 2C12.01 2 13.98 2.88 15.43 4.3C15.58 3.7 15.88 3.01 16.24 2.34C14.5 0.88 12.26 0 9.81 0C4.93 0 0.87 3.51 0 8.14C0.56 7.44 1.41 7 2.32 7ZM18.82 8.5C18.4 8.5 18 8.41 17.63 8.28C17.75 8.83 17.82 9.41 17.82 10C17.82 14.42 14.24 18 9.82 18C6.46 18 3.59 15.93 2.4 12.99C2.37 12.99 2.35 13 2.32 13C1.8 13 1.28 12.86 0.82 12.6C0.5 12.42 0.23 12.18 0 11.9C0.89 16.51 4.93 20 9.8 20C15.34 20 19.82 15.52 19.82 10C19.82 9.45 19.76 8.91 19.68 8.38C19.4 8.45 19.12 8.5 18.82 8.5ZM18.82 1C18.82 1 16.82 3.9 16.82 5C16.82 6.1 17.72 7 18.82 7C19.92 7 20.82 6.1 20.82 5C20.82 3.9 18.82 1 18.82 1ZM13.44 5.38L11.32 7.5L13.44 9.62L14.5 8.56L13.44 7.5L14.5 6.44L13.44 5.38ZM6.38 15C7.07 13.81 8.35 13 9.82 13C11.29 13 12.57 13.81 13.26 15H14.94C14.14 12.95 12.15 11.5 9.82 11.5C8.95 11.5 8.12 11.7 7.39 12.07L3.81 10C3.81 9.48 3.55 8.98 3.07 8.71C2.35 8.3 1.44 8.54 1.02 9.26C0.61 9.98 0.85 10.89 1.57 11.31C2.05 11.59 2.62 11.56 3.06 11.31L6.03 13.03C5.46 13.56 5 14.24 4.7 15H6.38Z" fill="black"/>
</svg>