<svg width="18" height="16" viewBox="0 0 18 16" fill="none" xmlns="http://www.w3.org/2000/svg">
<path d="M9 4C10.1046 4 11 3.10457 11 2C11 0.89543 10.1046 0 9 0C7.89543 0 7 0.89543 7 2C7 3.10457 7.89543 4 9 4Z" fill="#6D6E71"/>
<path d="M18 12.0005V10.0005C15.76 10.0005 13.84 9.04049 12.4 7.32049L11.06 5.72049C10.68 5.26049 10.12 5.00049 9.53 5.00049H8.48C7.89 5.00049 7.33 5.26049 6.95 5.72049L5.61 7.32049C4.16 9.04049 2.24 10.0005 0 10.0005V12.0005C2.77 12.0005 5.19 10.8305 7 8.75049V11.0005L3.12 12.5505C2.45 12.8205 2 13.4805 2 14.2105C2 15.2005 2.8 16.0005 3.79 16.0005H6V15.5005C6 14.1205 7.12 13.0005 8.5 13.0005H11.5C11.78 13.0005 12 13.2205 12 13.5005C12 13.7805 11.78 14.0005 11.5 14.0005H8.5C7.67 14.0005 7 14.6705 7 15.5005V16.0005H14.21C15.2 16.0005 16 15.2005 16 14.2105C16 13.4805 15.55 12.8205 14.88 12.5505L11 11.0005V8.75049C12.81 10.8305 15.23 12.0005 18 12.0005Z" fill="#6D6E71"/>
</svg>
